<svg xmlns="http://www.w3.org/2000/svg" viewBox="0 0 604.93 185.17"><g id="Capa_2" data-name="Capa 2"><g id="Capa_3" data-name="Capa 3" fill="#ffffff"><path d="M69.37,140.93c-.69.23-3,.5-2.59.74-.67-.26-.84-.9-1.31-2.2-1.53-4.19-1.54-9.12-1.64-13.51-.21-9,.76-17.93.94-26.91.19-10,.85-19.9.14-29.85-.56-7.91-1.7-18.41-6.91-24.76-4.1-5-8.44-4.77-11.93-1.83-3.2-7.18-11.38-15.3-18.79-8-4.2,4.12-6.85,10-8.78,16.24-1.72-2.4-4-3.42-7.17-1.71C6.13,52,4.12,61.45,2.81,66.58,1.23,72.77-1,80.16.49,86.57a.45.45,0,0,0,.86,0c1.43-5.67,3-11.43,4.68-17A75,75,0,0,1,9.92,58.6c.46-1,1.13-1.86,1.66-2.8,0,3.66.66,7.37,1,11q.32,3.26.6,6.53c-2.14,10.37-3.82,20.84-5.26,31.32C6.85,112.55,6,121.16,8.18,129c1.22,4.4,4.12,9.53,9.58,7.94,5.89-1.73,6.42-8.14,6.84-13.21a249,249,0,0,0-.78-49.66A127.47,127.47,0,0,0,21.93,59.9c1.22-4.17,2.59-8.27,4.19-12.25,1.17-2.91,2.65-7,5.21-9,1.59-1.27,1.85-1,3.17.63,3.55,4.29,4.46,9.09,5.09,14.53-1.17,3.48-2,7.07-2.89,10.65a72.16,72.16,0,0,0-2.41,13.09c0,.25.35.24.38,0A65.12,65.12,0,0,1,40.1,58.74c1.61,17.66.93,35.7-.46,53.32-.12,1.48-.23,2.9-.35,4.3C38.05,112,37,107.51,36.15,103c-.34-1.92-3.48-1.47-3.4.47.29,7.35-.06,14.82,1.25,22.1.58,3.19,1.5,7.49,5.11,8.51,2.07.59,3.67-.28,5.25-1.49a5.18,5.18,0,0,0,.81-1,4.81,4.81,0,0,0,.51-.76,24.34,24.34,0,0,0,1.11-2.44c1.52-4,2.12-8.35,2.73-12.54C51.4,103,51.65,89.71,51.27,76.74c-.29-9.9-.52-20.87-3.78-30.47,1.27-1.22,2.74-1.91,4.28-1.05,2.81,1.56,3.08,6.74,3.59,9.45A98.27,98.27,0,0,1,56.82,69.2c.52,13.45-.39,27.08-1.26,40.51-.62,9.45-1.19,19.28.59,28.64.72,3.78,2.11,8.37,5.63,10.48,4.22,2.53,8.47,0,11-3.53C74.2,143.18,71.76,140.15,69.37,140.93Zm-54.72-25.4c0,.89-.44,4.83-.64,8.26a28.79,28.79,0,0,1-1.1-7.89,87.26,87.26,0,0,1,.92-12.4q.39-3.16.83-6.37C14.8,103.26,14.78,109.39,14.65,115.53Zm22.57,12.2a4.17,4.17,0,0,0,.52-.77C38,126.81,38.17,126.69,37.22,127.73Z"/><path d="M159.57,134.69c.09-1,.18-2.06.23-3.11.39-7.2,1.19-17.54-1.71-25.09a6.59,6.59,0,0,0-1.05-3.74,2.27,2.27,0,0,0-3-.8c-2.29,1.53-2.74,4.63-3.8,7a60.4,60.4,0,0,1-4.32,8.34,13.63,13.63,0,0,1-2.21,2.88c-3-2.45-3.16-7.61-3.12-11.06.07-8.21,2.17-16.9,6.64-23.84,1.14-1.76,2.42-4.12,4.8-3.39,1.35.42,2.25,1.92,2.9,3.08,1.79,3.21,1.58,6.46,2,10,.15,1.27,1.75,2.34,2.8,1.16,5.83-6.59-.43-20.68-9.15-20.8-6.07-.09-10.53,5.81-13.44,10.49a45.93,45.93,0,0,0-6.28,19.84,41.44,41.44,0,0,0-.06,8.76,39.28,39.28,0,0,1-3.64,5.4c-.17.22-1.11,1.17-2,2.12.11-1.44.23-3,.25-3.12,1.69-9.78,4.31-19.35,6.73-29a251.67,251.67,0,0,0,5.42-29.15c.35-2.74-3.81-3.55-5-1.36-1.89,3.4-4.86,7.61-8.45,9.93,0-1.18.05-2.35,0-3.52-.14-3.92-1.09-10.82-5.43-12.49-5.76-2.2-9.2,4.75-9.78,9.21-.8,6.21,2.43,13,8.84,14.24-1.9,9.19-5.19,18-8.73,26.69-1.39,3.4-2.94,6.72-4.55,10-.83,1.68-2.66,6.79-4.73,7.83C97.17,106,105.34,91,102.24,75.85c-.12-1.66-2.79-2.62-3.57-.83q-1.55,3.53-2.8,7.16c-.25-.8-.52-1.53-.76-2.11-1.54-3.74-4.83-7.1-9.23-6.35-5.14.88-9.71,7.37-12.18,11.55a48,48,0,0,0-6,19.11c-.93,8.5-.52,31.19,13.85,26.4,4.61-1.53,6.88-5.6,8.09-10.24a15.33,15.33,0,0,0,1.94,7c4.74,7.24,13.61,1.7,16.37-4,2.55-5.23,3.84-11.15,5.86-16.6,3.58-9.61,7.76-20.09,9.44-30.6a14.93,14.93,0,0,0,5.23-3.2c-2.53,8.41-5.33,16.76-7.67,25.19-1.74,6.25-3.36,12.54-4.6,18.91-.91,4.72-1.77,8.87,1.3,13,4.38,5.87,10.83,2.36,14.07-2.56a35.78,35.78,0,0,0,2.2-3.9c.37.62.77,1.24,1.22,1.85,3,4.08,7.94,6.65,12.86,4a13.32,13.32,0,0,0,4.68-4.4c-.08,2.46-.22,4.92-.44,7.38-14.1-1.69-30.12,7.64-35.66,21.63-3.88,9.82-3,27.82,9.83,30.59,13,2.81,22.68-13.29,26.75-23.17A89.51,89.51,0,0,0,159,139.93a28.15,28.15,0,0,1,8.33,7.48c1.6,2.1,5.05.3,3.65-2.13A25.15,25.15,0,0,0,159.57,134.69ZM91,101.23c-.23,1.35-.44,2.71-.64,4.07a2.61,2.61,0,0,0-3.66.71c-1.79,3.16-3.11,6.57-4.68,9.84a19.7,19.7,0,0,1-2.44,4.31l-.3.33c-3-10-1.36-20.87,2.35-30.46,1-2.69,5.41-14.3,8.74-9,1.82,2.89.63,7.65,2.74,10.27C92.28,94.58,91.58,97.9,91,101.23Zm23.59-40c1.72-5.75,3.62-.39,4,2.58a27.48,27.48,0,0,1,0,7C114.91,70.09,113.52,64.88,114.6,61.24Zm35.87,82.86C148.2,155,143.89,168,134.52,175c-4,3-8.11,3.82-11.25-.75-2.82-4.09-3.38-9.77-2.4-14.54,1.88-9.07,8.89-16.65,17.19-20.42a23.38,23.38,0,0,1,13.55-2Q151.16,140.7,150.47,144.1Z"/><polygon points="269.61 117.44 269.6 117.44 269.6 117.45 269.61 117.45 269.61 117.44"/><path d="M294.28,39.9c-.51-.63-1.37-.16-1.61.42-1.27,3.15-1.67,7.15-4.39,9.49s-5.45,1.46-8.41.44a37.45,37.45,0,0,1-4.46-1.92c0-.41.09-.82.13-1.22a58.4,58.4,0,0,0,.47-9.25c-.14-2.47-.42-4.83-3.23-5.15s-3.61,2.29-4.33,4.13a41.4,41.4,0,0,0-1.93,6.77l-.47-.23c-4.5-2.12-9.54-4.1-14.49-2.35A10.34,10.34,0,0,0,246,45.65c-1.77,3.08-1.32,5.24-.59,8.43.59,2.62,3.88,2.52,5.22.68.76-1,2.72-3.78,4-4.17,1.57-.5,4.34.94,5.71,1.54s2.94,1.39,4.37,2.16c-1.05,6.91-1.86,13.88-2.55,20.82-.81,8.21-1.51,16.47-1.68,24.73a67.62,67.62,0,0,1-5.56,11.72c-1.85,3-4.72,7.56-8.28,8.75-4.85,1.62-5.84-5.56-5.68-12.53,6.37,2.78,12.69-2.14,14.77-8.79s2.75-18.54-3.9-22.93c-10.6-7-18.91,13.11-20.13,20.33-.17,1-.33,2-.48,3a26.86,26.86,0,0,0-2.16,5,73.76,73.76,0,0,1-3.43,7.18c-.51,1-1,2-1.57,2.92.15-4.35.61-8.72,1-13,.81-8.16,2.13-16.26,2.92-24.41.54-5.59.48-11.19.7-16.82.27-3.28-5-4-5.72-.77-.58,2.45-1.26,4.86-2,7.26-1.71,3.46-4.5,6.45-7.94,7.25a46.62,46.62,0,0,0-.5-5.43c-.65-4.22-2.41-8.18-6.91-9.14-5.27-1.12-6.61,6.31-6.06,10.33a12.18,12.18,0,0,0,6.15,9.12,130.72,130.72,0,0,1-3.08,17c-1,4.6-2.25,9.15-3.55,13.68a71,71,0,0,1-2.55,8.33,105.81,105.81,0,0,1-.7-12.84c.09-8.87,1.78-18.3.29-27a1.6,1.6,0,0,0-2.66-.7,29.28,29.28,0,0,0-4.37,7.81c-.74-2.93-2.08-5.6-3.65-7-2.95-2.64-7.28-2.1-10.31.2-5.5,4.19-7.26,12.66-8.46,19-1.63,8.59-6.91,24.25,2.38,30.62,4.48,3.08,9.85.91,12.75-3.24,2-2.82,2.43-6.89,3.06-10.24.18-1,.38-1.93.59-2.89-.1,7.5.49,17.49,7.33,20.22,11.54,4.62,13.59-17.26,15.12-24,2-8.67,4.4-18.09,5-27.35a13.31,13.31,0,0,0,2.75-.47,14.34,14.34,0,0,0,2.22-.84c-1.62,9.08-2.79,18.32-3.71,27.48-.58,5.84-1.93,13.91.59,19.48,3.4,7.54,10.5,3.46,13.31-1.94,1.15-2.22,2.2-4.52,3.18-6.85a23.47,23.47,0,0,0,1.35,3.91c2.63,5.79,8,11.2,14.89,9.61,5.65-1.3,10.47-6.34,13.81-12.38a14.39,14.39,0,0,0,3.29,6.65,7.7,7.7,0,0,0,9.47,1.45c4.05-2.21,5.39-6.42,6.92-9.8s-2.84-7.87-5.75-4.43c-.3.36-.47.58-.57.71a3.6,3.6,0,0,0-.63.44c-.81.62-1.41,1.3-2.16,2a76.85,76.85,0,0,1-1-15c.26-13.86,1.8-27.64,3.34-41.4.59.23,1.19.45,1.8.65,6.36,2,12.43.88,16.7-4.45C296.12,51,297.9,44.47,294.28,39.9ZM183.94,101.57c-2,4-3.5,8-5.78,11.81-.29.49-2,2.49-3.09,3.83a16.31,16.31,0,0,1-.48-4.12c.45-3.47,1.33-7,1.89-10.44.46-2.85,2.61-21.5,6.87-20.72,2,.37,2.79,6.26,2.75,7.72-.07,2.19-.75,4.36-.82,6.57a.85.85,0,0,0,1,.83c-.15,1.19-.27,2.37-.37,3.55A1.76,1.76,0,0,0,183.94,101.57Zm19.49-37.25a3.71,3.71,0,0,0,1.14-1.06c.18.59.27,1.23.41,1.82a35.43,35.43,0,0,1,1,7.19C203.68,70.37,202.3,67.22,203.43,64.32Zm16.07,56.6s.06,0,.19-.06S219.63,121,219.5,120.92Zm4.82,1.44c.52.37-.14,1,0,0ZM244,88c.5-1.6,1.73-6.8,3.61-7.4,2.51-.81,3.35,3.55,3.66,5.25.82,4.59.78,16.11-5.41,16.87-1.66.2-3.11-.74-4.51-1.94.22-2,.46-3.63.6-4.37A69.19,69.19,0,0,1,244,88Zm25.5,29.44h.06l.06-.08-.05.08h0a.53.53,0,0,0-.06.1s0,0,.05-.1Zm2.89.7,0,0a.59.59,0,0,0,0,.25Zm.05,0a0,0,0,0,0,0,0l0,0v0Z"/><path d="M356.37,57.81c.47-6.66,1.14-13.31,1.51-20,.68-12.14,1-25.93-6.06-36.44-1.3-1.93-5-2-5.48.72-4.84,27.39-6.52,55.56-7,83.36,0,.23,0,.46,0,.68a17.44,17.44,0,0,1-7.13,1.63c-1,.07-2,.11-3,.14q.7-10.31,1.23-20.62c.52-10.38.49-20.78.59-31.17.05-5.51.12-11,.26-16.53.11-4.44,1.44-10.19-1.37-13.94a2.74,2.74,0,0,0-4.2-.54c-3.5,3-3.31,8.27-3.77,12.54-.55,5.17-.83,10.35-1,15.55-.34,11-.3,22.09-.8,33.12-.32,7.21-.72,14.41-1,21.62h-.27c-5.56,0-12.25-1.34-17.62,0a5.34,5.34,0,0,0-2.48,1.51A2.05,2.05,0,0,0,297.32,91c-1.43,6.61,4.1,14.8,7.51,20.09,4.45,6.92,9.79,13.23,14.39,20.06,0,.06.09.1.13.16.63,2.47,5.11,3.22,6.12,0,1.45-4.64,1.28-9.83,1.65-14.65.43-5.6.81-11.2,1.22-16.8,0-.49.07-1,.1-1.45a58.54,58.54,0,0,0,8.89-.82,17.55,17.55,0,0,0,1.94-.46q.06,15.34,1,30.68c.79,13.09,1.69,26.51,4.13,39.43a5.56,5.56,0,0,0,.54,2.43l.32.68c2.08,4.43,9.93,2.38,9.41-2.55-1.42-13.67-3.4-27.2-4.24-40.95-.73-12.05-1-24.11-1-36.17a12.58,12.58,0,0,0,3.23-9.32,27.37,27.37,0,0,0,1.83-5.14C356,70.21,355.94,64,356.37,57.81Zm-46,40.53c2.81.11,5.61.14,8.42.15,0,.13,0,.26,0,.4-.08,5.27-.15,10.54-.12,15.82,0,1.26,0,2.56-.05,3.86-2.13-3.28-4.24-6.56-6.27-9.89-1.92-3.14-3.88-6.26-5.57-9.53-.13-.27-.27-.55-.4-.83C307.78,98.32,309.16,98.29,310.39,98.34Zm42.27-59.82c-.3,5.86-.87,11.7-1.2,17.55s-.07,11.56-1,17.26c-.17,1-.37,1.93-.59,2.86l-.22-.09c.48-20.36,1.87-40.7,2.41-61C353.78,22.73,353,31.76,352.66,38.52Z"/><path d="M597.09,114.26a58.42,58.42,0,0,1-9.63,6.41c-1.18.62-3.22,1.85-4.6,1.63l-.12,0c0-.43-.23-1.4-.21-1.9.22-6.62,4.2-13.57,6.64-19.59,2.6-6.39,4.63-12.74,4.94-19.66.15-3.45.81-8.3-2.52-10.56s-6.92.12-9.42,2.46a45.72,45.72,0,0,0-6.85,8.28c.24-2.44.39-4.91.42-7.47,0-2.86-4.07-5-6.07-2.51A103.63,103.63,0,0,1,555.83,86c-.32.27-.82.66-1.43,1.11a11.8,11.8,0,0,0-2.29-6.3,1.58,1.58,0,0,0-.66-2.7c-15.35-4.63-23.85,12.36-27.06,25.12a4.14,4.14,0,0,0-1.36,1.62c-1.8,3.8-3.6,7.78-5.8,11.45a23.62,23.62,0,0,1-.25-2.83c-.08-4,.08-8.1.31-12.14a241.48,241.48,0,0,1,2.54-26.46c1.13-6.72,2.52-13.39,3.9-20.05,7.85,1.51,16.15,1.27,23.41-1.9a24.05,24.05,0,0,0,11.38-9.79c1.09-1.91,4.8-12.25-.71-11.9-4.48.28-6.71,6.59-9.72,9.3-3.53,3.17-8.38,4.59-13,4.84a38.87,38.87,0,0,1-9.26-.64c.25-1.27.5-2.55.74-3.82a107.19,107.19,0,0,0,2.62-16.64c.32-4.93-8.07-6.18-8.75-1.18-.88,6.49-2.24,12.88-3.74,19.24-3-1-6-2.07-9-3.09,1.05-6.8,1.19-13.74-.67-19.92-1-3.25-3.73-8.86-7.82-8.87-3.56,0-6,4.78-7.27,7.47a87.26,87.26,0,0,0-5.6,15.87c-14.07-2.15-29.25-.91-32.21,13.62-.69,3.38,4,5.79,5.83,2.45,5.15-9.46,14.62-10.53,24.7-8.49-.56,2.92-1,5.86-1.48,8.8-1.58,10.61-2.74,21.27-3.9,31.93-.66,1.9-1.12,4-1.57,5.52-2.5,8.47-5.1,16.37-9.72,24-.41.67-1.54,2-2.52,3.18a28.63,28.63,0,0,1-.68-10c.67-9.11,3.45-17.39,2.24-26.63.33-4.48-6.46-4.36-6.91,0a122.14,122.14,0,0,1-3.18,15.78c-.35,1.11-.71,2.21-1.1,3.29a96,96,0,0,1-8.47,17.9c0-3.75.35-7.55.61-11.23.66-8.9.79-17.71,1.23-26.62.11-2.15-1.78-3.47-3.68-3.69-6.77-.77-11.47,11.78-13.9,18.32.2-2.42.37-4.84.45-7.25.11-3.73,1.68-19.72-6.92-14.9-6,3.38-7.83,13.72-9.7,19.48-.06.21-.13.42-.2.63.06-3.28.17-6.55.49-9.78.22-2.19-2.83-4-4.62-2.65-4.12,3.09-6.19,7.39-8.49,11.89-3.25,6.33-7,12.39-10.51,18.59-.2.35-.58.91-1,1.57a160.49,160.49,0,0,1,.67-17.95c.31-4-.41-10.21.74-13.28,1.36-3.63-4.72-6.25-6.33-2.66q-1,2.15-1.89,4.3c-1.54-5.11-6.13-8.7-11.61-5.89-10.13,5.2-13.05,20.81-14.38,30.88-.69,5.24-1.12,10.89.56,16,1.79,5.41,7.43,10.48,13.34,7.52,2.76-1.39,4.32-4.13,5.28-7,1.43-4.16,2.36-8.52,3.61-12.75a51.36,51.36,0,0,0,.5,9c1,6.39,6.88,11.46,12.66,6,2.15-2,3-5,4.15-7.59,1.83-4.17,3.78-8.28,5.6-12.46q1-2.31,2-4.65c-.22,2-.42,3.93-.62,5.88-.79,7.62-2.93,15.79-.32,23.24,1.46,4.17,9,5.41,9.76,0A259.88,259.88,0,0,1,420,100.25c1-4,2.22-7.89,3.45-11.79-.44,2.67-.94,5.34-1.41,8-1.65,9.35-2.34,18.31-.77,27.73,1,5.73,9.91,4.21,9.93-1.34a81.55,81.55,0,0,1,1.26-8.51,79.42,79.42,0,0,1,4.06-14c1.07-2.94,2.2-5.86,3.45-8.74-.59,3.46-1.19,6.93-1.56,10.41a119.31,119.31,0,0,0-1.05,15.79c.13,5.28,1.69,13.71,9,12.11,4.79-1.06,7.43-6.93,9.25-10.93a2.14,2.14,0,0,0,.1-.22c1.12,4,3.2,7.66,6.86,9,6.69,2.48,12-6.61,15-12.79a21.46,21.46,0,0,0,5.52,10.7c5.72,5.84,14.5,5.61,19.44-1.05a46.15,46.15,0,0,0,4.1-6.72c.66,7.22,2.92,13.33,9,13,3.31-.19,6-2.38,8.28-5.39a18.08,18.08,0,0,0,1.8,3.34c4.65,6.72,13,4.86,17.53-.92,4.14-5.3,5.92-11.83,7.62-18.2A113.48,113.48,0,0,0,554,95.08a49.47,49.47,0,0,0,11.73-9.37c-4.14,14.27-10.17,28-11.51,43.07-.54,6,8.62,6.84,10.27,1.39,2.72-9,4.54-17.89,8.12-26.67,3.28-8,7-19.14,13.84-25.12-.8,2.29-1.29,4.74-2,7.06-2,6.66-5.29,12.86-7.94,19.29-3.23,7.82-9.2,24.7,3.46,27.78,8.83,2.15,19.8-5.67,24.19-12.76C607.07,115.09,600.85,111.2,597.09,114.26Zm-225-5c-1.06,2.51-3,5.52-3.42,8.17h0c-.15-1-.61-2.07-.68-3a31.93,31.93,0,0,1,0-4.69,63.45,63.45,0,0,1,5.07-21c1.08-2.49,2.14-4.92,4.18-6.77l.63-.32.33-.25a19.84,19.84,0,0,0,1.5,3.58c.15,1.21-1.2,5.94-.39,5.7a2,2,0,0,0-.87,3C376.37,98.9,374.28,104.1,372.09,109.27ZM392,117.21s-.09,0-.14-.12C392,117.16,392.07,117.2,392,117.21Zm51.39,3.05.09,0C443.41,120.46,443.51,120.31,443.42,120.26ZM496.33,26c.56-2.29,1.28-5.66,2.89-7.81,3.47,4.09,2.87,12.51,1.86,19-2-.59-4.19-1.18-6.49-1.73C495.05,32.25,495.57,29.1,496.33,26Zm3.07,20c-1.75,8.2-4.28,16.82-9.1,23.66.8-8.65,1.73-17.29,3.08-25.86C495.42,44.43,497.43,45.18,499.4,46ZM498.94,110c-1,2.17-3.43,9.49-6.23,9.78-3.45.35-4.88-6.2-5.18-8.52-1.32-10,.92-21.22,1.84-31.32a30.63,30.63,0,0,0,4.39-4,46,46,0,0,0,4-5.71A75.55,75.55,0,0,0,503.89,55c.62-2.05,1.23-4.21,1.8-6.43,3.16,1.33,6.08,2.58,8.6,3.55-1.47,6-2.9,12.07-4,18.18-.75,4.21-1.31,8.45-1.77,12.69,0,0,0,0,0,.08A154.38,154.38,0,0,1,498.94,110Zm19,12.12a.58.58,0,0,0,.16,0C517.93,122.18,517.92,122.36,517.92,122.14ZM541.54,90.8a5.77,5.77,0,0,1,.18-4.13A15.31,15.31,0,0,1,546,82.9a3.3,3.3,0,0,1,1.71.47c2.06,1.19,2.14,4.2,1.71,7C546.07,92.14,542.59,93.24,541.54,90.8Zm-3.4,27.76c-1.19,1.45-2.69,2.5-4,3.85l-.11.09a4.32,4.32,0,0,1-.61-1c-1.51-4.74-.54-9.34.49-14.12a91.15,91.15,0,0,1,3.38-12.47c1.94,2.83,5.73,3.83,10,2.79-1.18,3.22-2.6,6.35-3.81,9.56C542,111.22,540.89,115.24,538.14,118.56Z"/><path d="M462.9,61.41a5.17,5.17,0,0,0,5.54.39A5,5,0,0,0,470.23,60a5.65,5.65,0,0,0,.75-2.75c-.06-.44-.12-.88-.17-1.32a3.8,3.8,0,0,0-.89-1.68,2.53,2.53,0,0,0-.89-.89,3.63,3.63,0,0,0-1.68-.88L466,52.31l-1.32.18a3.68,3.68,0,0,0-1.68.88,3.84,3.84,0,0,0-1,1,5,5,0,0,0-.94,1.81l-.18,1.33a5.06,5.06,0,0,0,.68,2.52A3.86,3.86,0,0,0,462.9,61.41Z"/></g></g></svg>