<?xml version="1.0" encoding="utf-8"?>
<!-- Generator: Adobe Illustrator 25.0.1, SVG Export Plug-In . SVG Version: 6.00 Build 0)  -->
<svg version="1.1" id="Capa_1" xmlns="http://www.w3.org/2000/svg" xmlns:xlink="http://www.w3.org/1999/xlink" x="0px" y="0px"
	 viewBox="0 0 490.9 188.7" style="enable-background:new 0 0 490.9 188.7;" xml:space="preserve">
<style type="text/css">
	.st0{fill:#FFFFFF;}
</style>
<g>
	<path class="st0" d="M81.1,134.4c-0.8,1.4-3.5,6.1-5.8,5.1c-3.1-1.4-1.7-8.9-1.6-11.1c0.9-11.5,3.9-22.8,6.5-34.1
		c2.5-10.8,4.9-22,5.2-33.1c0.2-7.4,0.8-22.6-8.5-25.2c-9.4-2.5-17.2,6.3-22.6,14.2c-1.8-9.5-5.9-17.3-14.9-16.9
		C33,33.7,26.8,38.9,23,43.6c-5.5,7-7.8,15.9-5.8,24.5c0.6,2.5,4.6,2,4.5-0.6c-0.3-7.5,2.1-14.9,7.6-20.2c2.3-2.2,5.2-4.3,8.2-5.2
		c1.3-0.4,1.6-0.4,2.3-0.2c0.2,0.1,0.5,0.1,1.3,1c-0.1-0.2,1.1,2,1.3,2.4c1.1,2.6,1.7,6.1,2.1,9.2c0.4,3.8,0.7,7.7,0.8,11.5
		c-4.7,9.6-8.2,19.7-10.2,30.2c-2.3,11.9-4.6,28.7,4.2,38.6c2.1,2.3,6.8,1.9,8.1-1c3-6.5,3.6-14.6,4.6-21.6
		c1.7-11.4,2.9-22.9,3.3-34.4c0.2-4.4,0.5-12.4-0.2-20.4c0.3-0.5,0.6-1,0.9-1.5c2.8-4.5,6-9.1,10.5-12c3.3-2.2,6.9-2.8,7.9,2
		c1,5.2,0.7,11.2,0.5,16.4c-1.1,21.9-9.3,42.7-11.5,64.5c-0.8,8.1-0.9,19.4,8.4,22.7c8.6,3.1,14.6-4.4,17-11.7
		C90.4,133.1,83.5,130.3,81.1,134.4z M41.9,109.7c-0.4,3-1,6-1.6,9c-2.2-7.4-0.5-16.9,0.8-23.2c1-5,2.3-10.1,3.9-15.1
		C44.5,90.2,43.3,100.1,41.9,109.7z"/>
	<path class="st0" d="M244.9,156.1c-1.9-1-3.9-2-5.9-3c0.2-2,0.3-4,0.4-5.9c0.8-11.4,2-22.7,3.8-34c0.9-5.7,1.9-11.4,2.9-17.1
		c0.8-4.7,2.2-9.3,1.7-14c0.7-3.2-4.3-5.5-6.7-2.3c-2.9,3.9-3.5,9-4.5,13.6c-0.6,2.6-1.1,5.3-1.6,7.9c-1.7,4-3.6,7.8-5.8,11.5
		c-1.8,2.9-3.7,5.6-6.2,7.9c-0.8,0.7-1.5,1.4-2.2,1.9c-0.3,0.2-0.6,0.4-0.8,0.5c-0.2-1.7-0.3-3.6,0-5.9c1.2-12,6.3-23.6,10.3-34.8
		c0,0,0,0,0,0c1.3-4.6-6-8.6-8.4-3.6c-4.1,8.7-7.9,18-10.2,27.5c-0.8,1.3-1.5,2.5-2.3,3.7c-3.4,5.5-7.7,11.3-13.4,14.6
		c-6.2,3.7-10.4,1.1-12.4-5.5c-2.5-8.1-0.7-17.8,3.5-25.1c2-3.4,6.9-10.4,11.3-10.9c5.4-0.6,3.7,9.3,2.1,11.9
		c-1.4,2.2,1.9,4.8,3.7,2.8c6.5-7.1,5.5-24.3-7.4-22.4c-11.3,1.7-19.8,14.9-22.7,24.9c0,0,0,0.1,0,0.1c-1.4-0.6-3.2-0.3-4.4,1.3
		c-2.9,4.1-6,7.9-9.1,11.9c-0.5,0.6-0.9,1.2-1.4,1.8c1.2-10.2,6.2-20.3,5.7-30.6c-0.5-9.8-10.5-11.4-15.7-4.5
		c-2,2.6-3.7,5.5-5.1,8.6c0,0,0-0.1,0-0.1c0.4-3.5,1.1-7.2-1.1-10.2c-1.3-1.7-3.2-2.4-5.2-1.4c-6.6,3.6-8.9,13.2-11.4,19.7
		c-2.7,6.9-4.9,15.6-9.3,22.1c0-0.4,0-0.7,0-1c0.6-7.5,2.1-15,3.5-22.4c0.6-3.6,1.3-7.1,1.8-10.7c0.5-3.4,0.9-4.5,0.3-7.2
		c-0.7-3.7-6.7-3.8-7.6-0.2c-0.3,0.5-0.5,1.1-0.7,1.7c-0.4,1.1-0.7,2.3-1,3.4c-0.4,0.9-0.8,1.7-1.3,2.6c0.1-3.3-0.3-6.9-2.7-9.2
		C101.9,69,93.2,80.3,90,86.2c-4.8,8.7-8.2,19-8.9,28.9c-0.5,8.1,2.9,18.2,12.9,17.4c4.5-0.4,6.4-4.7,8.3-8.3
		c1.7-3.2,3.3-6.5,4.8-9.8c-0.2,1.6-0.3,3.2-0.4,4.8c-0.3,5.4-0.1,14.5,7.4,14.6c8.5,0.1,12.3-12.5,14.4-18.7c1.6-5,3.1-10,4.7-14.9
		c-0.3,1.6-0.6,3.1-0.8,4.7c-1.3,7.6-2.6,15.2-3.9,22.8c-1.1,6.5,9,9.3,10,2.8c1.1-7.1,2.2-14.1,3.2-21.2c3-6.7,6-13.7,10.2-19.8
		c1-1.4,2.2-2.6,3.4-3.6c-0.1,0.3-0.1,0.4-0.1,0.4c-0.9,2.7-1,6.1-1.7,8.9c-2.6,11.3-6.7,23-3.5,34.6c0.7,2.7,3.7,4.5,6.4,3.6
		c5.1-1.6,7.3-7.4,9.8-11.7c2.1-3.6,4.2-7.3,6.3-10.8c-0.2,6.3,1,12.6,4.3,17.8c5,7.7,14.2,8.8,21.6,3.6c4.6-3.3,8.2-7.5,11.1-12.2
		c-0.2,3.9,0.3,7.8,2.7,10.7c6.5,8.1,14.2,0.8,19.4-6.5c-0.5,4.1-1,8.3-1.4,12.4c-0.4,4.1-0.6,8.2-0.9,12.3
		c-10.2-3.6-21.2-5.3-31.5-1.9c-6.3,2.1-12.4,5.5-15.1,11.8c-2.5,5.7-1.9,12.5,1.3,17.8c7.5,12.3,25.9,13.8,38.1,8.8
		c11.1-4.6,14.7-14.2,16.2-24.6c1.4,0.6,2.7,1.1,4,1.6C245.9,164.2,248.5,158,244.9,156.1z M92,121.5c0-0.1-0.1-0.2-0.1-0.3
		c-0.9-2.4-0.6-5.3-0.3-7.8c0.8-6.6,3.1-13.2,5.9-19.2c1.2-2.5,2.5-5.2,4.2-7.5c0.3-0.4,1.3-1.5,1.3-1.6c0.2-0.2,1.5-0.9,2-1.5
		c0.2,0.2,0.3,0.4,0.4,0.6c0.7,1.5,1.1,3.1,1.3,4.9c0.3,2.1,0.3,4.4,0,6.5c-1.2,2.2-2.4,4.4-3.5,6.6C99.8,108.9,96.1,115.3,92,121.5
		z M113.2,123.6C113.2,123.6,113.2,123.6,113.2,123.6C112.9,124,112.9,123.5,113.2,123.6z M220.2,124.7c0.1,0.1,0.1,0.1,0.1,0.1
		C220.3,124.8,220.2,124.8,220.2,124.7z M227.7,162.1c-1.4,8-4.9,13.5-13.1,15.6c-6.7,1.7-15.8,1.1-21-4c-4-3.9-4.4-10.9,0.1-14.7
		c9.7-8.1,22.9-5.9,34.7-1.8C228.2,158.9,228,160.5,227.7,162.1z"/>
</g>
<g>
	<path class="st0" d="M381.2,135.3c-5.7,2.8-12.2,5.2-18.8,6.2c-0.1-3.9-0.3-7.7-0.4-11.3c-0.1-7.8,0-15.5-0.4-23.3
		c0.7-3.6,0.9-7.2,0.2-10.4c-0.2-0.9-0.6-1.6-1.1-2.1c-0.1-1.3-0.2-2.6-0.4-3.9c-0.3-3.7-0.4-7.4-2.3-10.7c-0.6-1-2-1-2.5,0
		c-3,5.2-2.6,12.8-3,18.6c-0.1,0.7-0.1,1.4-0.1,2.2c-0.6,3.8-1.6,7.7-2.9,11.4c-1.1,2.9-3.8,11.5-7.7,12c-0.1,0-0.4,0-0.5,0
		c-0.7-0.4-2-4.3-2.3-5.3c-1.3-4.1-1.5-8.4-1.5-12.7c0-8.5,2.3-17.8-0.4-26.1c-0.3-1-1.1-2.1-2.2-2.2c-0.5-0.1-0.9-0.1-1.3-0.1
		c-0.1,0-0.2,0-0.4,0.1c-1.1,0.2-1.9,1.3-2.2,2.2c-1.9,5.6-2.4,11.7-3,17.6c-0.6,5.6-1,11.2-0.3,16.8c1,8.6,4.9,22.1,16.2,19.8
		c3.2-0.7,5.7-2.5,7.9-4.8c0,4.2,0,8.4-0.1,12.6c-0.9-0.1-1.7-0.2-2.6-0.4c-8.5-1.8-15.9-6.5-22.6-11.7c-5-3.8-10.3-8.8-16.2-12.6
		c0.6-2,1-4,1.5-5.9c2.1-9.6,3.1-19.5,3.6-29.4c0.6-10.9,0.7-21.9-0.1-32.8c-0.5-6.7-0.4-15.4-4.7-20.2c-1.1-1.2-2.7-0.4-3.2,0.8
		c-1.7,4.2-1.2,10-1.2,15.1c0.1,8.1,0,16.2-0.3,24.3c-0.6,14.3-1,29.5-5.1,43.5c-4.4-1.2-9-1.3-13.8,0.7c-5.1,2.1-8.8,6.1-9.5,11.9
		c-0.6,5.9,2.3,10.9,7.9,12.8c6.5,2.2,12.8-0.1,17.1-5.2c1.5-1.8,2.8-3.8,3.9-6c0.5,0.4,1,0.8,1.5,1.1c6,4.6,11.6,9.7,17.9,14
		c7.7,5.3,16.4,9.2,25.8,10.2c0,0,0,0,0,0c-0.1,1.8-0.2,3.7-0.4,5.5c-0.6,4-1.9,8.5-5.2,11.1c-4.1,3.1-11.4,1.1-15.8-0.5
		c-5.3-2-10.1-5.3-14.3-9.2c-2.1-2-4.1-4.1-5.9-6.4c-1.8-2.3-3.2-4.8-5.9-6.1c-2.9-1.3-6.2,0.2-6.3,3.6c-0.2,6.4,6.9,12.8,11.3,16.8
		c5,4.5,10.6,8.3,16.9,10.8c11.7,4.7,26.1,4.4,32.4-8c2.8-5.4,3.8-11.6,4-17.9c8.1-1.4,15.5-5.2,22.4-10.2
		C388.6,138.9,385.4,133.3,381.2,135.3z M295,126c-1.5,1.8-2.3,2.6-4.3,2.8c0.2,0-1.3,0-1.5,0c-2.3-0.4-2.6-1.1-2.2-3.5
		c0.5-3.2,4-4.4,6.7-4.4c1.3,0,2.6,0.3,3.9,0.7C296.8,123.3,295.8,125,295,126z"/>
	<path class="st0" d="M468.2,130.4c4.9-5.1,5.8-13.3,6.6-20.7c-0.2-0.3-0.4-0.6-0.5-1c-0.1-0.3-0.3-0.7-0.4-1
		c-0.8,1.5-1.5,2.9-2.4,4.3c-0.9,1.6-1.9,3.1-3,4.6c-0.1,0.2-0.3,0.4-0.5,0.6c0.2-1.2,0.4-2.4,0.6-3.6c0.7-4,1.6-7.9,2.3-11.9
		c0.9-6,2.4-13-0.6-18.7c-6.7-12.6-16.7,1.5-21.7,10.6c0-0.9,0.1-1.9,0.1-2.8c0.2-3.2,0.3-6.4,0.5-9.6c6.6-14.6,14.1-28.8,17.9-44.5
		c2.4-10,6.6-29.1-4.5-36c-5.3-3.3-9.8,1.8-11.9,6.3c-3.6,8-5.3,16.9-6.7,25.5c-2,12.1-3.3,24.4-4.3,36.6c-0.5,6.6-1,13.2-1.4,19.7
		c-0.5,1.1-0.9,2.1-1.4,3.2c-4.1,9.7-7.3,20.2-13.5,28.9c-1.2,1.7-4.9,7.6-7.9,6.2c-1.7-0.8-2.5-5.1-2.9-6.8c-0.6-2.5-0.6-5-0.5-7.5
		c0.3-5.4,1.9-10.7,3.6-15.8c1.2-3.4,2.1-8.2,5-10.7c0.8-0.7,3.5-2.3,4.6-1.3c0.7,0.6-0.1,2.9-0.5,3.8c-0.4,1.1,0.9,2.5,2,2
		c4.8-1.9,7.2-6.7,4-11.3c-3.6-5.2-11-4.7-15.7-1.5c-3.1,2.2-5.3,5.5-6.6,9c-2.1,5.3-4.1,10.7-5.4,16.2c-1.2,5.2-1.9,11.4-1.1,17.3
		c-0.8,0.3-1.5,0.9-2,1.7c-0.7,1-1.4,1.9-2.2,2.9c-0.1-0.2-0.1-0.4-0.1-0.6c-0.8-5.5,0.8-11.8,1.1-17.4c0.4-6.5,0.6-13.1,0.5-19.7
		c-0.1-3.9-0.6-9.9-5.9-9.9c-3.4,0-7.3,3.7-9.5,6c-2.7,2.8-4.7,6-6.3,9.6c0-4.4-0.3-8.8-1.4-13c-0.8-2.9-5.2-3-6,0
		c-2.1,8.2-2,17.4-2.4,25.8c-0.4,8.8-0.3,17.6,1.1,26.3c1.1,6.4,11.9,3.7,10-2.6c-0.7-6-1.1-12.1-1.3-18.1c3.7-8,4.6-18.8,11.9-23.6
		c0,0.8-0.1,1.6-0.1,2.4c-0.1,2-0.2,3.9-0.3,5.9c-0.2,4.6-0.6,9.2-0.9,13.8c-0.5,6.2-2.1,12.9-0.2,19.1c1.2,4.1,4.3,8.1,8.9,8.1
		c4,0,6.8-2.6,8.8-5.7c0.5,0.7,1,1.4,1.6,2.1c6.5,7.2,16,3.6,21.1-3.1c3.9-5.3,6.5-11.1,8.7-17.2c-0.1,2.2-0.1,4.5-0.2,6.7
		c0,1.5-0.1,3,0,4.5c0.1,0.9,0.4,4.6,0.2,2.4c0.4,6.3,10.3,6.4,9.9,0c0.1,1.7,0-0.3,0.1-1.4c0.1-0.9,0.1-1.8,0.2-2.7
		c0.1-2.6,0.1-5.3,0.2-7.9c0.1-3.3,0.2-6.7,0.3-10c0.7-1.3,1.5-2.6,2.2-3.9c1.8-3.3,3.6-6.6,5.7-9.7c1.3-1.9,3.6-6,6-6.7
		c0.1,0,0.2,0,0.3-0.1c0.2,0.6,0.4,2.4,0.5,2.8c0.8,7.3-2.3,15.4-3.8,22.5c-1.1,5.4-4.1,14.4-0.1,19.2c2.5,3,6,3.2,9,1.8
		C467.9,130.7,468,130.5,468.2,130.4z M453.4,32.1c0.9-7,1.8-14.2,4-20.9c0.4-1.2,0.6-1.9,1-2.6c0.1-0.3,0.7-1.2,0.9-1.8
		c1.3,1.4,2.8,3.8,3.3,5.9c1,4,0.2,9.4-0.3,13.4c-0.6,4.8-1.6,9.6-3,14.2c-2.3,7.9-5.5,15.6-9,23.1C451.1,53,452.1,42.5,453.4,32.1z
		"/>
	<path class="st0" d="M459,6.5C458.8,6.6,458.8,6.4,459,6.5L459,6.5z"/>
</g>
</svg>
