<svg xmlns="http://www.w3.org/2000/svg" viewBox="0 0 423.18 154.6"><g id="Capa_2" data-name="Capa 2"><g id="Capa_2-2" data-name="Capa 2" fill="#ffffff"><path d="M37,93c-.11-9.27-1.07-18.36-2-27.57A147.32,147.32,0,0,0,30.24,40c-1.76-6.26-2.92-15.86-10.64-17.23-1.56-.28-3.59.15-4.34,1.76a34.94,34.94,0,0,0-1.83,6.94c-.79,3.43-1.41,6.88-1.95,10.36C10.16,50.13,9.57,58.49,9,66.92c-.08,1.16-.19,2.32-.31,3.49A12.77,12.77,0,0,0,.87,71.79c-2,.89-.26,3.71,1.68,2.87A12.54,12.54,0,0,1,8.3,73.58c-1.91,14.57-6.07,29.79-2.55,44A1.84,1.84,0,0,0,7.5,119h.26a1.91,1.91,0,0,0,1.66-2.5c.31-2.92-.15-5.86-.09-8.81.07-3.78.4-7.55.7-11.32C10.6,89,11.62,81.73,12.2,74.43,18.08,76.69,22.67,83,24.38,89c.67,2.39,1.34,5.06,1.88,7.84-.22,6.15-1.32,13.84.88,19.27l.2-.12c1.17,3.55,6.1,5.39,8.39,1.24,2-3.69,1.15-7.21,1.17-11.24C36.93,101.65,37,97.31,37,93ZM23.41,80.35A30.25,30.25,0,0,0,12.88,71.8l-.46-.2c.47-6.8.79-13.59,1.56-20.38.18-1.51,1.79-14.46,3.46-19.21.78,2.25,1.16,5,1.65,6.82.91,3.41,1.79,6.83,2.68,10.25C23.66,56.38,24.16,64,25,71.44c.46,4.14.78,8.29,1,12.44C25.18,82.68,24.32,81.51,23.41,80.35Z"/><path d="M120.32,94.35c-3,2.69-5.6,5.74-8.36,8.66-1,1-2.06,2.24-3.13,3.22-.06-2.64.29-6.29.33-7.28.13-3.81.64-7.56.88-11.36.25-4,.46-7.92.85-11.88s1-7.57-1.09-11.13c-1.44-2.52-4.53-1.94-5.8.08l-.07-.08a23.91,23.91,0,0,0-2.86,7.71c-1.86-6.43-7.24-12-13.5-7.23-4.8,3.64-7.33,10.22-8.75,15.87a88.6,88.6,0,0,0-2.93,16.36c-1,2.23-2.44,4.3-3.44,6.54-.18.39-.58,1.66-1.08,3-2.55-6.49-3.14-14-3.81-20.76-.26-2.58-.35-5.19-.37-7.8a140.54,140.54,0,0,1,3.45-18.94,221.91,221.91,0,0,0,5.82-26.67c1.22-8.09,2.59-17.15.76-25.23C75.63.37,69.83-3.24,65.35,3.83c-5.38,8.48-7.91,19-8.48,28.86-.56,9.67,0,19.34.06,29-10.3-.5-15.91,14-17.46,22.23-1.83,9.82-2.08,24.44,5.3,32.36,3.38,3.63,9.87,4,12.93-.15a27,27,0,0,0,3.81-8.7c2,5.65,5.11,10.77,9.81,10.42,4.09-.29,5-4.69,6-7.84l0-.08c1,3.07,2.54,5.88,5,7.28,5.85,3.3,9.93-3.73,11.21-8.37a155.48,155.48,0,0,1,5.45-16.46c-.52,5.67-.91,11.57.5,16.93,1.33,5.05,7,11.52,12,5.7,1.88-2.22,3.1-5.12,4.77-7.51,2.46-3.51,4.76-7.18,7.34-10.6C125.14,94.91,122,92.83,120.32,94.35ZM67.42,28.87c.47-5.36,2-10.46,2.87-15.75.1-.59.35-3.47.67-5.48.22.8.57,1.62.64,2,1.36,8.67-.19,18.15-1.84,26.7-.77,4-1.6,8-2.54,11.91A163.37,163.37,0,0,1,67.42,28.87ZM52.06,108.42c-.49-1.06-1-2.61-1.16-3-2.35-6.15-2.36-13.25-1.1-19.62a41.85,41.85,0,0,1,2.92-9.38,28.83,28.83,0,0,1,4.2-6.88c-.12,8.57-.36,17,1.41,25.49.06.31.13.66.21,1-.18,1.5-.38,3-.59,4.47a67.79,67.79,0,0,1-4,5.71C53.42,106.87,52.23,107.66,52.06,108.42Zm38.1-7.51a43.26,43.26,0,0,1-4,6.64,2.83,2.83,0,0,1-.2.28,3.49,3.49,0,0,0-.23-.48c-2.93-7.72-.44-17.87,1.75-25.55.61-2.17,2.93-10.54,5.94-10.8,0,0,2.31,1.19,2.5,1.35,1.7,1.51,1.77,6.07,2,8.2a1.63,1.63,0,0,0,.07.3c-.95,2.78-1.94,5.52-3.11,8.3C93.25,93.05,92,97.11,90.16,100.91Z"/><path d="M227.09,131.79c-8.49,18.38-30.62,13.32-44.77,5.19-5.65-3.24-10.61-7.5-15.44-11.83-1.71-1.54-3.31-3.13-5-4.65,2.17-9.35,3.23-19,4.19-28.48,1.54-15.18,2.56-30.44,3.72-45.66a179,179,0,0,1,2.25-17.79,21,21,0,0,0,6.42-3.3,14,14,0,0,0,2.18-20.1c-8.1-9.73-14,7.63-15.8,13.19-.73,2.3-1.36,4.61-1.91,6.93a31.46,31.46,0,0,1-10.53-1.44,1.32,1.32,0,0,0-1,2.4A30.07,30.07,0,0,0,162,29.48c-2.2,11-2.85,22.34-3.84,33.63-1.42,16.21-2.3,32.53-5.17,48.58-.15.85-.31,1.71-.47,2.59-6-2.41-13.16-2.66-18,2.19-6.84,6.8-5,17.92.93,24.54,3,3.34,7.48,5.59,12,4.5,5.61-1.34,8.44-6.75,10.39-11.72.65-1.67,1.25-3.35,1.79-5.06,2.87,3.55,5.54,7.21,9.06,10.31a78.26,78.26,0,0,0,15.62,10.22c16.4,8.62,48.42,9,50-15.51C234.58,130,228.71,128.29,227.09,131.79ZM173.24,22.56c.82-3.89,1.16-7.85,1.72-11.77.07-.55.12-3.3.71-3.46,1.2-.34,2.49,3,2.73,3.66,2.31,6.42-.57,10.3-5.32,12.37C173.14,23.09,173.18,22.83,173.24,22.56Zm-26.19,110c-1.16,2.21-1.75,3.64-4,2.2-1.84-1.16-3.24-3.84-3.83-5.85-1.17-3.9.56-9.29,5.07-9.79a12,12,0,0,1,6.91,1.67A51.55,51.55,0,0,1,147.05,132.55Z"/><path d="M357,113.46l0,.1h0A.93.93,0,0,0,357,113.46Z"/><path d="M419.41,105.84c-6,3-18.83,9.47-24.86,4.3-3.45-3-4.65-9-4.87-14.21,5.11-.41,10.32,1.21,15.46.77,5.5-.46,9.58-5,10.59-10.26,2-10.44-10.83-26.15-22-20.66-7,3.44-10.87,13.1-12.73,20.14a41.54,41.54,0,0,0-1.37,9.94,163.52,163.52,0,0,0-15.92,11.65c-1.88,1.55-3.63,3.21-5.4,4.87l-1.12,1-.2.14c.06.14.05.13,0,0h0c-.08-.22-.25-.71-.37-1.15-1.51-6-1.31-13.37-.53-20.29.48-4.25,1.3-8.44,2.18-12.62.72-3.43,1.41-7.18,3.7-10,5.45-6.64,11.28,3.49,14.52,7.36,1,1.2,3.12-.08,2.62-1.53-2.27-6.56-9.26-15.72-17.3-11.73-6.93,3.45-11.14,13.09-13.33,20a67.88,67.88,0,0,0-3,15.15c-.55.8-1.08,1.59-1.62,2.29a22.92,22.92,0,0,1-2.45,2.64c0-.3.06-.57.09-.78.4-3.92.57-7.95.8-11.89.47-8.12,1.25-16.21,1.28-24.36h-.1c-.16-2.84-3.73-5.21-6-2.54A15.69,15.69,0,0,0,335.08,68a11.05,11.05,0,0,0-3.27-4.69c-4.45-3.7-9.21,0-12,3.75-3.42,4.6-5.62,10.26-8,15.46a55.87,55.87,0,0,0-4,12.08l-.12.16a59.82,59.82,0,0,1-5.58,8.08,27.57,27.57,0,0,1-1.9,2,2.63,2.63,0,0,1-.46.29,32,32,0,0,1-1-5.59,151,151,0,0,1,0-21.59c.43-.91.86-1.8,1.3-2.68a194.44,194.44,0,0,0,11-27,137.49,137.49,0,0,0,4.29-16.11c.73-3.78,2.19-8.31,0-11.89-3.5-5.8-12.47-5.59-15.79.25-1.71,3-2,7.16-2.62,10.5-.84,4.34-1.68,8.69-2.32,13.06-1.89,12.92-3.75,26.12-4.24,39.27-3.37,6.44-7.43,12.64-13,17.35-3.3,2.8-8.69,6.38-13,4.54-5.83-2.5-5.42-9.91-3.32-17.1a31.51,31.51,0,0,0,9.34-1.3c8.23-2.5,12.12-7.35,11.2-16.19-1.06-10.1-12.92-15.85-20.07-7.2-4.09,4.94-7.33,11.8-9.36,18.61a29.15,29.15,0,0,1-4.58-1.71l-.34-.18a69.29,69.29,0,0,0,1.48-12.91c.07-5.73-2.18-15.71-9.9-10.59-5.44,3.61-6.6,11-4.37,16.85a19.5,19.5,0,0,0,8,9.28q-.6,3.18-1.36,6.31a45,45,0,0,1-5.95,14.29,17.94,17.94,0,0,1-2.76,3.35l-.15.13a46.34,46.34,0,0,1-2.62-6.44c-1.68-5.75-1.27-12-1.64-17.93-.32-5.1-.89-11.94-5.64-15a10.42,10.42,0,0,0-12.72,1.3c-1.79,1.67-3.49,3.43-5.22,5.16-.15-.47-.3-.94-.47-1.4a17.75,17.75,0,0,0-1.68-3.5c-2.73-5.17-7.27-8.43-13.74-4.2-8.22,5.37-14.57,17.18-16.16,26.64-1.74,10.33-1.05,23.74,9.72,29,12,5.83,21.25-4,23.76-15.07a64.2,64.2,0,0,0,.1-25.55,73,73,0,0,1,6.55-6.74c6-4.91,5.56,5.13,5.65,8.75.15,5.29-.18,10.59.4,15.86.48,4.32,1.64,8.71,4.75,11.88a24.49,24.49,0,0,0,4.82,3.76c8.65,3.59,12.57-7.82,14.26-14.21,1.27-4.79,2.67-9.53,3.83-14.32.9.41,1.81.79,2.72,1.12.68.25,1.37.47,2.06.67-.37,1.7-.67,3.37-.87,5-1.54,12.27,5.25,24.74,19.06,21.26,9.83-2.48,16.2-9.72,21.15-18.08.28,6.54,2.25,23.11,12.3,17.14a17.16,17.16,0,0,0,5.38-5.56c.79,3.9,2.45,7.2,6.46,8.73C321,117.58,326,112.82,328,107c1.28-3.63,2.31-7.34,3.34-11.06a68.19,68.19,0,0,0,.36,12.23c.39,3,.23,6.6,3.25,8.38,2.63,1.55,5.55.33,7.43-1.73a25.79,25.79,0,0,0,3.32-5c.11.94.24,1.88.4,2.81,1.29,7.37,7,14.79,15.15,10.5,6.67-3.5,11.88-11.33,16.09-17.32.84-1.2,1.74-2.5,2.74-3.76.85,5.27,3,10.21,7,13.71,11.2,9.71,25.73,1.69,35.24-6.08C424.61,107.84,421.75,104.66,419.41,105.84Zm-221.12-34c0,.08-.06.12-.16.14A.83.83,0,0,1,198.29,71.87Zm-1.95,3.86c.25-.69.94-1.7,1.3-2.55a26.44,26.44,0,0,1,1,3c.21.87.39,1.73.54,2.61-.36.3-.72.6-1.09.89-.92.7-2,1.25-2.9,2l-.15.13A29.5,29.5,0,0,1,196.34,75.73Zm-2.09,6.63c-.11.07-.08,0,0,0Zm4.59,13.73c-.91,5-2.27,12.89-6.81,15.38-3.55,2-8-1.29-9.22-4.7-2.17-5.9-.51-12.39.42-18.52s3-14.31,7.74-18.91a4.6,4.6,0,0,1,3.23-1.6c-1.86,1.87-2.82,5-3.47,7.24-1.24,4.15-3.16,14.28,4.59,12.41a13.58,13.58,0,0,0,4.42-2A54.11,54.11,0,0,1,198.84,96.09Zm32.87,11.16Zm6.72-42.72c.34-1.1,2.23-4.59,4.09-4.57.13,0,.16-.08.59.73,1.65,3.14.95,8.24.71,11.6-.13,1.78-.34,3.56-.58,5.34C239.36,74.44,236.8,69.8,238.43,64.53Zm32.86,4.76c1.32.51,2.61,3.43,3,4.63,1.67,4.6-2.41,7.1-6.25,8.27a24.43,24.43,0,0,1-5.43,1A86.12,86.12,0,0,1,267,73.86C267.89,72.18,269.05,68.42,271.29,69.29ZM303.45,35c.45-3.26.61-6.86,1.51-10,1.07-3.8,5.94-3.75,6.54.37s-1.95,10.28-3.06,14.21c-1.52,5.39-3.31,10.7-5.29,15.94-1,2.59-2.06,5.12-3.18,7.62.18-1.76.38-3.53.58-5.29C301.4,50.22,302.4,42.61,303.45,35Zm23.63,54a136.9,136.9,0,0,1-6.41,12.61c-.43.74-1.15,1.46-1.51,2.22-.77.47-.94,1-.53,1.74q.47,1.4,0,.12a12.65,12.65,0,0,1-.73-1.32c0-.58-.3-2.54-.3-2.53-.88-7.54,2.37-14.38,5.09-21.2a58.61,58.61,0,0,1,4.73-9.19c.74-1.19,1.45-2.92,2.81-2.12,2,1.16,1.54,6.83,1.82,8.95l0,.1C330.5,82,328.69,85.49,327.08,89ZM337,108.18c-.59.85-.86.12,0,0Zm19.33,5.92-.05,0h.08S356.34,114.09,356.33,114.1Zm-.06-.06h0l-.09,0Zm1,.2h0C357.3,114.64,357.28,114.52,357.22,114.24Zm.07,0s0,0,0,0h0C358.45,114.64,357.62,114.67,357.29,114.25Zm37-39.8c1.46-1.76,3.12-2.81,4.54-2.62,5,.65,12.06,6.63,12,12.28-.12,10.78-13.58,7.38-21.15,7.89C389.86,86.13,390.5,79,394.29,74.45Z"/></g></g></svg>