<?xml version="1.0" encoding="utf-8"?>
<!-- Generator: Adobe Illustrator 25.0.1, SVG Export Plug-In . SVG Version: 6.00 Build 0)  -->
<svg version="1.1" id="Capa_1" xmlns="http://www.w3.org/2000/svg" xmlns:xlink="http://www.w3.org/1999/xlink" x="0px" y="0px"
	 viewBox="0 0 568.1 154.3" style="enable-background:new 0 0 568.1 154.3;" xml:space="preserve">
<style type="text/css">
	.st0{fill:#FFFFFF;}
</style>
<g>
	<path class="st0" d="M64.3,72.7c0.5-0.3,0.9-0.7,1.4-1.1c7.5-6.1,9.6-15.5,4.6-24c-5.6-9.4-16.5-13.4-27.2-12.4
		c-0.6-0.3-1.4-0.3-2.1-0.2c-0.1,0-0.2,0-0.3,0.1c-0.5,0.1-0.9,0.3-1.2,0.6c-8.9,1.7-18.3,7-21.6,15.6c-0.6,1.6,1.6,2.7,2.7,1.6
		c4.8-4.9,9.7-8.9,16-10.9c-1.5,5-1.8,10.9-2.7,15.6c-1.3,7.6-2.6,15.1-4,22.7c-1.4,7.5-2.8,15.1-4.4,22.6
		c-1.4,6.7-4.2,14.1-4.3,20.9c-1,4,5.3,7.2,7.8,3c3.6-6.2,4.4-14.4,5.8-21.3c1.6-7.8,3.2-15.6,4.5-23.5c0.2-1,0.3-2.1,0.5-3.1
		c5.6,0.5,11.4-0.2,16.6-2.2c4.7,0.8,9.1,2.8,12.5,6.5c6.6,7.3,6.2,17.9,2.9,26.6c-4.1,10.5-12.4,19.4-23.2,23.1
		c-9.8,3.4-22.6,4.4-31.5-2c-4.4-3.1-7.2-7.6-6.1-13c0.6-2.7,3.9-13.2,8.2-11.4c2.9,1.2,6.7-2.4,3.7-4.8
		C10.6,91.4,0.1,113.9,2.3,124.2c3.2,15.2,21.1,21.1,34.7,20.1c15.9-1.1,30-8.6,38.4-22.3c6.8-11.2,9.5-26,2.6-37.8
		C74.6,78.4,69.8,74.8,64.3,72.7z M64.6,49.5c6.9,10.3-0.2,17.6-9.7,21.1c-4.5-0.4-9.2-0.1-13.7,0.7c0.6-4,1.3-8,1.9-12
		c0.9-5.7,2.8-12.5,2.4-18.6C52.9,40.6,60.4,43.1,64.6,49.5z"/>
	<path class="st0" d="M245.3,118.6C245.3,118.6,245.3,118.6,245.3,118.6C245.3,118.7,245.3,118.7,245.3,118.6
		C245.3,118.6,245.3,118.6,245.3,118.6C245.3,118.6,245.3,118.6,245.3,118.6z"/>
	<path class="st0" d="M299.6,110.9c-1.8,2-3.9,3.7-5.9,5.6c0,0,0-0.1,0-0.1c-0.4-2.5-0.4-5.1-0.3-7.6c0.1-5.6,0.6-11.2,1.2-16.8
		c0.5-4.1,1.9-8.9,1.4-13c-0.4-3.2-5.5-4.8-6.4-1.2c-0.9,1.5-1.6,3.1-2.1,4.9c-0.9-3.4-3-6.3-6.4-8.1c-7.6-3.8-15.2,5.2-18.5,11.1
		c-2.1,3.7-3.8,7.9-4.8,12.2c-0.4,0.2-0.9,0.5-1.3,0.9c-3.4,3.9-6.3,8.2-9.6,12.1c-0.4,0.4-0.7,0.9-1.1,1.3
		c2-12.8,6.8-26.5,10.8-39.1c2-6.2,3.5-12.5,5.4-18.6c1.3-4.1-4.4-6-6.6-2.8c-3.1,4.5-8.6,10.9-14.2,13.6
		c-0.6-5.3-2.6-12.7-7.7-13.5c-6.1-1-5.5,7.8-5,11.3c0.6,4.1,2.4,8.2,6.7,9.3c0.1,0,0.1,0,0.2,0c-0.2,1.6-0.6,3.2-1,4.8
		c-1.7,6.4-4,12.7-6.1,19c-1.1,3.4-2.4,6.9-4,10.2c-0.7,1.3-1.4,2.6-2.1,3.8c-0.4,0.6-0.8,1.2-1.2,1.8c0-0.4,0-0.7,0-1.1
		c0.1-2.7,0.7-5.4,1-8.1c1.1-8.3,1.9-16.7,2.9-25c0.4-3.6-5.5-5.2-6.9-1.9c-0.1,0.3-0.3,0.5-0.4,0.8c-0.8-0.9-1.8-1.7-3.1-2.3
		c-6.2-3-12.1,0.3-15.3,5.8c-2.1,3.5-3.8,7.6-5.1,11.9c-0.8-0.2-1.7-0.3-2.5-0.4c0-0.2,0-0.4,0.1-0.6c0.6-5.2,2.7-12.6-1.7-16.9
		c-3.8-3.6-8.6-0.8-11.8,2.1c-3.5,3.1-6.5,7.1-8.9,11.3c0.1-1.5,0.3-3.1,0.4-4.6c3-6.4,5.8-12.9,8.3-19.6c4.8-12.4,9.1-25.6,8.8-39
		c-0.1-5.9-1.3-11.5-3.5-17c-0.8-2-1.3-4-3.7-4.4c-2.3-0.4-4.3,1-5.6,2.8c-2,2.8-2.3,6.8-2.9,10.1c-0.9,4.8-1.9,9.6-2.7,14.4
		c-1.6,9-3,18.1-4.2,27.2c-1.9,14-3.5,28-4.8,42c-2.5,3.2-5.9,5.8-8.8,8.8c-1,1-1.9,2-2.9,3c1.9-16.4,5.1-32.5,10-48.4
		c1.2-3.8-4.2-5.8-6.2-2.6c-1,1.6-4.6,7.1-8.1,10.1c0.6-2.1,1-4.2,0.7-6.5c-0.6-4.2-4.4-7.8-8.7-5.8c-5.8,2.6-6,11.9-3.1,16.6
		c1.1,1.7,2.3,2.9,3.5,3.6c-2,5.8-4,11.7-6.2,17.5c-2,5.4-3.7,11.6-6.8,16.6c0.3-3.6,0.6-7.3,0.9-10.9c0.7-8.3,1.4-16.6,2.4-24.9
		c0.3-2.5-3.1-3.5-4.7-2c-2.1,2-3.7,4.4-5.1,6.9c-0.5-5.1-2.8-9.6-8.4-9.7c-11.8,0-16.8,19.9-18.6,28.7c-1.4,6.9-4.1,30.8,9.3,27.5
		c7.7-1.9,11-13.9,13.4-20.3c1.2-3.2,2.4-6.5,3.5-9.7c-0.4,2.3-0.8,4.6-1.1,6.9c-0.8,5.7-4,19.5,5.6,19.5c6.4,0,9-6.4,10.6-11.5
		c2.8-8.7,5.2-17.6,7.8-26.3c0.8-2.6,1.6-5.2,2.3-7.8c1.8-0.4,3.7-1.4,5.4-2.7c-4.8,14.9-9.2,30.1-7.9,45.7c0.3,3.2,4.6,6,7.1,2.9
		c3.2-4,6.3-8.1,9.2-12.3c1.7-2.4,2.9-5.1,4.2-7.7c-0.4,5-0.8,10-1.1,14.9c-0.3,3.8,3.6,5.2,6.5,4.2c2.8,4,8.4,7.1,12.8,5.1
		c10.6-4.8,12.8-19.4,14-31c0.5,0,1.1,0.1,1.6,0.2c-1.7,8.6-1.4,17.6,1.9,25.1c1,2.3,4.7,3.1,6.7,1.8c6.5-4.5,8.8-13.3,11.9-20.3
		c0.2-0.4,0.3-0.8,0.5-1.1c-0.2,1-0.3,2.1-0.5,3.1c-0.7,4.4-1.3,10.2,2,13.9c10.9,11.8,20-23,21.6-28.7c1.8-6.6,4-13.2,4.7-20
		c2.6-0.7,5.2-2.1,7.6-3.9c-3.4,9-6.6,18.4-9.1,27.6c-1.4,5.1-10.5,35.2,4.7,30.1c3.3-1.1,5.7-4.3,7.7-7c1.7-2.3,3.4-4.6,5-7.1
		c0,0.3,0.1,0.5,0.1,0.8c1.4,8.5,9.1,18,18.2,11.5c4.4-3.2,6.6-9.2,8.3-14.6c0,1.6,0,3.2,0,4.7c0.2,4.9,1.2,11.9,6.9,13.3
		c7.8,1.9,11.8-7.4,14.1-12.9C306.1,111.7,302.3,107.9,299.6,110.9z M96.1,118.8c-0.1-0.1,0-0.1,0.3-0.1
		C96,118.9,96.1,118.7,96.1,118.8z M101.3,112.5c-0.9,1.6-2.2,3.4-3.4,4.7c-0.2-0.7-0.3-1.5-0.4-2.2c-0.9-9.7,2.3-20.3,6.6-28.8
		c1.1-2.2,3.7-10.4,6.4-6c1.4,2.4,1.7,6.3,1.7,9.6c-0.2,0.3-0.3,0.7-0.5,1C108.5,98.2,105.3,105.6,101.3,112.5z M136.1,63.2
		c1.3-1.5,2.6-0.9,3.2,1.1c0.8,2.4-0.8,5.6-1.7,7.9c-0.7-0.4-1.3-1.1-1.8-2.3C135,68,134.6,64.9,136.1,63.2z M180.1,83.6
		c1.1-1.2,2.4-2,3.6-3.1c0.6-0.5,1.1-0.5,1.3-0.6c0.8,2-0.8,6.5-1.1,8c-0.3,1.8-0.6,3.7-0.9,5.5c-5.6,2.2-10.7,6.4-14.4,10.7
		c1.1-4.2,2.4-8.4,4.8-12.1C175.3,89,177.5,86.1,180.1,83.6z M178.7,10.4c6.3,13.2,1.8,30.3-2.5,43.3c-1.5,4.6-3.3,9.1-5.2,13.5
		c0.1-1.3,0.3-2.6,0.4-3.9C172,58.6,176.2,18.8,178.7,10.4z M173.3,121.6c-6.5-2.4-3.3-9,0.8-13.7c1.9-2.1,4.6-4.6,7.5-6.5
		C180.5,107.9,179.1,117.5,173.3,121.6z M207.4,97.9c-2,4-3.8,9.2-6.4,13.5c-0.4-6.1,1.2-12.7,2.8-18c0.9-3,2.1-8.3,4.5-10.6
		c2.3-2.2,5.2-1,5.6,1.7C211.8,89,209.6,93.5,207.4,97.9z M234.6,65.6c-0.8-0.8-3-7.2-2-7.6c1.8-0.8,2.7,5.8,3,8.4
		C235.3,66.1,234.9,65.9,234.6,65.6z M245.3,118.7C245.3,118.8,245.3,119.1,245.3,118.7C245.2,118.6,245.2,118.6,245.3,118.7
		c0-0.1,0-0.1,0-0.1C245.4,118.7,245.3,118.7,245.3,118.7z M291.8,118.1c-0.1,0-0.1,0-0.1,0C291.7,118.1,291.8,118,291.8,118.1
		C291.8,118.1,291.8,118.1,291.8,118.1z M272.5,113.1c-0.7,1.2-2.8,3.7-3.1,3.6c-0.9-0.2-1.7-2.3-2-3c-1.2-3.1-1.1-6.8-0.7-10
		c0.9-7.1,3.7-14.8,8.1-20.4c2.1-2.7,3.8-4.2,6.6-1.3c1.7,1.8,2.8,4.9,3.1,7.9c-1.1,2.4-2.3,4.7-3.6,7
		C278.1,102.2,275.5,107.9,272.5,113.1z M291.6,118.2c0,0,0.1,0,0.1,0C291.5,118.4,291.5,118.3,291.6,118.2z M294.5,119.1
		C294.6,119.2,294.6,119.1,294.5,119.1L294.5,119.1z"/>
</g>
<g>
	<path class="st0" d="M393.3,136.6c-4.2,1.6-8.1,3.5-12.7,3.4c-4.8-0.1-9.5-1.7-13.6-4.1c-3.1-1.8-5.8-4-8.2-6.5
		c4.7-8.5,7.1-18.7,8.6-27.5c3.6-21.1,3.4-42.5,2.7-63.8c-0.2-5.1-0.5-10.3-0.9-15.4c-0.2-2.3-0.5-4.5-0.9-6.8
		c-0.4-2.1-1.4-3.7-1.7-5.8c-0.2-1.5-2.7-1.5-3,0c-0.7,3.5-2,6.4-2.3,10c-0.3,4.1-0.3,8.3-0.4,12.5c-0.1,9.7,0.1,19.4-0.1,29
		c-0.3,18.9-1,38.8-7.8,56.6c-0.4,1.1-0.9,2.2-1.4,3.2c-1.4-1.3-2.9-2.5-4.7-3.3c-6.4-2.8-12.4,1.6-14.1,7.9
		c-1.6,6,0.1,13.7,5.1,17.7c1.1,0.9,2.8,1.7,4.3,1.1c5.1-2,9.2-5.4,12.5-9.5c1.1,1.1,2.2,2.1,3.4,3.1c10.1,8.1,27.5,14.2,38.4,4
		C399.1,140.2,396.6,135.4,393.3,136.6z M341.5,135.1c-2.1-3-2.9-8.4,0.1-10.4c2.3-1.5,4.8,0.6,6.7,2.9
		C346.4,130.4,344.1,132.9,341.5,135.1z"/>
	<path class="st0" d="M391.1,61.9c0.1,0.4,0.3,0.7,0.4,1.1c0.3,0.5,0.7,0.9,1.1,1.3c0.3,0.3,0.6,0.5,1,0.6c0.5,0.3,1.1,0.4,1.7,0.4
		c0.4-0.1,0.8-0.1,1.2-0.2c0.4-0.1,0.7-0.3,1.1-0.4c0.5-0.3,0.9-0.7,1.3-1.1c0.4-0.4,0.7-0.9,0.8-1.5c0.1-0.2,0.2-0.5,0.3-0.7
		c0.2-0.8,0.2-1.7,0-2.5c-0.2-0.8-0.6-1.5-1.2-2.1c-0.9-0.9-2.1-1.4-3.4-1.4c-0.7,0-1.3,0.1-1.8,0.4c-0.6,0.2-1.1,0.5-1.5,1
		c-0.6,0.6-1,1.3-1.2,2.1c-0.2,0.8-0.2,1.7,0,2.5C390.9,61.4,391,61.6,391.1,61.9z"/>
	<path class="st0" d="M497.4,129.2c-2.8,0.5-4.8,3.7-5.7,6.4c-0.1-0.1-0.2-0.2-0.3-0.2c-0.7-1.3-1.8-2.5-2.6-3.7
		c-1.7-2.7-2.9-5.6-4.1-8.5c-2.4-6.1-4.5-12.3-6.5-18.5c-2.1-6.4-4.1-12.9-5.9-19.4c-1-3.4-1.9-6.8-2.9-10.2
		c-0.5-1.5-0.8-3.2-1.5-4.7c1.9-2.9,3.9-5.7,6.3-8.2c1.6-1.8,3.4-3.5,5.4-5.1c1.5-1.2,4-3.9,5.8-4.3c2-0.4,6-6.4,2.8-7.5
		c-5.1-1.7-10.8,3.5-14.2,6.7c-5,4.5-9,9.8-12.7,15.4c-0.9,1.4-1.9,2.9-2.9,4.5c0-0.6,0.1-1.3,0.1-1.9c0.6-8.6,1.5-17.2,2.6-25.7
		c1-7.6,3.2-16,2.1-23.6c-0.7-4.8-6.3,1.3-6.9,2.8c-3.5,7.6-4.2,16.9-5.3,25.1c-1.2,8.7-2,17.5-2.7,26.2c-0.7,8.7-1.1,17.3-1.2,26
		c-1.3,0.4-3.8,0.8-3.9,0.8c-0.6-2.4-1.8-4.8-3.5-7.1c-3.6-4.8-9-8.3-15-8.8c-0.1,0-0.1,0-0.2,0c0.2-0.2,0.4-0.5,0.6-0.7
		c2.9-3.6,3.6-9.1-0.8-11.8c-8.1-5-17,5.5-15.9,13.3c0.3,2.1,1.1,3.8,2.3,5c-3.7,3.9-7.2,8-10.6,12.1c-3.7,4.4-7.3,10-11.8,13.8
		c0.1-1.9,0.2-4.1,0.5-5.7c0.8-4.3,1.9-8.5,3.1-12.7c1.8-6.2,3.8-12.4,5.6-18.6c1.4-5.2-6.5-7.3-8.1-2.2c-0.6,1.5-1.4,3.4-2.2,5.5
		c-3.7,7.8-9.2,14.4-12.7,22.3c-0.8,1.8,1.2,3.4,2.7,2.1c1-0.9,2-1.8,3-2.8c-1,4-1.8,8.1-2.1,12.2c-0.3,5.8,2.3,13.2,9.6,11.3
		c4.8-1.2,7.6-5.4,10.3-9.2c4.2-5.9,7.9-12,12-17.9c1.7-2.5,3.5-4.9,5.5-7.2c1.4,0.4,2.8,0.5,4.4,0.5c6.2-0.1,12,2.4,13.9,8.5
		c-5.5,1.4-10.9,3.3-15.7,6.4c-4.9,3.1-9.9,7.6-10.7,13.6c-0.6,5.1,2.4,9.5,7.4,10.8c6.2,1.6,13.1-1.8,17.6-5.9
		c5.8-5.3,10.4-12.3,11.2-19.6c0,0,0.1,0,0.1,0c1.1-1.4,2.3-2.1,3.2-2.6c-0.1,6.9,0,13.9,0.2,20.8c0.1,3.1,2.6,4.4,5.3,3.1
		c2.9-1.5,5.2-5.6,5.1-8.8c-0.3-9.6-0.4-19.2-0.1-28.8c0.5-2,1.1-4,1.9-5.9c0.2-0.5,0.5-1,0.7-1.6c1.1,5.1,2.9,10.1,4.2,14.6
		c2.8,9.6,5.8,19.2,9.2,28.6c2.3,6.3,5.7,17.7,12.3,20.9c8.5,4.1,14.3-8.6,15.4-14.7C501.5,131.5,500.5,128.6,497.4,129.2z
		 M421.5,80.6c-0.8,1.9-3.1,3.6-5,5.1c-0.1-0.1-0.2-0.2-0.3-0.3c-1.3-1.4-0.2-4.6,0.7-5.8C418.2,77.7,423.6,75.9,421.5,80.6z
		 M424.2,122.3c-2,1.4-4.9,2.4-6.3,2.4c-0.6,0-0.8-0.2-1.1-0.2c0,0,0-0.1,0-0.2c0-0.1,0.2-0.9,0.3-1.1c-0.1,0.2,1.1-1.8,1.5-2.4
		c3.5-4.2,8.8-7.1,14.5-9.2C431.3,116,427.5,120,424.2,122.3z"/>
	<path class="st0" d="M557.5,68.7c-5.4,7.7-9,16.9-12.9,25.4c-1.3,2.9-2.7,5.8-4,8.7c-0.3-2.6-0.7-5.2-1-7.9
		c-1-7.5-1.5-15.2-4.1-22.4c-1.8-5-7.3,2.3-7.2,5c0,0.4,0,0.8-0.1,1.2c-0.6,4.8-5.7,11-9.1,13.9c0.2-5.3-0.3-10.9-3-15
		c-0.7-1-1.4-1.8-2.3-2.4c0.1-1.3-0.3-2.4-1.8-2.7c-7.1-1.8-13.1,4.2-16.6,9.7c-4.5,7.1-7,15.4-7.2,23.8c-0.2,6.5,1.1,14.6,6.5,18.9
		c5.4,4.3,12.1,1.5,16.1-3.3c5.2-6.1,7-14.7,7.8-22.5c0-0.2,0-0.4,0-0.5c3-2,5.5-4.8,7.6-7.7c0.7-0.9,1.3-1.9,1.9-2.9
		c0.4,12.1,2.6,24.5,3.9,36.4c0.8,7.5,8.3,1.5,9.8-2.5c3.2-8.6,5.9-17.2,9.4-25.7c3.4-8.4,8.1-16.5,10.8-25.1
		C563.1,67.7,560.1,65.1,557.5,68.7z M509.9,104.8c-0.5,2.7-1.2,10.1-4.6,11.1c-4.3,1.2-7-5.2-7.7-8.3c-0.9-4-0.7-11,1.3-16.9
		c0.1,1.7,0.5,3.3,1.2,4.9c2,4.5,6.1,6.3,10.3,6.1C510.2,102.8,510,103.8,509.9,104.8z M511,95.8c-3.2-0.1-6-1.9-6.8-5.9
		c-0.4-2.3-0.1-5.8,2.4-6.6c2.5-0.8,3.3,2.1,3.8,4.2C510.9,90.2,511.1,93,511,95.8z"/>
</g>
</svg>
