<svg viewBox="0 0 509.53 144.46" xmlns="http://www.w3.org/2000/svg"><g fill="#fff"><path d="m46.65 86.35c1.68-2.72 1.17-4.47.88-7.5s-.15-5.89-.14-8.8c0-1.26.44-8.45-2.82-7.38a4.89 4.89 0 0 0 -2.84 2.66c-3.3 2.47-5.62 7.17-7.49 11.34.41-11.54.85-23.1.67-34.62 4.3-.22 8.63-.15 12.88-.1 17 .2 36.58 2.95 52.57-4.22 6.13-2.75 13.11-10.26 11.56-17.66a1.3 1.3 0 0 0 -2.16-.56c-2.84 2.5-4.29 5-7.05 6.28-3.16 1.5-6 3.16-9.41 4.07-8.79 2.34-18 2.37-27 2.22-17.3-.28-37.87-3.46-54 4.57-10.62 5.35-17.3 21-7.6 30.35 3.83 3.7 11-1.25 7.66-5.9-6.26-8.7 2.81-15.48 10.64-17.42.73-.19 1.47-.33 2.2-.48-1 14.4-1.15 28.91-1.6 43.33l-.69 22c-.22 7.07-1.72 15.33.07 22.2 1.21 4.62 7.62 4.24 9 0 2.09-6.4 1.11-14.49 1.31-21.21l.54-19c1.23-2.48 2.37-5 3.68-7.38.24-.44.5-.87.75-1.31a9.24 9.24 0 0 0 1.06 4.53c1.54 2.88 5.68 2.64 7.33-.01z"/><path d="m281.92 131.26a18.22 18.22 0 0 0 -3-5.43c2.85-8.55 2.74-18.93-3.19-26.1a19.17 19.17 0 0 0 -6.81-5.15 27.69 27.69 0 0 0 -5.19-1.21c4.13-6.28 6.24-14.1 4.4-20.79a3.65 3.65 0 0 0 -3.48-2.65c-9.85.91-14.29 11.87-12.93 20.73a12.21 12.21 0 0 0 2.28 5.69c-6 9.83-10.85 20.8-19.24 28.93a21.19 21.19 0 0 1 -7 4.82 5.33 5.33 0 0 1 -4 .16c-3.05-1.72-4.86-6.53-5.47-11a38.36 38.36 0 0 1 -.16-8.44c.44-.41.63.27 2.16.81a12.94 12.94 0 0 0 8.16-.07c5-1.65 8.62-6.07 10.67-10.73 3.78-8.59 2.66-27.71-11.42-24-11.54 3-17 19.49-18.74 30-.27 1.56-.48 3.17-.61 4.82-2.53 4-5.12 8.21-8.44 11.55-3.9 3.92-12.49 7.57-17.11 2.61-2.91-3.12-1.7-7.77-.8-11.44 1.74-7.07 3.61-14.19 7-20.67 1.36-2.61 5.71-12.34 9.54-8 2.46 2.77 1.23 10.16.42 13.38a.8.8 0 0 0 1.33.78c7-5.64 8.06-22.38-3.32-23.72-7.69-.91-12.54 7.06-15.89 13-4.12 7.23-6.84 15.34-8.9 23.37a27.65 27.65 0 0 0 -.76 10c-2.65 3.15-5.39 7-8.82 9.32-1.44-3.28.25-9 .8-11.82a210.53 210.53 0 0 1 5.2-21.19c1.38-4.52 4.17-9.76 2.94-14.62-1.19-4.7-5.51-6.71-9.86-5.09a30 30 0 0 0 -11.51 7.83c.2-1.48.43-3 .62-4.43.3-2.23-2.24-4.54-4.37-4.37-4.65.36-6.65 3.34-8.95 7.11-2.79 4.57-5.21 9.37-7.73 14.09-3 5.58-5.81 11.31-9 16.8.47-10.78 4.71-21.7 5.71-32.33.44-4.6-6.64-6.32-8.67-2.34-1.41 2.76-2.9 5.45-4.42 8.11.54-6.85-3.26-14.81-10.32-14.86-7.94-.06-13.52 9.25-16.58 15.37a79.85 79.85 0 0 0 -7.7 23.24 2.63 2.63 0 0 0 -1.3.47c-3.71 2.68-6.8 5.89-10.23 8.83 0-.42.06-.84.1-1.25a75.71 75.71 0 0 1 1.82-10c2-8.56 4.77-16.88 7.56-25.2 1.46-4.34 2.83-9.09 4.67-13.34a23.48 23.48 0 0 0 2.62-5.49c1.54-4.67-5.27-7.26-7.74-3.27-.64 1-1.64 2.93-2.84 5.44a21.05 21.05 0 0 1 -6.1 5.65 25.07 25.07 0 0 0 1.27-8c0-2.88-1.1-6-3.66-7.58-4.65-2.92-9.14 1.51-11 5.59-2.85 6.32-1.93 15.2 4.27 18.1-1.72 3.22-3.64 6.32-5.42 9.25-3.37 5.57-8.07 10.9-10.31 17-.19.51.42.81.82.63 6.65-3 11.49-12.12 15.26-18 1.56-2.43 3.26-5.13 4.81-8a16.9 16.9 0 0 0 4-.61c-8.46 21.28-17.2 51.45-2.49 51.35 5.68 0 10.5-5 13.85-10.23 1.49 6.76 6.19 12.29 14.62 9.29 8.1-2.89 12.4-13.22 16.34-20.09.5-.85 1-1.71 1.47-2.56-.89 6.71-.82 13.43 1.38 20.12 1.49 4.52 6.72 4.68 9.37 1.22 5.36-7 9.34-14.69 13-22.66 1-2.13 1.91-4.29 2.86-6.43-1.59 8.38-3.09 16.78-4.57 25.18-1.13 6.43 8.72 9.19 9.86 2.72 1.69-9.64 3.33-19.28 4.86-28.95.11-.22.22-.45.34-.67 3.27-6.22 7.75-11.65 14.22-14.06-.85 4.62-5.55 19.13-6.14 21.26-2 7.19-4.81 15.27-3.73 22.84.82 5.79 5.6 13.14 12.21 10 4.43-2.13 7.63-6 10.2-10.21a16.17 16.17 0 0 0 11.46 6.24c10.1 1.22 17.66-4.19 23.13-11.6a26 26 0 0 0 2.77 6.42c4.78 7.82 13.77 9.92 21.67 5.41 5.39-3.08 9.5-8.12 13-13.1a90.66 90.66 0 0 0 12.45-24.61c.29.13.57.26.88.37 5 1.86 8.78 4 10.23 9.51a20.86 20.86 0 0 1 .1 9.27c-5.75-2.61-12.51-2.75-17.75 1.2-8.09 6.11-7.21 19.77 3.06 23.08 8.34 2.7 15.12-3.41 19.31-10.3.39.33.76.65 1.12.94 2.29 1.81 6.65.17 5.48-3.24zm-222.49-63.77c2.17-6.43 4.3-1.43 3.75 2.21a32.66 32.66 0 0 1 -1.77 6.59c-3-.9-2.76-6.49-1.98-8.8zm5 57.14c-.08 0 0 0 0 0zm2.94 1.48h.07s-.16.72-.1 0zm25.43-4.11c-.73.89-2.11 2.5-3.41 2.6-.91.08-.09.17-.58-.34a13.53 13.53 0 0 1 -.45-2.71 35.3 35.3 0 0 1 1.27-10.62c1.86-7.89 4.87-16.07 9.64-22.7 1-1.45 3.11-4.18 4.56-4.29 3.46-.25 4.42 8.29 4 11.34a1.78 1.78 0 0 0 1 1.87c-1.26 2-2.53 4.07-3.84 6.09-3.99 6.1-7.57 13.13-12.19 18.76zm127.74-22.84a41.42 41.42 0 0 1 4.52-10.23c1.27-1.91 4.56-5.78 6.88-3.8 1.36 1.16 1.55 3.92 1.57 5.54.09 6.54-4.61 16.21-12.3 13.3a14.66 14.66 0 0 0 -1.84-.57c.34-1.4.73-2.86 1.17-4.24zm41.16-20.41c-.11 3.48-1.53 6.75-3.17 10a13.73 13.73 0 0 1 3.17-10zm-.6 56.54c-4.89 1.45-6.42-4.78-3-7.56 3.11-2.55 6.6-1.77 9.86.1-1.58 3.17-3.89 6.57-6.86 7.46z"/><path d="m343.09 36c-4.52 7.12-9.42 13.45-12.81 21.27a133.17 133.17 0 0 0 -7 21.14c-.68-.52-1.39-1-2.12-1.51-3.56-2.33-6.65 3.23-3.29 5.63a29.77 29.77 0 0 1 3.74 3.19c-3.29 15.33-5.29 30.91-7.7 46.38-.31 2 2.52 2.91 3.12.86 4-13.7 6-27.83 9-41.76 8.06 12.57 8.64 30.21 15.36 43.31 2.45 4.77 9.4 2.22 9.6-2.6.66-16 1.36-32.08 1.37-48.13 0-15.64 0-31.6-3.17-47-.62-2.89-4.66-3.01-6.1-.78zm-7.92 25a91.27 91.27 0 0 1 7.25-14c-.12 12.58.32 25.17 0 37.74-.17 7.73-.43 15.45-.73 23.16-3.33-9.25-7-18.25-13.71-25.31a139.2 139.2 0 0 1 7.19-21.59z"/><path d="m503.58 120.9q-4.75 3.43-9.5 6.8a51.8 51.8 0 0 1 .33-7c.44-3.77 1.2-7.51 2-11.22 1.38-6.62 3.05-13.19 4-19.89.58-4.23-.51-10-5.65-10.8-4.72-.71-9.87 6.64-12.34 10a69.66 69.66 0 0 0 -4.62 7.21 73.77 73.77 0 0 0 1.31-14.26 3.62 3.62 0 0 0 -5.39-3.1c-5.77 3-9.18 10.34-12.39 15.61-5 8.18-8.86 16.68-15.35 23.85-2.19 2.42-4.11 4.84-7.5 4.65-5.47-.3-8.44-6.86-8.64-11.65a25.46 25.46 0 0 1 .08-3.1c7.06 1.43 16.25 2.53 20.53-2.05 4.57-4.89 6.9-13.54 5-20-2-6.6-8.2-9.13-14.66-7.62s-11.19 6.57-14.49 12a42.28 42.28 0 0 0 -6 17.6 70.59 70.59 0 0 1 -10.3 13.56 17.85 17.85 0 0 1 -3.49 2.69l-.46.21a.47.47 0 0 1 -.21-.06 6.41 6.41 0 0 1 -1.66-2.74 30.74 30.74 0 0 1 -1.51-6.35 87.43 87.43 0 0 1 -.76-11.9c5.35-13.75 9.91-27.88 14.1-42 4.61-15.51 9.76-32 10.55-48.27.17-3.54.32-9.2-2.62-11.81-3.24-2.91-8.14-.26-10.64 2.46-3.1 3.32-4.63 8.62-6 12.81a207.79 207.79 0 0 0 -5.56 21 334.13 334.13 0 0 0 -7.1 52.42c-.25 4.42-.39 8.86-.33 13.3-1.22 3-2.49 6-3.9 8.91-.75 1.56-1.59 3.06-2.47 4.55l-.1.18s-.05 0-.28.3c.83-1-.39.41-.86 1-1 1.17-1.82 2.44-2.84 3.58a15.23 15.23 0 0 1 -3.62 3.32c-1 .54-1.77.36-1 .65-.9-.35-.62-.38-1-1.21a21 21 0 0 1 -1.4-3.72c-2.16-7.37-2.15-15.37-2.1-23 0-4.13.25-8 .53-11.73 2.47-5.6 4.68-11.3 6.84-16.9 6.37-16.59 13.4-34.81 14-52.79.17-5.32-.5-12.51-5.94-15.18a3.24 3.24 0 0 0 -4.31 1.13c-9.38 14.86-13.59 32.18-16.2 49.37-1.88 12.4-3.62 25-4.42 37.52-.16 2.5-.25 5-.28 7.51a85.29 85.29 0 0 1 -4.96 11.46 1.15 1.15 0 0 0 2 1.15c1.06-1.38 2.07-2.81 3-4.26a113.21 113.21 0 0 0 1.18 11.49c1 6.22 3 15.45 10.29 17.12 3.57.82 6.94-1 9.6-3.22a31 31 0 0 0 4.45-4.84 20.55 20.55 0 0 0 1.59-2.59 5.75 5.75 0 0 0 .9-.73 29.9 29.9 0 0 0 2.48-3.9 25.43 25.43 0 0 0 2.9 8.76c7 11.85 18.45-.86 23-7.73a20.74 20.74 0 0 0 7.45 10c11.93 8.74 22.66-.7 27.93-11.36 3.23-6.53 6.43-13.12 9.52-19.71.62-1.33 1.25-2.65 1.91-4-.57 3.24-1 6.49-1.5 9.64-1.28 8.26-2.7 16.78-2.87 25.15h.16c.51 5.26 8.73 7.16 9.54 1.34.73-5.33 1.17-10.69 1.67-16 4.06-9.58 8.55-19.54 16-25.93-1.17 4.84-3.69 13.81-3.9 14.74-1.66 7.2-3.4 14.64-3.65 22.06-.17 5.2.86 12 6.87 13.42 7.77 1.81 14.83-6.9 18.38-12.49 2.1-3.19-2.06-7.76-5.32-5.41zm-114.28-111.77c.91 2.77.5 7.2.37 9-.54 7.77-2.56 15.49-4.68 23-2.41 8.49-5.18 16.9-8.2 25.21 1-13 2.29-26.1 5.64-38.8a97.82 97.82 0 0 1 6.87-18.41zm25.7 4.31c1.23-3.53 2.31-5.64 5.28-7.78l.12-.1a18 18 0 0 1 .49 3.89c-.34 13.16-4.52 26.58-8.11 39.14q-4.49 15.78-9.78 31.34c.8-9.55 2-19.07 3.58-28.52 2.04-12.72 4.16-25.76 8.42-37.97zm-9.16 110.88c-.1-.07-.13-.12 0 0zm36.3-38.88c8.75-3.45 7.56 8.09 5 12.81-2.18 4.1-5.45 3.91-9.89 3.93-2.12 0-4.24-.11-6.35-.08 1.84-7.04 5.7-14.47 11.26-16.66zm49.86 43.41c0-.12.12-.12.36-.07-.19.07-.36.12-.36.07z"/></g></svg>