<svg viewBox="0 0 443.18 190.79" xmlns="http://www.w3.org/2000/svg"><g fill="#fff"><path d="m173.2 111.47c-3.23 1.73-5.31 4.5-8.1 6.79-1.08.88-3.44 2.81-5 2.61a.66.66 0 0 0 -.2 0 6.73 6.73 0 0 1 -.38-2.15 84.5 84.5 0 0 1 -1-12.91 10.14 10.14 0 0 0 3.69 1.24 10.75 10.75 0 0 0 6.21-1.48c3.7-2.22 5.84-6.58 6.9-10.62 2-7.54 1.77-18.5-5.48-23.27-9.5-6.24-17.88 9.86-19.65 16.88a63.2 63.2 0 0 0 -1.65 10.06c-4.24 5-6 12.17-11 16.57-1.54 1.35-5.59 4.64-7.82 3.71-3.58-1.48-4.81-8.36-5-11.52-.33-5.87 1.45-11.68 3.66-17.05 1.57-3.81 2.87-9 6.06-11.86 4.79-4.23 5.34 5.61 5.66 9.55-.56 2.71 3.72 4.28 5.15 1.72.08-.14.15-.28.22-.42h.6a.12.12 0 0 0 0-.23h-.48c3.95-8.08.92-21.35-9.88-21.1-5.41.13-9.52 3.89-12.15 8.31a71.2 71.2 0 0 0 -8.31 21.7 35.39 35.39 0 0 0 -.56 5.71c-2.41 1.15-4 3.42-5.83 5.64-1.14 1.43-2.21 2.92-3.32 4.37a55.51 55.51 0 0 1 1.83-14.12c1.6-7 1.19-14.39 3-21.35 1.1-4.14-3.89-6.31-6.61-3.75-4.84-5.13-13.76-2.5-18.33 2.38-6.42 6.85-10.24 17-12.17 26a57.14 57.14 0 0 0 -1.11 7.15 3.2 3.2 0 0 0 -1.45.65 73.92 73.92 0 0 1 -7.92 6.09c.06-1.06.19-2.11.31-2.87a101 101 0 0 1 2.28-10.32c2-7.73 4.55-15.32 6.95-22.94 1.73-5.51 3.86-11.13 4.29-16.93.28-3.74-4.53-5.08-7-2.88-3.2 2.89-6.71 8.17-11.08 10.6 0-3.39-.8-6.6-3.74-9-3.66-3-8.83-3-11.71 1-3 4.23-1 9.43 2.68 12.51a11.62 11.62 0 0 0 6 2.53 70.58 70.58 0 0 1 -2 8.87c-2.41 8.34-6.16 16.25-10.19 23.91-.86 1.63-1.8 3.28-2.76 4.94-.12-4.12-.31-8.24-.7-12.34s-.44-9.07-2.33-12.84c-1.16-2.31-5-2.93-6.72-.87a6.25 6.25 0 0 1 -3.25 2.21 1.58 1.58 0 0 0 -1.78.15l-.52.37c-1.19.84-1.59 3 0 3.72a15.35 15.35 0 0 0 3.49 1.23 3.46 3.46 0 0 0 .45 2c.22.41-1.49 4.62-1.75 5.89-.84 4.15-2.42 8.71-5.9 11.42-4.76 3.7-6.91-.65-7.26-5.23a138.05 138.05 0 0 1 .79-23.7c1-10.09 2.68-20.39 6.15-29.95 1.14-3.15 6.48-15.7 11.76-12.68 2.24 1.28 2.74 8.26 2.93 10.65.27 3.31 1.06 11.88-1.59 14.34-1 .9.26 2.31 1.36 1.76 9.62-4.79 10.7-23.34 5.64-31.53-7.31-11.79-21.51-1.62-26.22 6.71-6.81 12.02-8.93 26.66-10.36 40.19a180 180 0 0 0 -1 18.42c0 6.2 0 13.07 4.21 18.06 6.11 7.26 16.16 5.56 21.63-1.51.39-.49.75-1 1.09-1.53.05 3.64.06 7.29 0 10.93-8.36 10.35-17.89 20.8-21 33.84-1.6 6.71-.51 13.32 4.1 18.6 3.67 4.21 9.19 8.31 14.77 5.19 8-4.49 9.19-17.64 10.24-25.64a269.39 269.39 0 0 0 2-37c2-3 3.8-6.1 5.59-9a128.66 128.66 0 0 0 9.85-19.5 83.74 83.74 0 0 0 5.44-20v-.26a22.34 22.34 0 0 0 2.53-.68 18 18 0 0 0 2.31-1c-2.4 6.77-4.46 13.79-6.38 20.56s-9.64 28.3 2.07 30.92c5.58 1.24 10.68-4.62 14.14-9.7a12.3 12.3 0 0 0 4.55 7.31c9.25 6.85 15.39-7.41 17.9-14 .06-.15.12-.29.17-.44a35.63 35.63 0 0 0 0 3.58c.16 3.69.65 9.66 3.79 12.11 6.66 5.23 13-3.62 17-11.6 2.06 7.87 6.72 14.58 15.3 13.89 8.19-.66 13.57-6 17.76-12.34.19 1.49.41 3 .65 4.45 1.14 6.85 6.33 11.28 13.51 9.24s11.69-9.45 14.34-15.83c1.09-2.5-2.31-4.38-4.36-3.29zm-151.58 67a19.9 19.9 0 0 1 -1.62 2.89c-4.22-2.82-9.08-6.27-8.52-13.2.63-7.76 5.66-15.06 9.86-21.34 1.78-2.67 3.64-5.33 5.42-8-.12 3.69-.27 7.37-.5 11-.58 9.4-1.1 19.78-4.64 28.63zm25.67-109.84q2.22-4 4.37-1.17c1.07 1.22 1 3.44.81 5.14a9 9 0 0 1 -1.47-.38 6.36 6.36 0 0 1 -3.71-3.59zm13.19 49.15a1.36 1.36 0 0 0 -.41.17c.24-.16.28-.22.41-.17zm2.28 1.73.1.07c.14.09-.29.54-.1-.07zm0-.11c.3-.72.13.6.03 0zm28.14-16.72c-2.09 4.58-4.5 9.08-8 12.73l-.24.22c-1.69-7.7 2.14-17.71 5.5-24.43 1.59-3.17 3.55-7.07 6.47-9.26 1.23-.93 4.36-2.28 6.51-1.6-.19.57-.37 1.15-.55 1.73-.86 1.94-1.9 3.81-2.86 5.7-2.52 4.88-4.56 9.93-6.83 14.91zm11.29 15.17c-.36.22-.51 0 0 0zm64.57-39.85c0 .23.81.6 1.05 1.28a20.15 20.15 0 0 1 1.19 3.72c.69 4.44-.46 10.46-3.65 13.83-1.94 2-4.18 1.26-6.53.24.42-4.9 1.37-9.94 3.76-14.17.74-1.23 2.48-4.08 4.18-4.9z"/><path d="m250.64 67.15a14.45 14.45 0 0 0 4.8-4.56c7.46-11.41 4.37-28.67 2.77-41.31-.74-5.87-1-11.88-4-17.14-3.13-5.43-9.31-6-10.8 1-1.21 5.71-.89 12.3-1.24 18.11-.44 7.2-.69 14.41-1 21.62q-.33 9-.48 18c-2 .4-4.22.63-6.49.89-3.95.45-7.93.65-11.91.71 0-.16 0-.32 0-.48.62-9.48 1.35-19 2.12-28.43.79-9.71 2.19-19.52 1.74-29.27-.18-4-6.14-5.13-7.23-1-2.39 9.21-3 18.85-4 28.3q-1.51 14.68-2.59 29.4l-.09 1.36c-4.4-.13-8.8-.35-13.18-.54-2.5-.1-4.68 3.18-3.06 5.35 12 16.08 11.12 35.31 14.6 54.11 1.05 5.66 9.89 4.22 9.88-1.34q0-25.23 1.35-50.41a119.1 119.1 0 0 0 14.17-.65c1.52-.19 3.07-.37 4.61-.6q-.11 8-.1 15.92a836.13 836.13 0 0 0 4.91 93.2c.77 6.9 10 6.22 10.21 0h.1c-4.37-37.3-5.41-74.76-5.09-112.24zm-39.46 15.3a71.87 71.87 0 0 0 -5.32-11.26l5.94.22c-.23 3.68-.43 7.36-.62 11.04zm39.82-28.14c-.07.24-.16.45-.24.68q.12-7.5.29-15c.11-4.62.26-9.24.37-13.86 1.25 9.39 2.18 19.28-.42 28.18z"/><path d="m434.38 112.28c-.59.86-3 3.79-4.41 3.32-1.07-.38-1.21-4.43-1.29-5.72a68.45 68.45 0 0 1 1.48-17.3c1.61-8.3 3.56-16.74 5.89-25a29.09 29.09 0 0 0 2.74-9c.65-4.67-5.57-6.65-7.2-2-.67 1.92-1.36 3.83-2 5.73-2.21 3.79-6 8.19-9.62 10.14.3-4.83.27-10.11-1.63-14.11-3.46-7.27-12.43-5.38-13.15 2.46-.59 6.49-.06 15.61 6.17 19.43.33.2.66.37 1 .53-.27 2.2-.6 4.4-1 6.58a94.49 94.49 0 0 1 -6.16 21.3c-2.06 4.72-5.25 10.61-10.22 12.85-2.5 1.12-6.22 1.29-8.43-.57-2.86-2.4-2.59-9-3.08-12.39a59.2 59.2 0 0 1 -.63-7c.81 0 1.62.06 2.46.1 4.41.19 7.61 1 11.38-1.88a14.35 14.35 0 0 0 5.48-10.34c.65-6.52-.42-17.34-8.36-18.91-7.69-1.53-14.13 5.77-17.24 11.86a34.71 34.71 0 0 0 -3.56 12l-1 .13c-.59.07-1.19.16-1.79.25a32.44 32.44 0 0 0 -1.89-9.93c-2.07-5.46-7.81-10.77-14.18-8.77-3.74 1.17-7.33 5.64-9.56 8.72a41.47 41.47 0 0 0 -2.41 3.72c-.15-2.48-.28-5-.45-7.43-.27-4-6.11-6.42-8.2-2.22a45.07 45.07 0 0 1 -7.97 11.17 37.08 37.08 0 0 0 -1.14-6.42c-2.79-10-12.4-13.7-20-5.92 0-1 0-2-.07-2.92-.16-4.15-6-6.17-8.12-2.2a53.55 53.55 0 0 1 -13.11 15.92c-.56-4.21-.7-8.52-3.07-12.22a11.37 11.37 0 0 0 -17-2.23c-3.24 3-4.37 7.23-3.95 11.47a42.87 42.87 0 0 0 -1.35 6.52 70.3 70.3 0 0 0 1.19 24.87c1.55 6.58 6 15.28 14.19 12.69 9.06-2.85 11.27-18.14 11.44-26a50.77 50.77 0 0 0 -.27-6 52.31 52.31 0 0 0 9.71-8.65c-.15 3.7-.18 7.4-.24 11-.14 9.1.1 18.19.57 27.27.9 17.54 2.52 35 3.72 52.55a5.65 5.65 0 0 0 -.2 2.59l.08.51a5 5 0 0 0 3.6 3.6l.43.08c3 .62 6.77-1.41 6.53-5-1.14-16.56-2.69-33.09-3.69-49.66 5.51 2.84 11.26.11 14.72-5.08 3.79-5.69 5.11-12.72 5.6-19.41.18-2.47.4-5 .54-7.51a87 87 0 0 0 6.63-5.77c-.69 25.5 1.09 51.21 1.44 76.68a5.06 5.06 0 0 0 -.32 1.23 6.29 6.29 0 0 0 1.91 5.61c3.18 3.23 9.06.83 9-3.73-.18-14.8-.32-29.67-.64-44.53a14.66 14.66 0 0 0 10.78 3.26c13.7-1.38 14.58-17.35 15.43-28 .07-.87.14-1.76.19-2.65.89-.12 1.78-.22 2.67-.29a107 107 0 0 0 1.4 12.93c.71 4.63 1 9.23 4.38 12.82a16.67 16.67 0 0 0 10.26 5c16.9 2.09 23.15-16.62 26.53-29.72a148.28 148.28 0 0 0 3.88-21.2 18.65 18.65 0 0 0 4.12-1.32 93.56 93.56 0 0 0 -4.83 25.68c-.2 6.76.21 15.5 7.09 19s14.12-1.66 17.07-7.72a4.76 4.76 0 0 0 -8.27-4.85zm-159.38-19.7a6.91 6.91 0 0 1 -2 0 7.39 7.39 0 0 1 -5.33-4.58 28.39 28.39 0 0 1 .86-3.29 45.77 45.77 0 0 1 2.69-5.58c3.85.81 3.86 9.11 3.78 13.45zm-4.55 27c.38 0 .38.73 0 0zm1.64-4.27c-.23.54-1.47 3.3-1.73 4.09a6.86 6.86 0 0 1 -.26-.64 41.83 41.83 0 0 1 -2-6.33 74.77 74.77 0 0 1 -1.39-13.81 13 13 0 0 0 8.21 2.33 41.92 41.92 0 0 1 -2.79 14.33zm40.93-31.94c-.08 0-.13 0-.12-.08s.1 0 .16.05zm.25.26a12.44 12.44 0 0 1 .67 1.28c1.61 4.19 1.53 9.09 1.36 13.55l-1.4.92a77.32 77.32 0 0 0 -10.22 7.22c0-1.57-.05-3.14-.06-4.71 0-1.19 0-2.38 0-3.57a45.11 45.11 0 0 1 4.49-9.11 20.65 20.65 0 0 1 5.2-5.61zm-5.75 39.91c-7-1.24-1-9.77 1.52-12a50 50 0 0 1 5.77-4.27 45.46 45.46 0 0 1 -1.54 8.64c-.72 2.55-2.27 8.21-5.71 7.6zm35.32-19a44 44 0 0 1 5.31-9.47c1.47-2 6.76-8.8 8.36-9.08.73-.13 1.67 1.1 2.27 2.72a24.33 24.33 0 0 1 1.26 8.17c-6.39 1.75-12.7 4.49-17.16 8.84.03-.4.02-.8 0-1.19zm11.16 18.4c-6.62 2.88-11.94-5.21-7.76-10.59 3.1-4 8.29-6.33 13.33-7.92-.14 1.24-.29 2.45-.43 3.6-.5 4.62-.14 12.76-5.14 14.91zm37.61-44.73c2.23-.9 2.59 1.57 3 3.42.75 3.83 1.5 9.56-2 12.28-2.06 1.61-6.06 1.22-9.43.73a29.34 29.34 0 0 1 5.06-12.58c.76-1.06 2.13-3.33 3.41-3.85zm20.82-6.9c-1.26-1.78-3.65-8.42-2.17-10.31 2.15-2.75 2.56 4.56 2.62 5.64.08 1.76.1 3.52.06 5.29-.13-.19-.3-.39-.47-.62z"/></g></svg>