<svg xmlns="http://www.w3.org/2000/svg" viewBox="0 0 535.45 172.55"><g id="Capa_2" data-name="Capa 2"><g id="Capa_11" data-name="Capa 11" fill="#ffffff"><path d="M63.61,134.15c-1.81,0-.52,0,0,0Z"/><path d="M103.79,143.55C98,147,97.72,132.71,97.42,130l-3.33-29.5c-1.16-10.34-2.16-20.72-3.53-31-1-7.87-1.8-16.28-4.85-23.69C84,41.6,80.18,35.5,74.8,37.11a15.74,15.74,0,0,0-6.39,4,36.54,36.54,0,0,0-7.07,11c-.13-.4-.25-.8-.38-1.21-1-3.24-1.72-7-3.46-9.9-6.23-10.53-16.52-4-22.23,3.32-.52.66-1,1.35-1.51,2a32.76,32.76,0,0,0-5.4-9.86,11.13,11.13,0,0,0-8-4.43c-4.65-.23-8.81,5.12-11.46,8.42C1.63,49.59-.3,62.74,0,74.05A89.19,89.19,0,0,0,2.17,90.82c.12.56.94.4,1-.13C3.79,78.05,3.21,64.41,8,52.46a29.49,29.49,0,0,1,5.08-8.57,13.5,13.5,0,0,1,3.72-3,10,10,0,0,0,2.11-1.25,7.12,7.12,0,0,1,1.58,1.83,22.75,22.75,0,0,1,1.87,3.45A68.07,68.07,0,0,1,26.49,61a128.26,128.26,0,0,0-5.82,25.53,116.19,116.19,0,0,0-.4,26.49c.65,6.86.27,15.76,5.42,21.05,4.21,4.33,12.12,3.94,13.69-2.6a56.48,56.48,0,0,0,1-9.89c.56-9.72.5-19.49.12-29.21A227,227,0,0,0,37.1,59.79c-.39-2.11-.82-4.28-1.33-6.44.59-1.1,1.2-2.18,1.87-3.2,1.52-2.34,8.59-11.85,12.07-8.78,1,.93.92,3.92,1.19,5.23.42,2,.93,3.92,1.39,5.88,1.12,4.78,2.21,9.57,3.35,14.35,0,.23.11.46.16.68a140.75,140.75,0,0,0-5.6,47.09c.32,6.06,1.67,13.16,6.71,17a11.56,11.56,0,0,0,3.63,1.94,13.65,13.65,0,0,0,1.9.4c.42.06.85.09,1.27.14.16,0,.07,0-.1,0h.23c4,.06,7.33-2.44,9-6.15,3.74-8.12,1.41-19.55.1-27.94a330.14,330.14,0,0,0-7.76-34.75q-.92-3.36-1.9-6.67a56.69,56.69,0,0,1,2.62-5.3c1.81-3.21,4.39-7.93,8-9.52a2.88,2.88,0,0,1,1.35-.47h.37c-.26.45,1.2,3,1.14,2.85,1.91,4.53,1.39,10.2,1.75,15,1,13.8,2.7,27.55,4.2,41.3L85,124.14c.67,6.1.39,13.14,2.31,19,3.08,9.46,14.29,17.77,22.18,7.83C112.66,147,108.76,140.59,103.79,143.55Zm-78.2-42.71a105.54,105.54,0,0,1,2.46-25.36c.83,9.88,1.29,19.78,1.31,29.69,0,5.23-.09,10.47-.38,15.69,0,.28,0,.56-.05.85-.76-2.51-1.7-5.13-1.91-6.09A80.46,80.46,0,0,1,25.59,100.84Zm37.69,18.21a30.42,30.42,0,0,1-.84,5c-.12.56-.32,1.2-.42,1.81-1.78-.29-3-1.28-4.34-3.51-2.45-4.08-3.39-9.27-3.62-14a111.43,111.43,0,0,1,3.62-32.81c2,8.73,3.72,17.54,4.82,26.41A89.84,89.84,0,0,1,63.28,119.05Z"/><path d="M275.72,131.27c-.11.29-.24.58-.36.87a96.66,96.66,0,0,1,.27-11.56c.61-10.94,2.31-22.19.11-33-.78-3.84-2.5-8.28-6.25-10.12-5.3-2.61-10.06,4.14-12.46,8.1a31,31,0,0,0-1.95,3.75c-.19-3.3-.4-6.6-.61-9.88A4.37,4.37,0,0,0,249,75.22c-2.95.81-3.93,2.93-5.07,5.47-1.48,3.32-3.56,6.42-5,9.84-3,7-5.48,14.3-8.42,21.36-.21-4.43-.21-9.11-.39-13.35-.24-5.68.67-14.29-3.57-18.79a4.24,4.24,0,0,0-6-.18c-1.91-3.68-5.39-6.48-9.87-5-5.9,1.93-8.12,10-9.44,15.28a113.92,113.92,0,0,0-3,23.78c0,1.27-.1,2.58-.12,3.92a6.24,6.24,0,0,0-4.9,3c-.28-1.23-1-2.64-1.15-3.83a81.48,81.48,0,0,1-.68-12.69c0-8.37,1.17-17.1-.86-25.3-1-4.19-7.71-4.36-8.65,0-1.78,8.32-4.11,16.56-6.36,24.76a65.41,65.41,0,0,1-5.14,12.43c-1-7.22-.56-14.6.33-22.07,1.39-11.58,3.15-23.22,3.85-34.86.47-3.89-6.28-4.84-6.9-.93-.49,3-1.09,6-1.73,9a31.25,31.25,0,0,1-3.43,6.43,36.09,36.09,0,0,1-2.36,3.16,48.57,48.57,0,0,0-.26-6.39c-.4-3.47-1.11-7.11-4-9.44-4.14-3.39-9.31-1.51-11.43,3.19-3.11,6.9-.09,22.75,9,23.35-2.14,11-6.52,21.82-10.61,32.19-1.48-4.7-1.33-10.89-1.45-14.35-.17-4.65-.19-9.29-.51-13.93-.25-3.72-.2-8-2-11.37-1.73-3.16-6.1-2-7,1l-.05,0c0,.1,0,.21,0,.31a4.16,4.16,0,0,0-.1.72s0,.09,0,.14c-.06.51-.11,1-.15,1.54a30.91,30.91,0,0,1-2.42,7.53A11.4,11.4,0,0,0,126.84,82c-5-6-11.45-2.63-15.41,2.6-9.6,12.68-13.61,32.26-4.43,46.14,1.82,2.74,6.21,3.95,8.65,1.11a79,79,0,0,0,12.73-21.65c.88-2.12,1.66-4.26,2.42-6.41q0,3.55.13,7.1c.44,9,1.87,21,12.2,23.81,2.54.68,5.85-.86,6.38-3.62,1.79-9.42,4.55-18.64,6.45-28.05,1.11-5.54,2.47-11.31,3.33-17.11a16.87,16.87,0,0,0,2.86-1.86c-.82,4-1.56,8-2.05,12-1.41,11.64-2.38,26.25,4.18,36.66,2.38,3.79,8.57,3.3,9.75-1.27,2.06-8,3.19-16.66,6.05-24.38a72.6,72.6,0,0,0,.88,12.08c1,5.79,3.33,11.8,9.7,13.06a10.11,10.11,0,0,0,8.92-2.26c.16.45.33.9.53,1.33,1.37,3,5.26,2.62,7.36.95,5.87-4.67,9.43-11.57,11.77-18.64a72.08,72.08,0,0,0,1.13,10.32c1.24,6.35,7.38,12.11,13.33,6.39,5.31-5.09,5.64-15,7.17-21.74a170.42,170.42,0,0,1,4.4-16.49l.09-.31c-.5,11.88-1,23.79-.9,35.65-.3,7.33,11.08,7.31,11.39,0s.24-14.59,0-21.92c.23-.82.46-1.65.71-2.48,1.79-5.88,4.08-12.6,9-16.5a33.4,33.4,0,0,1,.33,4.23,105.12,105.12,0,0,1-.26,12.55c-.53,7.51-1.29,15-1.54,22.51-.22,6.88-1,17.69,5.68,22.15,9.3,6.25,14.2-7.55,15.69-14S278.12,125.35,275.72,131.27Zm-162-12.74a31,31,0,0,1,.57-14.88c1.71-6.61,5.5-12,8.27-18.12,3.09-.35,4,7.76,4,9.83A.63.63,0,0,0,127,96c-1.33,3.16-2.77,6.27-4.35,9.32A61.75,61.75,0,0,1,113.71,118.53Zm40.23-37.94c-3.49-.69-5.1-14.59-2.4-15.16s3.2,6.17,3.24,7.42a59.47,59.47,0,0,1-.3,7.78A3.27,3.27,0,0,1,153.94,80.59Zm59.85,2.6.05-.06L214,83l.58-.25-.43.21C214.15,83.27,214,83.28,213.79,83.19Zm-.36,0,.19-.08.06,0C213.53,83.31,213.41,83.37,213.43,83.23Zm.25-.1.16-.07-.11.1Zm-.35-.24Zm-5.78,35.57c0-.93,0-1.86,0-2.78a116.13,116.13,0,0,1,1.72-18.43,56.27,56.27,0,0,1,4.25-13.77l.06-.14s0,0,.15-.09c.91.77,3.25,2.36,4.7,3.36-.93,6.4-3.23,12.71-5.32,18.84C211.64,109.8,210,114.46,207.55,118.46Zm18,3.76c-.12-.09,0-.17.22-.25C225.7,122.14,225.63,122.24,225.59,122.22ZM249.31,83.6c.41-.42.64.09,0,0Z"/><path d="M181.76,60.61a4.26,4.26,0,0,0,1.57,1.44,6.32,6.32,0,0,0,4.32.56,5.48,5.48,0,0,0,2.47-1.44l.18-.18a10.52,10.52,0,0,0,1-1.24,5.9,5.9,0,0,0,.6-4.39c-.19-.43-.37-.86-.55-1.3a4.1,4.1,0,0,0-1.4-1.52,2.71,2.71,0,0,0-1.2-.7,4.15,4.15,0,0,0-2.09-.47,5.31,5.31,0,0,0-2.93.81,2.53,2.53,0,0,1-.36.2,5.69,5.69,0,0,0-2,2c-.18.45-.37.89-.56,1.34a5.55,5.55,0,0,0,0,3A4.24,4.24,0,0,0,181.76,60.61Z"/><path d="M449.1,120.78h0l-.07.11Z"/><path d="M526.55,139c-.51,6.78-1.25,15-5.29,20.74-1.43,2-2.15,3-4.53,2.85a5.17,5.17,0,0,1-2.71-.84c-1.44-.87-2.93-3-3.93-5.23a49.92,49.92,0,0,1-3-11c-1.6-8.48-2.35-17.1-3.94-25.58-1.39-7.37-3.27-15.37-8.49-21a12.77,12.77,0,0,0-1.31-1.23,80.35,80.35,0,0,0,10.79-8.08c7.38-6.41,16-16.53,14.42-27.08-.62-4.09-3.54-9.12-7.74-10.5S500,53.82,496.41,56a35.67,35.67,0,0,0-8.23,7.16c1.23-3.1,2.42-6.21,3.53-9.34,5.49-15.4,12.75-36.51,4.78-52.29A3.23,3.23,0,0,0,492.13.41c-13.21,7.72-16.24,28-18.15,41.7a374.58,374.58,0,0,0-3.15,46.14c-.8,1.8-1.58,3.61-2.29,5.44-5.34,6.83-9.54,14.61-14.7,21.59.15-2.35.37-4.7.58-7,.77-8.71,2.57-17.61,2.24-26.35-.15-3.75-5.3-5.45-7.27-2-.56,1-1.14,2-1.71,2.94-2.37-4.42-6.73-7.89-11.55-8C427.52,74.71,422.68,82,420,89.17a2.64,2.64,0,0,0-3.71-1.56A65.27,65.27,0,0,0,408,92a43.92,43.92,0,0,0-.49-7.12c-.9-5.77-3.85-10.77-10.3-10.82a9.59,9.59,0,0,0-6.72,2.65C384,79.21,379.45,87.2,377,93.19a46,46,0,0,0-3.4,21.46,3.6,3.6,0,0,0-1.31.72c-2.18,1.89-4.13,4-6.13,6,0-1.33,0-2.66.1-4,.22-3.77.66-7.54,1.18-11.29,1.2-8.59,2.87-17.11,4.27-25.67.33-2,3.62-14.95-1.17-14.29-2.89.41-4.54,4.35-5.64,7.85a2.9,2.9,0,0,0-2.25.46c-.83.52-1.83,1.12-2.9,1.69-.55-4.68-2.76-8.34-8.68-6.7a2.05,2.05,0,0,0,0,3.93c2.17.55,3,2.36,2.95,4.78-2.39.22-4.36-.78-4.84-4.37-.07-.53-.8-.39-.95,0-1.89,5.08,1,8,5,9.06-1.72,6.26-5.81,13.68-7,16-4.5,9-10.26,23.59-20.64,26.85-5.58-4.37-5.26-15.46-5-22.2.53-13.36,3.42-26.65,7-39.48,2.73-9.68,5.64-20.19,11-28.8C343,28.37,352.06,19,357.54,29c2.45,4.5,2.83,10.08,1.94,15.05-1.32,7.29-5.75,11.57-10.62,16.68a1.21,1.21,0,0,0,1.17,2c18.24-3.31,23.79-32.43,11.44-44.49-7.28-7.11-17.46-3.9-24.12,2.27-7,6.51-10.92,15.07-14.25,23.86-7.74,20.47-13.88,43.92-13,66,.33,8.09,1.77,17.59,8.28,23.17,11.9,10.18,25.44-8.08,29.88-17.71,3.71-8,8-18.51,10.41-27.95A38.37,38.37,0,0,0,359.6,83a16,16,0,0,0,2.89-.82c-1.79,6.16-3.22,12.47-4.38,18.75-1.29,7-7.72,33,5.45,33.67,5.68.28,9.94-5.24,12.51-10.54.12.27.23.54.36.81,3.61,7.15,13.21,5.42,18.31,1,6.56-5.61,10.72-15.17,12.41-24.76,4.4-3,8.49-7,11.73-9.11l.17-.14c-2.88,9.78-8.48,42.15,10,35.43,7.33-2.67,9.68-10.74,12.45-17.28,1.16-2.74,2.23-5.85,3.41-9-.46,3.71-.83,7.41-1.19,11-.5,5-1.79,12.73,2,16.79,8.24,8.71,19.08-10.84,25-24.1,0,.54,0,1.08,0,1.63.05,8.71-.17,17.49.24,26.2.3,6.46,9.37,6.32,9.93,0,.62-6.85.17-13.85.11-20.72,0-3.32,0-6.63-.06-10a16.66,16.66,0,0,0,5.51-1,13.69,13.69,0,0,1,4.6,5.8c3.41,7.45,4,16.2,4.84,24.24,1.31,13.09,1.57,38.33,18.64,41.27,17.84,3.06,20.93-20.63,20.88-33.28C535.43,133.2,527,133.34,526.55,139ZM363.49,124l-.11.11C363,124,363.14,124,363.49,124Zm-.11.11-.14.13C363.37,124.13,362.87,123.93,363.38,124.12Zm3.17,1.45h0s0-.13-.05-.2C366.62,125.49,366.66,125.56,366.55,125.57Zm29.93-27.12c-3.63.29-5.36-4-5.82-7.13a18.14,18.14,0,0,1-.18-3.12c1.22-2,2.76-3.83,5-4.27a5.27,5.27,0,0,1,4.47.83A35.79,35.79,0,0,1,398.47,98,8.17,8.17,0,0,1,396.48,98.45Zm-11.37,20.83c-.55-.07-.31-.12,0,0Zm8.87-9.89c-1.56,3.12-3.43,7-6.38,9a3.82,3.82,0,0,1-2.2.91,20.35,20.35,0,0,1-1.3-5.48,36.49,36.49,0,0,1,2-16.43,12.68,12.68,0,0,0,4,5.79,9.84,9.84,0,0,0,5.69,2.24C395.24,106.8,394.62,108.14,394,109.39Zm31.39,8.28-.13,0S425.27,117.65,425.37,117.67Zm1.49.56c.17,0,.11,0,0,0ZM438.24,99c-3.13,5.72-6.08,12.74-10.77,17.4a5.67,5.67,0,0,1-.84.69,64.05,64.05,0,0,1-.43-7.45c.44-6.73,1.76-14.39,4.85-20.45.88-1.74,2.91-5.2,6.07-5,3.59.23,5.35,2.95,6.19,6C441.58,93.09,439.85,96,438.24,99Zm10.7,21.93s.05-.06.15-.09l.09-.14-.08.13.12,0C449.16,120.87,449,121,448.94,120.88Zm4.91,1.34c.38.37-.26.71,0,0Zm38.54-54.85a27.58,27.58,0,0,1,10.26-7.77,15.46,15.46,0,0,1,3.27-.93,13,13,0,0,0,2.35-.32,13.49,13.49,0,0,1,1.89,3.4c1.78,7-5.93,14.63-10.39,18.86a55.38,55.38,0,0,1-12.25,8.86A37.88,37.88,0,0,1,481,91.85c0-.72,0-1.43,0-2.15C483.36,81.63,486.86,73.7,492.39,67.37Zm0-59c1.74,5.92,1.13,12.61.18,18.52a152.88,152.88,0,0,1-7.74,27.78c-1.1,3-2.26,6-3.45,8.9.45-13.19,1.54-26.43,4.51-39.15C487.07,19.42,488.66,12.63,492.4,8.38Z"/></g></g></svg>