<svg enable-background="new 0 0 789.7 185.2" viewBox="0 0 789.7 185.2" xmlns="http://www.w3.org/2000/svg"><g fill="#fff"><path d="m542.3 82c0-.3 0-.5-.1-.8-.6-4.5-3.5-8.6-7.7-10.6-9.8-4.5-21.4 5-24.6 14.3-5.2 3.4-10.2 6.4-16 8.3.7-6.6 1.4-13.3 2.1-19.9 8.1-13.1 11.3-29.2 13.5-44.1.9-5.8 1.9-13.2-1.7-18.4-4.4-6.3-10.5-2.1-12.6 3.5-2.1 5.4-2.7 11.4-3.7 17.1-1.2 6.7-2.1 13.5-3 20.3-1.1 8.5-2.1 17-3.1 25.5-.1.1-.2.3-.2.4-1 2-1.2 4.8-1.7 6.9-1.1 4.7-2.3 9.3-3.8 13.9-2.5 7.7-6 14.7-10.6 21.2.1-1 .3-2 .4-2.4.2-2.5.4-5 .7-7.4.5-5.4 1.2-10.9 2-16.3.8-4.9 1.6-9.8 2.5-14.7s2.4-9.9 2.4-15c-.1-4.5-5.8-5.1-7.7-2 0 0 0 0-.1 0-1.3 2.4-2.2 5.1-2.9 7.8-1.5 2.1-3.5 3.8-5.6 4.6.4-2.3.7-4.6.6-6.8-.1-3.8-1.3-7.7-5.5-8.8-6.2-1.6-9.5 6.9-9.4 11.8.1 4.6 3 8.5 7 10.3-3.1 7.9-7.1 15.5-11.2 23-1.7 3.2-3.2 6.4-4.8 9.6-.1.3-.4.6-.6 1-.3-1-.7-2.1-.7-2.8-.5-6.1.5-12.3 1.3-18.3.7-5.1 2.3-10.5 1.7-15.7-.5-4.2-5.7-4.9-7.3-1-2.5 5.8-3.6 12.4-4.5 18.7-2.5 3.3-6 7.7-9.6 9.5 2-6.4 3.3-13.2 4.6-19.5 2.6-12.8 4.7-26.1 4.9-39.2.1-4.9.1-9.8-.2-14.8-.2-3.6-.2-8.2-1.6-11.6-1.7-4.4-7.3-8.4-11.2-3.8-2.1 2.5-3.1 6.9-4.1 10-6.3 19.3-8.8 41.8-7.3 62 .4 5.2 1 13.8 5.2 18.3-1.7 3.3-3.7 6.6-6.4 9.2-.7.7-1.9 1.4-2.2 1.5-1 .3-.5 0-.7 0-.4-.9-1.1-1.9-1.4-2.8-.5-1.5-.8-3-1.1-4.5-.7-3.6-1.1-7.3-1.6-10.9-.9-6.3-.7-14.2-4.6-19.6-.8-1-2.7-1.1-3.1.4-.2 1-.4 2.1-.6 3.2-2.4 9.7-7.2 19.2-12.9 27.4-1.5 2.1-2.9 4.2-5 5.7-.3.2-.5.4-.8.5-.3-.4-.7-.8-.2-.1-.4-.6-.8-1.2-1.1-1.8-1.2-2.2-2.2-6.2-2.9-9.6-4-19.9-3.4-41.4-2.3-61.6.3-6.3 0-15.4 1.3-20.4.6-2.3-2.2-3.9-4-2.3-4.5 4.2-5.3 14.3-6 20.5-1.4 11.7-1.8 23.6-1.6 35.4.2 11.4.7 23.1 3.5 34.2 1.6 6.4 5 15.8 13.3 15.7 4.8-.1 8.8-3.7 11.3-7.4 2.8-4 5-8.4 6.8-13 .3 5.5 1.2 11.3 3.9 15.9 5.9 9.9 17.6 3.9 22.3-3.7 1.8-2.9 3.2-6 4.4-9.3 3.6-.8 7.1-3.7 10-6.9-.7 5.5-.9 11.3.8 16.5 2.7 8.1 12 10.6 17.4 3.1 3-4.2 4.3-10.3 6-15.2 2.4-6.8 4.8-13.5 7-20.4.4-1.3.8-2.7 1.2-4 1.8 0 3.6-.5 5.2-1.2-1.2 6-2.1 12.1-2.9 18.2-.8 6.2-1.5 12.4-2 18.6-.4 4.8-.8 10 4.2 12.6 3.6 1.8 7.4-1.2 7.2-4.5 5-4.6 8.6-10.3 11.4-16.4-2.3 23.1-4.4 46.2-6.1 69.3-.4 5.1 5.9 6.2 8.8 3.3 7.2-3.1 12.8-12 15.8-18.1 4.7-9.5 6.4-19.8 8.4-30.1 2.3-12.1 1.5-27.9-8.4-35 3.2-1.2 6.4-2.7 9.3-4.5 1 3.3 3.2 6.1 6.4 7.8 4.7 2.6 11.9 1.6 15.6 5.7 2.9 3.2 2.1 8.4-.6 11.6-1.4 1.6-3.8 3.2-6 3.2-2.7.1-3.1-1.3-3.8-3.6-.1-.4-.3-.7-.5-1 .9-.7 1.7-1.6 2.6-2.3 1.7-1.4-.1-4.1-2.1-3.5-2.1.6-4.2 1.3-5.6 3-1.2 1.4-2.6 3.2-2.5 5.1 0 .1 0 .2.1.3-1 3.4.6 7 4 9.2 4.5 3 9.7 2.5 14.4.5 8.8-3.7 13.6-14.3 10.4-23.2-1.7-4.7-5.4-8.2-10-10-4.1-1.6-13.7-1.2-13.5-7.2.1-4.6 6.7-11.2 11.5-11.1 2.9 0 5.1 2.3 6 4.8.3.7.4 1.4.4 2.1-.5.5-1.1 1-1.6 1.6-.4.5-3.3 3.3-1.8 4.1s3.5-.2 5-.6c2.3-.6 4.3-1.7 6.2-3 2.5-1.8 1.1-6.4-2-5.5zm-174.4 34.2c.2.1.2.3.2.3 0-.1-.1-.2-.2-.3zm38.8-26.4c-1.9-18.1.1-37.2 3.7-55 .7-3.3 1.4-6.7 2.5-10 .4-1.2.9-2.3 1.4-3.4.3-.7.7-1.6 1.1-2.2 2-2.8 4.2-2.4 6.1.1 1.8 2.5 1.7 7.7 1.6 10.9 0 4-.4 7.9-.8 11.9-2.1 19.9-4.1 41.8-12.5 60.4-2.3-3.6-2.8-9.5-3.1-12.7zm30.6 26.4c.1 0 .1 0 0 0zm.1 0c.1.1.2.1.2.3s-.1-.1-.2-.3zm15.1-48c.2-2.7 2.7-8.4 4.4-3.6 1 2.8-.1 6.5-1.1 9.6-2.2-1-3.4-3.3-3.3-6zm49.7-54.7c3.6-.3 1.2 15.2 1 16.5-1.4 7.3-2.7 14.9-4.9 22.3.3-2.4.5-4.7.8-7.1.3-2.8 1.7-31.6 3.1-31.7zm-1.6 123c-1.4 8.4-3.4 16.9-6.9 24.7-1.7 3.8-3.9 7.4-6.6 10.7-.1.2-.3.3-.4.5 1.8-23.4 4-46.7 6.3-70 12.6 4.3 9.3 23.9 7.6 34.1z"/><path d="m570.6 97.7c.3-.8.2-1.7 0-2.6-.5-1.9-2.6-3.7-4.7-3.5-3.6.3-7.4.1-10.8 1.5-2.4 1-2.2 4.9 0 6 2.9 1.5 6.4 1.5 9.5 2 2.7.5 5-.7 6-3.4z"/><path d="m624.2 72.9c-.4-.1-.8-.3-1.2-.4 5.5-6.1 9.1-13.8 9.7-21.6 1.2-17.7-13.1-30.7-29.5-32.4-1.2-1.6-3.6-1.7-5-.2-1.8.1-3.6.3-5.5.7-10.4 2.1-20.8 8.6-23.5 19.1-.2.7.7 1.3 1.3.7 7-6.8 15.1-12.7 25.1-13.5-1.7 6.6-2.4 13.8-3.6 20.3-1.5 8.5-2.9 16.9-4.3 25.4-.4 2.6-.8 5.1-1.3 7.7-.4.4-.8.8-1.1 1.3s-.1 1.1.4 1.4c.1.1.2.1.3.1-2.1 12.4-4.1 24.9-6.1 37.3 0 0 0 .1-.1.1-.5 1.8-.9 3.4-.8 5.2.3 5.4 9.2 7.3 10.1 1.3 2.1-14 4.3-27.9 6.4-41.9 5.9.8 11.6-.4 16.8-3h.8c4 .1 8.5.9 11.2 4 3.6 4 3.3 9.9 2.7 14.9-1.7 13.1-8.2 25.9-17.5 35.3-8.1 8.1-20.7 16.3-32.6 11.8-5-1.9-9.6-5.8-11.2-11-1.8-5.9 1.7-11.6 5.6-15.8 2.8-3.1-.7-7.5-4.4-5.7-14.3 7.2-15.3 24.3-4.4 35.1 12 11.9 29.2 10.3 42.7 2 14.4-9 24.9-23.9 29.7-39.9 4-13 5.3-32.2-10.7-38.3zm-3.4-34c4 8.2 2.2 17.9-3.4 25-2.9 3.7-6.4 6.2-10.3 7.8-1.2.2-2.4.4-3.5.6-1.8.4-4.2.8-6.6 1.5.1-.4.1-.7.2-1.1 1.3-8.6 2.6-17.2 3.7-25.8.9-6.8 2.5-14 2.9-21 7.3 1.5 13.7 6 17 13z"/><path d="m668.3 79c.8-4.9-6.4-7.2-7.8-2.1-.7 2.3-3.3 4.7-4.7 6.7-1.3 1.8-2.6 3.7-3.8 5.6.5-3.4.9-6.9 1-10.3.1-4.4-6-4.7-7.4-1-5.2 14.2-6.2 30.7-7.7 45.7-.6 6.4 9.7 6.4 10.2 0 .5-7.5 1.3-15 2.2-22.4.1-.8.2-1.7.3-2.5 1.5-2.1 2.9-4.2 4.5-6.1.9-1.2 1.9-2.3 2.9-3.4-.1.3-.1.5-.2.8-.3 1.4-.3 1.2-.5 1.4-1.4 1.2-1.8 3.9-.7 5.4 4 5.4 9.5 1.1 10.6-3.9 1-4.4.5-10.1 1.1-13.9z"/><path d="m773.2 140.2c-1.9 3.3-6.6 11.4-11.3 12.3-2.9-7.1 0-15.4 1.1-22.7 1.3-8 1.4-16.6-1-24.4-1.4-4.4-3.8-8.9-7.4-12 8.3-4.2 15.8-10.5 21-17.1 5-6.2 13.7-20.8 3.5-26.7-6.1-3.5-13.1 2.3-17.3 6.2-6.9 6.4-12.5 14.2-17.4 22.2.1-.9.1-1.9.2-2.8 1.5-2.7 2.8-5.4 4.1-7.9 4.7-9.4 9-19.4 11.4-29.6 2-8.4 3.1-17.7.3-26.1-1.5-4.5-4.5-11.4-10-7.3-3.3 2.5-5 6.7-6.4 10.4-2.2 6.3-3.5 13-4.6 19.6-2.9 16.8-4 34-5.1 51-.1.8-.1 1.7-.2 2.5-.2.1-.4.3-.6.5-6.7 8.1-12 18-19.5 25.3-3 3-4.9 2.8-6.3-1.1-1.1-3.2-1.1-6.7-.8-10 .5-6.3 2.3-13 4.9-18.7.9-1.8 2.8-5.9 4.6-4.6 2.5 1.6 1.9 8.2 1.4 10.5-.2 1 .9 2.2 1.9 1.5 4.6-3.2 6.9-7.7 5.7-13.4-1.1-4.8-5.1-8.8-10.3-8.6-11.2.5-15.5 16.7-17.2 26-.7-.2-1.6-.1-2.4.5-.5.4-1.3 1-2.1 1.8.7-4 1.1-8 1-12.1-.1-4.4-.4-9.7-3.6-13.1-.5-.6-1.4-.6-2.1-.3-2 .9-3.7 2.2-5.1 3.8-3.6 1.6-6.2 4.8-8.4 8-5.3 7.9-8.4 18.2-9.4 27.5-.7 6.6 0 17.4 9.2 17.3 10.5-.1 13.5-12.7 15.8-20.8 2.2-.8 4.3-2.5 6.1-4.3-.4 8.8 1.2 19.5 10.3 21.8 6.9 1.7 12.2-4 15.1-9.3 3.6-6.6 7.5-12.9 11.2-19.4-.5 10-1 20-1.8 29.9-.4 5.5 9 6.8 9.8 1.3 1.4-9.9 1.4-20.2 1.8-30.2 1-.2 1.9-.4 2.9-.7 4.5 4 7.4 15.6 7.5 19 .5 10.5-3.4 20.4-3.3 30.8 0 4.4.9 9.7 3.8 13.3 2.7 3.4 7.7 3.5 11.5 2 8-3 11.3-11.7 13.3-19.2.9-3.6-4-5.7-5.8-2.6zm-82.8-48.8c-.8 3-1.7 6.1-2.9 9.1-2.2-1-3.3-6.4-3.6-8.3-.2-1.3-.4-2.7-.4-4 1-1.8 2.1-3.6 3.4-5.2 1-1.3 4.4-3.2 4.7-5 1.4 4-.4 10.8-1.2 13.4zm-14.5 26.7s-.1 0-.1.1c0-.1 0-.2 0-.4-.6-6.1 1.1-13.3 3.4-19.7.8 3.4 2.2 7.4 5.3 9.2-.3.5-.6 1-.9 1.5-2 3.1-5 7.6-7.7 9.3zm83.8-49.4c3.8-4.2 8.2-10 13.7-12.2.7-.3 1.7-.4 1.3-.4.4.1.4 0 .6.5 1.7 3.1-1.4 8.1-3.2 11.1-6.6 10.6-16.9 16.8-28.2 21.1.4-.5.8-1.1 1.1-1.6 4.7-6.4 9.5-12.6 14.7-18.5zm-8.5-55.2c.4-1.5.8-3.4 1.7-4.7.2-.3.7-.8.9-1.1 0 .1.1 0 .2 0 0 .2 0 .4.1.8.5 1.6 1.7 3 2.2 4.7.7 2.1 1 4.2 1.2 6.4.4 4.5-.1 9-.9 13.4-2.1 10.8-6.1 21.3-10.8 31.3-.2.4-.4.9-.6 1.3.3-4.9.6-9.8 1-14.7.8-12.5 1.6-25.3 5-37.4z"/><path d="m433.7 60.7c.7.4 1.6.6 2.4.6.2 0 .3 0 .5-.1.4-.1.9-.1 1.3-.2.7-.2 1.2-.4 1.7-.9.8-.6 1.6-1.5 1.8-2.6.1-.4.2-.8.4-1.1.3-.8.1-2.2-.4-2.9-.5-.8-1.3-1.6-2.3-1.7-.4-.1-.8-.1-1.2-.2s-.9-.1-1.3-.2c-.7 0-1.3.1-1.9.4-.4.1-.8.3-1.1.6-.5.3-1 .8-1.3 1.4-.1.1-.2.3-.3.4-.4.7-.7 1.5-.7 2.4 0 .8.2 1.6.7 2.4s1 1.3 1.7 1.7z"/><path d="m75.4 150.1c-5.5 5.5-19 13.1-22.8 2-5.3-15.1.2-31.5 1.4-46.8.9-11.7.1-28.1-11.1-35.2 4-2.3 7.9-5 11-8.2 6.4-6.7 10.2-16.2 9.7-25.5-.6-9.5-5.8-17.7-14.8-21.5-9.9-4.1-21.2.4-29.2 6.3-8.2 5.9-18.9 17.8-16.4 28.6.2.8 1.6 1.1 2 .3 4.8-11 10.9-20.2 21.8-26.2 9.9-5.4 23.3-5.3 27.8 6.7 3.4 9-.4 20.1-7.2 26.5-4.8 4.6-11.3 7.8-17.7 10-1.3.1-2.6.4-3.9.7-.4.1-.8.2-1.2.4.2-4 .4-8 .7-12 .5-6.9 2.1-15 .2-21.8-.6-2.2-3.8-2.6-5-.6-3.5 5.9-3.6 14.1-4.3 20.8-.6 5.9-1.1 11.9-1.6 17.8-1 1-1.6 2.4-1.6 4.1 0 .9.4 1.7 1 2.3-.6 7.7-1.1 15.4-1.8 23-.6 6.6-2.1 13.3-1.8 19.8.3 5.1 6.7 5.5 8.6 1.1 2.5-6 2.6-13.1 3.2-19.5.7-7.7 1.2-15.4 1.7-23.1.1-1 .1-1.9.2-2.9 1.3-.3 2.5-.5 3.6-.9 1-.3 2.1-.7 3.1-1.1 5.4.7 9.3 4.3 11.1 9.3 5.5 15.4-.7 32.7-1.7 48.3-.7 11.4.2 29.6 13.6 33.9 10.2 3.3 21.5-2.8 27.9-10.4 3.7-4.2-2.3-10.5-6.5-6.2z"/><path d="m294.6 109.3c-1.6 2.7-3.6 7.2-6.7 9.1-1.9-5.7-.5-12.9.4-18.4.7-4.2 1.5-8.4 2.2-12.6.5-3.2 1.5-7.4.3-10.5-.6-1.6-2.6-2.4-4-1-.6.6-1.1 1.3-1.6 2.1-.3.2-.5.4-.7.6-1.3-4.8-8.3-8.7-13.9-7.8-8.9 1.5-13.9 10.6-17 18-1.4 3.5-2.7 7.2-3.6 11-4.4 4.5-8.3 9.4-13.3 13.3-2.3 1.8-5.1 4-7.9 4.6-2.4.5-2.7-1.1-3.5-3.9-1.6-5.9-1.8-12.2-.4-18.1 1-4.3 2.7-10.4 6.5-13.2 1.8-1.3 4.1-1.9 6.2-1 3.7 1.6 3.8 6.7 4.1 10 .1 1.3 1.8 1.8 2.5.7 4.5-6.8 3.7-17.6-5.4-20.3-9.8-2.9-17.3 4.9-20.8 13-1.3 2.9-2.3 6.3-3.1 9.8-7.9 7.1-15 14.9-22.3 22.6-1.6 1.6-3.8 4.8-6 2.9-1.7-1.5-1.9-5.7-2-7.8-.3-8.3 2.2-16.7 6.1-24 1.2-2.3 3.8-8.8 7.1-7.9 4.6 1.3 3.2 9.1 4.6 12.6.1.3.5.4.8.2 8.7-8 1.4-25.9-11.2-21-5.8 2.3-9.6 10.1-11.9 15.4-2.3 5.1-3.8 10.4-4.6 15.8-.3.2-.6.5-.8.8-3.4 4.5-10.9 15.4-17.9 11.2-5.9-3.6-6.7-12.7-5.9-18.8.3-.2.6-.5.9-.8 1.9.1 3.8.2 5.4.2 5.1.1 10.6-.7 14.8-3.8 10.7-8-4.3-21.4-14.1-18.8-7.1 1.9-11.9 8.1-14.2 15.6-.1.5-.3 1-.4 1.6-3.5.6-7 1.3-10.5 2-2.6-9.9-7.9-19.3-18.9-14.6-2 .8-3.7 1.9-5.2 3.2.4-1.3.9-2.5 1.3-3.8 2-6.5 3.1-13.5 4.4-20.5 1.8-9.3 4.6-19 5.4-28.4.6-6.8-.7-14.4-2.4-21-.7-2.8-2.4-9.2-6.1-5.3-2.2 2.3-3 6.3-3.8 9.3-4.1 15-6.3 30.2-7.7 45.7-1 10.5-1.6 21.1-1.8 31.7-.7 1.9-1.3 3.7-2 5.6-3.1 7.6-6.5 15.2-12.4 20.9-7.2 7.1-11-1.9-11.8-8.8 2 .1 4 .1 5.8.1 4.2 0 8.8.7 11.1-3.3 3.7-6.6 5.3-15.2 3.4-22.6-2.6-10.2-14-11.4-20.4-4-6.7 7.8-10.1 18.8-10.1 29-.1 10.9 7.2 24.6 20.4 21.7 8.3-1.8 13-10.4 16.4-17.5.3 5.2.8 10.5 1.4 15.7.6 5 5.7 1.2 6.9-2.3 2.6 3.3 6.2 5.7 10.1 7.7 5.5 2.7 11.5 3.7 15.6-1.7 4.5-6 2.9-16.2 2.4-23.2-.1-1.5-.3-3.3-.6-5.3 2.6-.6 5.2-1.2 7.8-1.8-.4 10.4 3.4 20.8 11.9 24.8 4.3 2 9.2 1.7 13.4-.4 3.3-1.6 5.8-3.8 7.9-6.5 1.2 7.1 4.7 14.2 12.6 14.1 7.3-.1 11.9-6.5 16.1-11.5 3.4-4 6.7-8.1 9.9-12.2.2 5.7 1.6 11.1 4.6 15.5 5.2 7.6 14 5.3 19.9 0 4-3.6 7.5-7.9 10.7-12.4 0 1.8.2 3.6.6 5.4.8 3.8 2.7 7.5 6 9.6 5.3 3.5 9.1 1.3 13.2-2.8 3.3-3.3 6.1-6.9 8.5-10.9-.2 5.3.6 10.7 3.7 15 1 1.4 2.5 2.6 4.3 2.5 9.5-.8 16.4-8.7 17.2-17.9.4-4.3-5.9-5.6-7.9-2.2zm-215.7-28.2c1.7-1.7 3.8-2.4 5.4 0 3.4 4.8.6 13.6-2 18.7-3.3.5-7.2.5-10.7 1.1.8-6.6 2.7-15.4 7.3-19.8zm34.8-76.2c0-.1 0-.1 0 0zm-1.8 1.4c-.2.2-.1 0 0 0zm-1.4 16.2c.7-4.7 1-9.3 2.1-13.9.3.8.7 1.6.8 2.3 1.6 6.3 2.9 13.6 2 20.1-1.2 8.7-4 17.5-6.5 25.9-1 3.6-2.2 7.1-3.4 10.6 1.1-15 2.9-30.1 5-45zm-4.5 82.1c.3-10.3 2.7-20.7 11.5-18.9 3.9.8 5.8 4.8 6.7 9.1-4.6.9-9.2 2-13.2 4.7-2 1.3-3.7 3.1-5 5.1zm18.8 17.3c-2.8-.9-5.7-2.1-8.1-3.8-2.4-1.6-5.2-4.2-5.6-7.2-.5-3.4 2.1-4.5 5-5.5 3-1.1 6.1-1.8 9.3-2.5.6 6.4.8 12.8.7 19.2-.7-.1-1.3-.2-1.3-.2zm38.3-40.7c2.3.5 7.1 3.4 5 6.2-2.5 3.3-10 3.1-13.7 3.3-.3 0-.7 0-1 0-.2-.4-.4-.6-.8-.8.8-2.2 1.9-4.3 3.3-5.9 1.9-2 4.3-3.4 7.2-2.8zm97.4 35.5c-4.5-4.4.4-18.8 1.9-22.8s3.5-8.6 6.8-11.5c3.5-3.2 9.4-2.5 10.5 2.8.1.6.8.9 1.4.8-5.4 11.3-11.2 22.3-20.6 30.7z"/></g></svg>