<svg viewBox="0 0 526.18 182.55" xmlns="http://www.w3.org/2000/svg"><g fill="#fff"><path d="m46.75 87.64a16.74 16.74 0 0 0 -9-4 15.26 15.26 0 0 0 -5 .13c-1.82.38-3.94 2.07-5.81 1.9-5.86-.53-2.7-16.35-1.7-19.94a40.26 40.26 0 0 1 6.34-13c1.69-2.3 5.93-8.41 9.33-7.84 4.18.71 4.43 10.84 4.45 14 0 5.5-1.56 10.57-2.92 15.83a1.82 1.82 0 0 0 3 1.76c5.76-5.58 7.9-14.44 7.23-22.27-.56-6.62-2.43-15.3-9.37-18-7.52-2.93-13.9 3.38-18.3 8.72a48.74 48.74 0 0 0 -10.63 22.44c-1.3 7.23-1.93 16.84 2.32 23.27 4.4 6.64 10.87 5.09 17 2.44 8.31-3.54 12.54 6.92 12.47 13.5-.08 8-4.32 15.62-10.56 20.5-5.75 4.5-15 6.93-21.07 1.64-5.34-4.7-5.23-11.74-.88-17a3.92 3.92 0 0 0 -4.72-6.12c-13.59 6.14-10.12 24.16.06 31.9 12.47 9.49 30.19 2.87 38.62-8.83 8.24-11.47 10.89-30.9-.86-41.03z"/><path d="m218.76 113.31c-3.68 2.3-6.44 5.74-10.16 8-1.85 1.11-4.46 2.14-5.41 2s-1.46-.66-2.32-2.38a20.69 20.69 0 0 1 -1.8-7 43.81 43.81 0 0 1 -.23-4.59l.27.15a13.06 13.06 0 0 0 9 1.43 16 16 0 0 0 11.16-8.59c3.61-7.14 2.48-17.94-4.06-23.07a13.66 13.66 0 0 0 -13.06-1.9c-4.29 1.54-6.77 5.83-8.61 9.8a53.49 53.49 0 0 0 -4.73 24.26c-1.41 4.4-2.66 8.64-5.77 12.43-.19-.74-.34-1.5-.48-2.24-2.27-12.27-.37-25.66-1-37.64-.2-4.28-6.83-5.65-7.82-1.06a107 107 0 0 0 -2 18 3.41 3.41 0 0 0 -1.7 1.58c-3.63 6.51-5.94 13.85-10.09 20.07l-.17.22c-.56-2.72 0-6.17.44-9 1.25-8.4 4.27-17.17 3.93-25.71-.12-3.08-.71-6.9-3.63-8.62-2.62-1.54-6.51-.81-8.7 1.14-4.8 4.25-7.61 12.27-9.61 18.74q-.21-11.2 0-22.4c.74-1.41 1.47-2.82 2.17-4.24 5.22-10.61 9.67-22.26 10.73-34.11 1-11.44-1.32-22.51-9.69-30.72a2.84 2.84 0 0 0 -4.7 1.24c-6.66 24.48-9.31 50.08-9.41 75.67-.47.7-.94 1.4-1.43 2.09a8.83 8.83 0 0 0 -3.11-5.13c-4.59-3.12-10.46-.16-13.71 3.34a31 31 0 0 0 -4.62 6.76c.15-2.82.27-5.63.32-8.45.07-3.85-5.4-5.35-7.28-2-1.48 2.85-6.54 10.26-12.07 14.8 0-.6.11-1.21.15-1.8.34-5.32.91-13.78-5.2-16a14.05 14.05 0 0 0 -3.15-.75 13.22 13.22 0 0 0 -8.64-1.44c-11.04 2.11-14.31 18.54-15.14 27.81a40.07 40.07 0 0 0 2.33 18.35c1.72 4.31 5.05 10.57 10 11.68 7.9 1.78 12.37-7 14.58-13a87.55 87.55 0 0 0 4.08-16.22 33.29 33.29 0 0 0 9.94-7.66c-1.53 10.68-2.18 21.56-2.86 32.24q-1.5 24.08-1.29 48.18c.06 6.63 10.4 6.65 10.32 0q-.27-20.3.67-40.59a14.2 14.2 0 0 0 8.24 2.05c11.3-.61 14.4-13 15.54-22.14.78-6.21 1.88-12.43 1.93-18.7 0-1 0-2.24 0-3.58l.54-.71c.25 13.13 1.12 26.23 2.43 39.13.67 6.54 11 6.6 10.31 0q-.93-9.3-1.41-18.55c.72-2.74 1.44-5.47 2.38-8.11a58.69 58.69 0 0 1 5.18-10.92 48.63 48.63 0 0 1 3.31-4.84c.12-.16.29-.34.47-.54-.48 4-1.37 7.85-2.14 11.75-1.5 7.6-4.21 17-1.8 24.69 2.82 9 11.71 10.54 17.29 3.1a39 39 0 0 0 4.62-8.16 39.11 39.11 0 0 0 1.21 5.65c1.8 6.12 7.08 11.12 13.54 7.17a16.9 16.9 0 0 0 6.21-6.61 12.37 12.37 0 0 0 7 5.31c9.86 2.83 19.73-8.77 22.11-17.09a2.3 2.3 0 0 0 -3.4-2.57zm-141.7-15.31c-3.19-3.27-4.22-12.21.81-14.43h.08c2.74 0 4.5 2.38 3.88 5.72a1.39 1.39 0 0 0 2.51 1.08 43 43 0 0 1 -1.16 9.36 6 6 0 0 1 -6.12-1.73zm-5.52 26.11s0 0 .1 0c-.48.36-.13 0-.1-.05zm3.63-4.16a24.4 24.4 0 0 1 -2.92 3.57c-.57-.68-1.31-1.52-1.49-1.8-4.58-7.27-3.84-17.07-1.68-25.2 0 .16.08.31.13.47 1.75 5.51 6.27 9.6 12.1 9.57a56.74 56.74 0 0 1 -6.14 13.34zm46.45-31.12a33.09 33.09 0 0 1 .73 7.47 74.18 74.18 0 0 1 -5.86 5.65c-2.17 1.85-4.6 3.6-7 5.44 2.57-7.2 7-17.88 12.13-18.61zm-11.83 41.34a5.74 5.74 0 0 1 -4.12-2.32q.3-4.72.71-9.43a30.42 30.42 0 0 1 6.92-7c2.77-2.22 5.56-4.26 8.2-6.54-.46 2.8-1.06 5.59-1.62 8.34-1.05 4.99-2.31 17.87-10.09 16.9zm36-113.65c7.66 11.37 3.13 29.42-1 41.1q-1 2.77-2.1 5.57c.67-15.59 1.81-31.12 3.07-46.72zm8.62 69.48c-.3-.1.05-.25 0 0zm2.19 1.1a1.57 1.57 0 0 0 -.3-.19c.15-1.85.64.78.3.15zm1.92 37.54c-.32.5-.33-.39 0-.04zm2.34.57s-.08-.1-.18-.29c.16.08.24.13.18.25zm23.09 1.1a1 1 0 0 1 -.08-.16c.13.02.19.08.13.12zm27.47-39.21c4.66 4.19 2.65 13.52-2.78 16-3.9 1.81-6-.8-9-1.94a47.41 47.41 0 0 1 1.68-6.48c1.29-3.79 4.93-12.23 10.1-7.58z"/><path d="m174.22 62a3.81 3.81 0 0 0 1.6 1 2.53 2.53 0 0 0 1.26.34 2.68 2.68 0 0 0 1.32 0 2.5 2.5 0 0 0 1.25-.34 3.75 3.75 0 0 0 1.6-1l.08-.1a3.8 3.8 0 0 0 1-1.62 2.43 2.43 0 0 0 .34-1.26c0-.27.08-.54.1-.81a5 5 0 0 0 -.69-2.84 3.54 3.54 0 0 0 -1.2-1.37 3.65 3.65 0 0 0 -1.64-.86l-1.24-.14a4.78 4.78 0 0 0 -2.44.66 5.06 5.06 0 0 0 -1.09.81 6.71 6.71 0 0 0 -.88 1.18 7.39 7.39 0 0 0 -.36.79 4.89 4.89 0 0 0 -.42 2.07 5.35 5.35 0 0 0 .68 2.5z"/><path d="m518 115.47c-1.83 2.66-3.67 5.28-5.31 8a23.3 23.3 0 0 1 -1.93 3.33c-1.36 1.59-.44 1.33-1.21 0-2.53-4.24.24-12.21 1.38-16.53a121.37 121.37 0 0 0 3.6-16.76c.47-3.94 1.23-8.93-2.11-11.86-5.94-5.21-13.14 2.79-17.25 8.5.17-2.68.26-5.35.17-8-.12-3.24-4.45-5.58-6.84-2.83-1.5 1.68-6.45 8.28-12.1 14-.93-6.32-4.21-13.19-10.4-13.92a10.32 10.32 0 0 0 -7.84 1.23c-6.05 3.38-9.6 10.65-12 16.84a69.8 69.8 0 0 0 -3.78 14.16c-1.45-.33-2.94-.6-4.45-.79a29.84 29.84 0 0 0 -1.43-3.28c-4.08-8-10.84-12.89-18.34-17.46-1.23-.76-2.53-1.5-3.8-2.29 2-5.32 3-11.09-1.76-15.26-7.05-6.24-13.9 1.69-14.21 8.87-.18 4.26 2.11 7.72 5.38 10.7-.32.58-.59 1.06-.76 1.4a243 243 0 0 1 -12.18 21.86c-2.07 3.27-5.41 9.22-9.12 12a19.6 19.6 0 0 1 -1.11-2.84 51 51 0 0 1 -1.82-10 175.39 175.39 0 0 1 .22-28.08c.08-1.15.18-2.31.27-3.47.4-.28.79-.57 1.15-.88a34.29 34.29 0 0 0 9.58-13.52c5.86-14.6 11.55-29.84 13.68-45.5.95-7 3.34-27.33-10.22-22.3-6.66 2.46-9.11 10.83-11.19 16.94-5.95 17.5-9.47 35.92-11.83 54.22-.39 3-.77 6.08-1.12 9.18a9.43 9.43 0 0 0 -1.84 1.93c-7.63 10.86-11.09 24.49-19.84 34.58-.47.56-1 1.09-1.48 1.61-.18.18-.69.87-1 1.29a3.23 3.23 0 0 1 -.14-.61c-.49-3.41.14-7.52.86-11.08a113.31 113.31 0 0 1 3.89-14 54.65 54.65 0 0 1 3.5-8.26c2.78-4.35-3.34-8.63-6.92-5.34-4.13 3.8-6.22 10.6-7.84 16.14a100.69 100.69 0 0 1 -14.34 16.51c.13-.82.26-1.6.41-2.33 2.66-13 5.16-25.92 6.65-39.07 1.44-12.63 2.1-25.44.33-38.07-1.41-10-3.54-22.22-12.22-28.76-5.86-4.41-13.23-3.08-17.1 3.22-5.1 8.32-3 19.2 2.21 26.82 1.75 2.55 6.62 1.05 5.36-2.26-2.24-5.86-4.83-14.07-1.57-20 3.09-5.66 7.63-1.33 10 2.63 5.09 8.45 4.88 20.68 5 30.28a179 179 0 0 1 -2.43 30.31c-1.63 10.2-3.72 20.33-5.8 30.45-1 4.66-1.83 9.34-2.85 14a17.61 17.61 0 0 1 -.84 3c-.64-.66-2.15-2.1-2.9-3.07-2.9-3.73-5.05-8-7.34-12.08q-2.5-4.46-4.94-9a4.31 4.31 0 0 0 -2.38-4.45l-.76-1.52a48.43 48.43 0 0 0 -2.78-5.53c-.82-1.17-2-1.94-2.69-3.22a.71.71 0 0 0 -1.28.17c-1.23 4.22-.49 7.82.58 12 .2.78.41 1.56.62 2.33-1 4.64-1.89 9.32-3.6 13.78a25.59 25.59 0 0 1 -3.7 6.84 24.31 24.31 0 0 1 -2.85 2.54c-.31.29.74.32.28.34-.3 0-1-.68-1.44-1.13a12 12 0 0 1 -1.78-2.56 41.66 41.66 0 0 1 -3.63-9.1c-5-16.86-6.43-35.39-6.87-52.9-.16-6.75.43-13.52.17-20.2a2.23 2.23 0 0 0 -3.76-1.56c-4.85 5-4.61 13.84-5 20.38a189.29 189.29 0 0 0 .85 32.29c1.14 9.9 2.73 20.11 6.27 29.47 2.39 6.3 6.23 14.36 13.76 15.4 6.53.9 12.44-6 14.84-11.36a40.83 40.83 0 0 0 2.24-6.58c.1.21.2.42.31.63 3.54 7.06 12.49 24.08 22.9 17.58 4.39-2.74 5.94-8.46 6.87-14a60.06 60.06 0 0 0 12-9.41 33.92 33.92 0 0 0 -.12 12c1.41 7.06 9.2 11.54 15.45 6.57 9-7.16 12.87-19.84 17.34-30.34a98.32 98.32 0 0 0 2.39 27c1.42 5.68 4.93 15.43 12.44 12.57 7.28-2.77 12.13-11.91 15.79-18.23 4.32-7.44 8-15.21 11.68-23 3.89 2.48 7.89 4.67 10.58 6.84a25.58 25.58 0 0 1 6 7c-8.94 1-17.34 5-22.1 12.78-4.25 7-1.84 17.77 6.39 20.71s19.56-3.74 24.48-10.23a21.36 21.36 0 0 0 4.22-12.71c.73.16 1.45.34 2.18.53.61 5.94 3.06 11 8.89 12.86 16.91 5.49 24.59-18.26 25.67-33.32 3.11-2.84 5.94-6.26 8.88-9.32-.66 4.52-1.18 9.06-1.88 13.54-1.13 7.22-2.43 14.41-3.7 21.6a4.26 4.26 0 0 0 -.61 2l-.09 2.26c-.22 5.72 9.06 7.16 10.15 1.37 1.57-8.27 2.74-16.61 3.82-25 .13-1 .27-2 .41-3.09.31-.6.61-1.21.94-1.8a46.38 46.38 0 0 1 5.65-8.3 30.18 30.18 0 0 1 5.24-4.94 54.05 54.05 0 0 1 -1.61 7.6c-.78 3.47-1.82 6.88-2.74 10.32-1.87 6.92-3.75 14.91-1.52 22 1.83 5.83 7.51 10.3 13.78 8.37 6.84-2.09 9.82-12.19 12.42-18 2.32-5.07-4.45-9.18-7.73-4.37zm-206 9.18-.08-.05c.08-.06.08-.06.01.05zm0 0c.11-.1.14 0 0 0zm33-3.89c-.59.74-.41-.46 0 0zm43-93.54c.86-3.55 1.8-7.1 2.93-10.58.84-2.64 1.82-6.64 4.07-8.46 2.77-2.22 3 .31 3.12 2.84a77.11 77.11 0 0 1 -1 14 130.34 130.34 0 0 1 -6.81 24.36c-2.58 7.05-4.89 15.22-9.07 21.5-.3.45-.64.88-1 1.31a349.73 349.73 0 0 1 7.76-44.96zm19.85 55.31c-1-1.23-1.71-5.21-.41-4.36s1.25 2.58.69 4.66c-.13-.1-.2-.19-.29-.29zm56.43 4.4c2.82 1.34 3.43 6.14 3.41 9.39a39.5 39.5 0 0 1 -.32 4.46c-4.6 2.69-8.62 2.71-10.44-3.21 1.71-4.24 4.07-8.64 7.34-10.63zm-45.96 47.07c-2.66.83-5.27 1.26-5.64-2.42-.23-2.35 1.62-4.46 3.25-5.94 3.69-3.37 8.91-4.78 13.81-5.09.05 6.83-5.15 11.52-11.42 13.45zm43.68-16.27c-1.1 2.08-2.48 5.28-4.6 6.55a9 9 0 0 1 -2 .57 2.46 2.46 0 0 1 -1.34 0 .55.55 0 0 0 -.21 0 .57.57 0 0 0 -.1-.19 3 3 0 0 1 -.74-1.27 23 23 0 0 1 -.7-4.74 46.33 46.33 0 0 1 2.41-14.75l.06-.18a10.21 10.21 0 0 0 7 3.66 16.14 16.14 0 0 0 4.32-.21 51.27 51.27 0 0 1 -4.1 10.56z"/><path d="m348.63 66.51a3.28 3.28 0 0 0 2.49 1.62 3.33 3.33 0 0 0 2.43-.63 6.28 6.28 0 0 0 3.56-4.5 5.39 5.39 0 0 0 -.51-3.9 5.07 5.07 0 0 0 -6.93-1.82 5 5 0 0 0 -2.32 3 7.19 7.19 0 0 0 0 3.85 6.58 6.58 0 0 0 1.28 2.38zm5.19.81.18-.13c.19-.19.84-.6-.18.13z"/></g></svg>