<?xml version="1.0" encoding="utf-8"?>
<!-- Generator: Adobe Illustrator 25.1.0, SVG Export Plug-In . SVG Version: 6.00 Build 0)  -->
<svg version="1.1" id="Capa_1" xmlns="http://www.w3.org/2000/svg" xmlns:xlink="http://www.w3.org/1999/xlink" x="0px" y="0px"
	 viewBox="0 0 15.6 15.6" style="enable-background:new 0 0 15.6 15.6;" xml:space="preserve">
<style type="text/css">
	.st0{fill-rule:evenodd;clip-rule:evenodd;fill:#FFFFFF;}
</style>
<path class="st0" d="M7.8,0C3.5,0,0,3.5,0,7.8s3.5,7.8,7.8,7.8s7.8-3.5,7.8-7.8S12.1,0,7.8,0z M12.2,6.6c-0.3,0.7-0.7,1.4-1.1,2
	C10.5,9.5,9.8,10.3,9,11c-0.4,0.3-0.8,0.6-1.4,0.7c-0.4,0.1-0.7,0-0.9-0.3C6.3,11,6.1,10.6,6,10.1C5.7,9.3,5.4,8.3,5.2,7.4
	C5.1,7.1,5,6.8,4.8,6.5c0-0.1-0.1-0.1-0.1-0.2C4.5,6,4.4,6,4,6.2C3.9,6.3,3.8,6.4,3.7,6.4s-0.1,0-0.2,0C3.4,6.3,3.3,6.2,3.2,6
	c0-0.1-0.1-0.1,0-0.1c0.7-0.6,1.2-1.2,2-1.7C5.4,4,5.7,3.9,6,3.9S6.6,4,6.8,4.3C7,4.6,7.1,5,7.2,5.3C7.3,6.2,7.4,7,7.7,7.9
	c0,0.2,0.1,0.5,0.3,0.8C8.1,9,8.3,9,8.5,8.7C9,8.1,9.4,7.5,9.7,6.8c0.1-0.2,0.1-0.3,0.1-0.5c0-0.3-0.2-0.5-0.5-0.5
	c-0.2,0-0.4,0-0.6,0.1c-0.1,0-0.1,0-0.1-0.1c0.2-0.6,0.5-1.1,1-1.5c0.6-0.5,1.3-0.6,2-0.4C12.2,4,12.4,4.5,12.5,5c0,0.1,0,0.3,0,0.4
	C12.4,5.8,12.4,6.2,12.2,6.6z"/>
</svg>
