<svg enable-background="new 0 0 150 123.9" viewBox="0 0 150 123.9" xmlns="http://www.w3.org/2000/svg"><path clip-rule="evenodd" d="m150 16.9v1c-4 5.2-7.9 10.6-12.1 15.6-3.7 4.5-5 9.4-4.8 15.2 1.1 38.8-19.4 65.2-56.5 72.7-4.8 1-9.7 1.6-14.5 2.4h-12.1c-1.7-.4-3.4-.8-5.2-1-16-1-30.2-7.2-44.3-15.8l34.1-12c-9.3-5.2-14.4-11.9-17.4-20.4-1.7-4.9-4.6-9.4-6-14.4-1.5-6-2.6-12.1-3.3-18.3-.1-1 1.4-2.2 2.5-3.8-4.7-13.1-3.3-24.7 5-35.1 13.5 17.2 30.2 29 51.8 31.8 1.2-5.6 1.4-10.9 3.4-15.5 7.7-18.3 32.8-24.4 49.7-12.5 2.5 1.8 4.5 2.2 7.3 1.1 5.5-2.2 11.1-4 17.5-6.3-1.8 5.6-3.4 10.4-5.2 15.8z" fill="#fff" fill-rule="evenodd"/></svg>