<svg enable-background="new 0 0 15.6 15.6" viewBox="0 0 15.6 15.6" xmlns="http://www.w3.org/2000/svg"><path clip-rule="evenodd" d="m7.8 0c-4.3 0-7.8 3.5-7.8 7.8s3.5 7.8 7.8 7.8 7.8-3.5 7.8-7.8-3.5-7.8-7.8-7.8zm4.4 6.6c-.3.7-.7 1.4-1.1 2-.6.9-1.3 1.7-2.1 2.4-.4.3-.8.6-1.4.7-.4.1-.7 0-.9-.3-.4-.4-.6-.8-.7-1.3-.3-.8-.6-1.8-.8-2.7-.1-.3-.2-.6-.4-.9 0-.1-.1-.1-.1-.2-.2-.3-.3-.3-.7-.1-.1.1-.2.2-.3.2s-.1 0-.2 0c-.1-.1-.2-.2-.3-.4 0-.1-.1-.1 0-.1.7-.6 1.2-1.2 2-1.7.2-.2.5-.3.8-.3s.6.1.8.4.3.7.4 1c.1.9.2 1.7.5 2.6 0 .2.1.5.3.8.1.3.3.3.5 0 .5-.6.9-1.2 1.2-1.9.1-.2.1-.3.1-.5 0-.3-.2-.5-.5-.5-.2 0-.4 0-.6.1-.1 0-.1 0-.1-.1.2-.6.5-1.1 1-1.5.6-.5 1.3-.6 2-.4.6.1.8.6.9 1.1v.4c-.1.4-.1.8-.3 1.2z" fill="#fff" fill-rule="evenodd"/></svg>