<svg viewBox="0 0 31.4 79.5" xmlns="http://www.w3.org/2000/svg"><g fill="#fff"><path d="m15.65 79.5a1.47 1.47 0 0 1 -.73-.19l-10.69-5.94a1.51 1.51 0 0 1 -.58-2 1.49 1.49 0 0 1 2-.58l10 5.53 10.06-5.59a1.5 1.5 0 1 1 1.46 2.62l-10.79 6a1.47 1.47 0 0 1 -.73.15z"/><path d="m15.7 0a15.71 15.71 0 0 0 -15.7 15.7v22a15.7 15.7 0 0 0 31.4 0v-22a15.71 15.71 0 0 0 -15.7-15.7zm12.7 15.7v4.7h-11.2v-2.06a4.88 4.88 0 0 0 3.4-4.64v-3.6a4.88 4.88 0 0 0 -3.4-4.64v-2.36a12.71 12.71 0 0 1 11.2 12.6zm-12.7-7.5a1.9 1.9 0 0 1 1.9 1.9v3.6a1.9 1.9 0 0 1 -3.8 0v-3.6a1.9 1.9 0 0 1 1.9-1.9zm-1.5-5.1v2.36a4.88 4.88 0 0 0 -3.4 4.64v3.6a4.88 4.88 0 0 0 3.4 4.64v2.06h-11.2v-4.7a12.71 12.71 0 0 1 11.2-12.6zm1.5 47.3a12.72 12.72 0 0 1 -12.7-12.7v-14.3h25.4v14.3a12.72 12.72 0 0 1 -12.7 12.7z"/></g></svg>