<svg viewBox="0 0 519.38 519.38" xmlns="http://www.w3.org/2000/svg" xmlns:xlink="http://www.w3.org/1999/xlink"><clipPath id="a"><circle cx="259.69" cy="259.69" r="184.57"/></clipPath><circle cx="259.69" cy="259.69" fill="#090e1d" r="259.69"/><g clip-path="url(#a)"><path d="m83.39 279.57c2.76-3.68 7.6-7.84 11.24-5l38-44.47c3.39-4 8.34-8.34 13.13-6.27 2.17.93 3.6 3 4.77 5.07 4.58 8 6.92 17.22 11.54 25.24s12.66 15.18 21.9 14.69c4.35-.23 9.29-2 12.66.79 3.59 2.95 2.53 8.87 5.08 12.76 1.89 2.9 6.6 2.53 8.71 5.27 15.57 20.33 38.37 36.21 56.66 41.44 4.72-1.57 23.81-8.32 28.6-9.67 25.11-7.06 32.09-32.81 57.2-39.88a14.6 14.6 0 0 1 3.75-.7 14.36 14.36 0 0 1 5.08 1.21l20.74 7.73c13.05 4.86 26.11 9.73 39.2 14.5q27.06 9.86 54.3 19.16a220.63 220.63 0 0 0 2.27-31.46c0-120.7-97.85-218.54-218.54-218.54s-218.52 97.8-218.52 218.5a220.51 220.51 0 0 0 2.3 31.77 254.52 254.52 0 0 0 39.93-42.14z" fill="#e9e8b1"/><path d="m384.36 279.79c-5.72-14.56-11.57-5.05-13.9-9.81s-7.46-28.07-15.46-28.09-23.15 33.67-32.25 41.34-20.46 18.41-46.28 22.11c-17.88 2.56-60.82 0-65.55 1.56 67.38 19.31 186.92 48 256.4 57.21 2.29-8.43 7.39-33.92 8.66-42.71q-27.24-9.31-54.3-19.16c-13.11-4.77-31.6-7.89-37.32-22.45z" fill="#d2d072"/><path d="m247.31 347.14c-3.47.77-7.11 1.62-10.53.64-2.87-.83-5.21-2.86-7.67-4.55-15.19-10.43-37.85-9.92-48.39-25a11.86 11.86 0 0 0 -3.07-3.56 7.55 7.55 0 0 0 -4.37-.92c-10.6.41-19.51 10.62-30 9.25-5.13-.67-9.56-4.05-14.64-5-10.86-2.08-20.69 7.06-31.67 8.35-9.49 1.12-18.51-3.7-27.62-6.57-8.72-2.75-19.73-3-25.61 3.69 16.11 104.8 106.67 185.06 216 185.06 100.33 0 184.85-67.61 210.53-159.75-68.37 3.36-157.73-16.08-222.96-1.64z" fill="#35916f"/><path d="m210.43 287.61c-3.29-1.08-6.82-2.37-8.71-5.27-2.55-3.89-1.49-9.81-5.08-12.76-3.37-2.76-8.31-1-12.66-.79-9.24.49-17.28-6.67-21.9-14.69s-7-17.19-11.54-25.24c-1.17-2.06-2.6-4.14-4.77-5.07-4.79-2.07-9.74 2.31-13.13 6.27l-38 44.47c-3.64-2.8-8.48 1.36-11.24 5a254.52 254.52 0 0 1 -39.93 42.14c.09.56.16 1.13.25 1.7 5.88-6.73 16.89-6.44 25.61-3.69 9.11 2.87 18.13 7.69 27.62 6.57 11-1.29 20.81-10.43 31.67-8.35 5.08 1 9.51 4.36 14.64 5 10.52 1.37 19.43-8.84 30-9.25a7.55 7.55 0 0 1 4.37.92 11.86 11.86 0 0 1 3.07 3.56c10.54 15.11 33.2 14.6 48.39 25 2.46 1.69 4.8 3.72 7.67 4.55 3.42 1 7.06.13 10.53-.64 65.23-14.44 154.59 5 222.91 1.58.13-.49.26-1 .4-1.48-48-6.34-141.52-11.64-203-27.34-27.6-6.94-51.6-30.34-57.17-32.19z" fill="#58a264"/><path d="m21.55 317.69s112.14 61.81 214.73 52.25c61.75-5.75 78.15-12.7 130.66-13.28 66.86-.74 118.57 7 118.57 7v149.44h-455.51z" fill="#444c64"/><path d="m403.58 194.83c-.18-3.13-2.76-6-6.8-7.93a6.38 6.38 0 0 0 .76-3c0-6.23-9.48-11.27-21.18-11.27-.28-6-6.2-10.83-13.49-10.83-7.47 0-13.52 5-13.52 11.27-8.81 1.34-15.27 5.65-15.33 10.76h-.1c-7.36 0-13.33 4.9-13.51 11z" fill="#fff"/><path d="m159.33 194.83a7.8 7.8 0 0 0 -5.52-6.33 7.79 7.79 0 0 0 -6.85-4.07 7.8 7.8 0 0 0 -15.59-.18 6.53 6.53 0 0 0 -.7.58 7.63 7.63 0 0 0 -2.45-.4 7.78 7.78 0 0 0 -6.71 3.84 7.88 7.88 0 0 0 -1.09-.09 7.8 7.8 0 0 0 -7.71 6.65z" fill="#fff"/><g fill="#444c64"><path d="m340.44 320.93c-2.41 2.41-2.2 6.36-2.43 9.52a44.71 44.71 0 0 0 .49 10.9 58.18 58.18 0 0 1 .85 10.71 56.92 56.92 0 0 0 .54 10.6c.23 1.36 2.13.89 2.24-.3a85.86 85.86 0 0 0 -.11-10.64 53.08 53.08 0 0 1 .91-10.68 64.86 64.86 0 0 0 .88-10.59c0-3.21.49-6.83-1.61-9.52a1.26 1.26 0 0 0 -1.76 0z"/><path d="m329.39 321c-2.34 2.52-2 6.46-2 9.66a37.53 37.53 0 0 0 .26 5.51c.24 1.6.82 3.1 1.14 4.67.68 3.31.18 7 .35 10.33.18 3.54 0 7.07.37 10.59.13 1.14 2 1.66 2.21.3a97.14 97.14 0 0 0 .87-10.22c.27-3.52-.1-7.2.42-10.68.25-1.76.9-3.43 1.1-5.21a32.22 32.22 0 0 0 0-5.29c-.17-3.17-.05-7.36-2.61-9.66a1.52 1.52 0 0 0 -2.12 0z"/><path d="m325.12 361.28c1.16-1 .73-3.41.67-4.79-.08-2.23-.22-4.47-.34-6.7s-.44-4.37.09-6.49a30.47 30.47 0 0 0 1.16-6.57 126.86 126.86 0 0 0 -.64-12.92c-.27-4.28-.41-8.73-1.45-12.91-.52-2-3.93-2.78-4.87-.63-1.77 4.06-1.9 8.52-1.6 12.9a126.08 126.08 0 0 0 1.4 13.86 26.72 26.72 0 0 0 2 6.21c1 2.17 1 4.54 1.28 6.89s.42 4.47.69 6.7c.17 1.38.09 3.67 1.4 4.47a.15.15 0 0 0 .18 0z"/><path d="m313.51 362.22c.75-2.07.31-4.78.24-7s-.17-4.48-.18-6.72a34.88 34.88 0 0 1 1.08-7.33 37.6 37.6 0 0 0 .62-7.11c0-4.72-.09-9.39-.45-14.1-.18-2.35-.35-4.69-.37-7.05a23.55 23.55 0 0 0 -.14-3.36c-.19-1.2-.76-2.34-1.06-3.53a.69.69 0 0 0 -1.31 0c-.39 1.13-1.05 2.2-1.34 3.36a22 22 0 0 0 -.39 3.53c-.18 2.36-.49 4.7-.77 7.05a105.53 105.53 0 0 0 -.75 14.44 32 32 0 0 0 .77 7.09 34.64 34.64 0 0 1 1.29 7c.12 2.46.17 4.93.26 7.39.09 2.08 0 4.58.87 6.49.35.76 1.39.44 1.63-.21z"/><path d="m349.89 363a27.2 27.2 0 0 0 .47-7.48q0-3.68 0-7.33c0-5.28 1.33-10.41 1.79-15.66.44-5.1.85-10.21 1-15.33a44 44 0 0 0 -.27-7.86c-.19-1.3-.75-2.42-1-3.68a13.9 13.9 0 0 0 -.62-3.51 1.45 1.45 0 0 0 -2.49 0c-.62 1.14-.5 2.31-.89 3.51a32.58 32.58 0 0 0 -1.27 3.68 43.22 43.22 0 0 0 -.69 7.53c-.13 5.22.07 10.44.41 15.66s1.64 10.16 1.68 15.32c0 2.56.06 5.11.1 7.67s-.06 5.09.71 7.48a.58.58 0 0 0 1.1 0z"/><path d="m358.33 363.26c1.07-2.61.73-5.1.71-7.82a76.08 76.08 0 0 1 .51-8.41q.87-8.25 1.83-16.48c.63-5.48 1.39-11 1.74-16.48.17-2.68.45-5.39.41-8.08a26 26 0 0 0 -.66-4.2 18.12 18.12 0 0 0 -1-4.3c-.65-1.51-3.1-1.37-3.79 0a16.06 16.06 0 0 0 -1.2 4 26.13 26.13 0 0 0 -.93 4.19c-.19 2.79-.1 5.61-.09 8.41 0 5.49.45 11 .76 16.48s.59 11 .83 16.48a74.91 74.91 0 0 1 0 8.07c-.17 2.81-.7 5.4.24 8.16a.35.35 0 0 0 .66 0z"/><path d="m369.07 364c1-4.65.37-9.52.53-14.28a62.93 62.93 0 0 1 1.09-7.6c.38-2.41.56-4.83.81-7.26.5-4.86 1-9.64 1.1-14.53a13.4 13.4 0 0 0 -.3-4.19 25.74 25.74 0 0 1 -.92-3.07c-.38-2.38.14-5.24-1-7.39a1.57 1.57 0 0 0 -2.69 0c-1 2.1-.57 4.78-.82 7.07a16.12 16.12 0 0 1 -1 3.39 12.85 12.85 0 0 0 -.41 3.86c-.09 5 0 9.89.12 14.86.08 2.43.1 4.85.37 7.27s.75 4.83.86 7.26 0 4.83.18 7.25c.07 1.32.2 2.64.34 3.95a11.8 11.8 0 0 0 1 3.41c.14.36.72.45.82 0z"/><path d="m377.42 365.59c1.61-1.42 1.22-4.68 1.22-6.6q0-4-.06-8c-.1-5.64 2.18-10.77 2.46-16.37.26-5.33.25-10.69.31-16 0-2.72.37-5.91-.73-8.47-1-2.4-.44-5.35-1.65-7.64a1.48 1.48 0 0 0 -2.55 0c-1.26 2.2-.73 5.15-1.8 7.48-1.16 2.53-1 5.55-1 8.3-.08 5.45-.23 10.91 0 16.36s2.35 10.54 2.27 16c0 2.67-.11 5.34-.12 8 0 2-.48 5.45 1.21 6.94a.37.37 0 0 0 .5 0z"/><path d="m387.44 366.59c.94-2 .56-4.57.56-6.75 0-2.55-.05-5.14.15-7.69s1.27-5.09 1.62-7.69.58-5.1.7-7.7c.22-5.12.24-10.25.37-15.38a43 43 0 0 0 -.37-7.44 40.85 40.85 0 0 0 -1.55-7.54 1 1 0 0 0 -1.93 0 38.6 38.6 0 0 0 -1.92 7.22 43.89 43.89 0 0 0 -.76 7.76c-.12 5.12-.31 10.26-.29 15.38 0 2.48.12 4.9.37 7.36.28 2.71 1.28 5.31 1.41 8 .11 2.44 0 4.92-.08 7.36-.05 2.27-.54 4.95.39 7.08a.78.78 0 0 0 1.33 0z"/><path d="m398.39 366.43c.8-2 .68-4.48.69-6.62 0-2.35 0-4.7 0-7.05s-.26-4.67.31-6.88a53.86 53.86 0 0 0 1.33-6.9 113.21 113.21 0 0 0 .63-13.78c0-4.42 0-9.77-2.57-13.55a1.57 1.57 0 0 0 -2.68 0c-2.57 3.79-2.51 9.14-2.5 13.55a111.29 111.29 0 0 0 .71 13.78 40.91 40.91 0 0 0 1.28 6.58c.67 2.32.43 4.8.44 7.2v6.72s-.13 4.84.72 6.95a.87.87 0 0 0 1.66 0z"/><path d="m409.28 369.4a20.38 20.38 0 0 0 .06-3.58c-.08-1.21-.45-2.37-.55-3.59a43.07 43.07 0 0 1 .11-7.18 13.9 13.9 0 0 1 .93-3.41c.38-1.11.62-2.26.9-3.39a59.68 59.68 0 0 0 1.47-7.25 77 77 0 0 0 .67-14.07 39.29 39.29 0 0 0 -1.43-7.11c-.53-2.05-.17-4.66-1.39-6.46a1 1 0 0 0 -1.7 0c-1 1.93-.51 4.37-1.05 6.46a56.34 56.34 0 0 0 -1.65 7.11 95 95 0 0 0 -.82 14.4 65.24 65.24 0 0 0 .8 7.23c.36 2.41 1.2 4.71 1.28 7.15.08 2.27.25 4.58.17 6.85a33.28 33.28 0 0 0 -.16 3.59 17.07 17.07 0 0 0 .64 3.48.88.88 0 0 0 1.72-.23z"/></g><path d="m372.77 305.54c-3.85 3.86-3.51 10.19-3.88 15.26a71.57 71.57 0 0 0 .77 17.48 91.28 91.28 0 0 1 1.34 17.16 92.91 92.91 0 0 0 .87 17c.38 2.18 3.42 1.42 3.6-.49.52-5.65 0-11.39-.18-17a86.17 86.17 0 0 1 1.45-17.13 105.08 105.08 0 0 0 1.43-17c0-5.15.78-10.95-2.58-15.26a2 2 0 0 0 -2.84 0z" fill="#2b2f3e"/><path d="m355.06 305.67c-3.75 4-3.17 10.36-3.15 15.48a60.59 60.59 0 0 0 .41 8.84c.39 2.56 1.32 5 1.84 7.49 1.08 5.3.27 11.16.55 16.56.29 5.66 0 11.33.59 17 .21 1.83 3.14 2.66 3.55.48 1-5.43 1-10.9 1.39-16.39.44-5.64-.15-11.54.67-17.12.41-2.81 1.45-5.5 1.77-8.34a51.21 51.21 0 0 0 0-8.49c-.27-5.08-.08-11.8-4.18-15.48a2.44 2.44 0 0 0 -3.41 0z" fill="#2b2f3e"/><path d="m348.21 370.22c1.87-1.6 1.18-5.46 1.09-7.67-.14-3.58-.36-7.16-.55-10.74s-.71-7 .15-10.41a49.45 49.45 0 0 0 1.85-10.53c.27-6.91-.58-13.82-1-20.71s-.66-14-2.34-20.69c-.82-3.3-6.28-4.47-7.79-1-2.84 6.51-3.06 13.67-2.57 20.68.51 7.4.92 14.92 2.25 22.23a42.08 42.08 0 0 0 3.25 9.94c1.57 3.49 1.66 7.29 2 11.05.37 3.57.69 7.16 1.12 10.73.27 2.23.15 5.9 2.24 7.18a.23.23 0 0 0 .28 0z" fill="#2b2f3e"/><path d="m329.61 371.73c1.19-3.32.5-7.66.38-11.14s-.27-7.18-.28-10.77c0-4.16.91-7.72 1.72-11.75a59.63 59.63 0 0 0 1-11.39c0-7.58-.15-15.06-.72-22.61-.29-3.77-.56-7.52-.6-11.31a37.25 37.25 0 0 0 -.22-5.38c-.3-1.93-1.22-3.76-1.7-5.66a1.09 1.09 0 0 0 -2.09 0c-.64 1.81-1.69 3.53-2.15 5.39a34.53 34.53 0 0 0 -.63 5.65c-.29 3.79-.78 7.54-1.24 11.31a170.37 170.37 0 0 0 -1.2 23.14 51 51 0 0 0 1.24 11.36 56.45 56.45 0 0 1 2.07 11.25c.18 3.95.26 7.9.42 11.84.13 3.34-.06 7.35 1.38 10.41.57 1.21 2.24.7 2.62-.34z" fill="#2b2f3e"/><path d="m387.93 373c1.07-3.87.78-8 .75-12s-.05-7.84-.06-11.75c0-8.46 2.13-16.69 2.86-25.11.71-8.17 1.37-16.36 1.61-24.56a70.73 70.73 0 0 0 -.43-12.6c-.31-2.08-1.21-3.89-1.58-5.9s-.16-3.7-1-5.63c-.7-1.61-3.23-1.41-4 0-1 1.83-.8 3.7-1.42 5.63a50.68 50.68 0 0 0 -2 5.9 68.75 68.75 0 0 0 -1.11 12.06c-.2 8.38.13 16.75.67 25.1s2.62 16.3 2.69 24.57q.06 6.15.16 12.29c.06 4-.09 8.16 1.13 12a.92.92 0 0 0 1.77 0z" fill="#2b2f3e"/><path d="m432.06 377.13c2.59-2.28 1.95-7.5 2-10.58 0-4.29 0-8.57-.1-12.85-.15-9 3.5-17.27 3.94-26.24.43-8.55.4-17.13.5-25.7.05-4.37.6-9.48-1.17-13.58-1.66-3.85-.71-8.58-2.64-12.25a2.4 2.4 0 0 0 -4.1 0c-2 3.53-1.16 8.25-2.88 12-1.86 4.06-1.58 8.9-1.64 13.31-.12 8.73-.36 17.5-.05 26.23s3.76 16.89 3.63 25.7c-.07 4.29-.18 8.57-.19 12.85 0 3.21-.76 8.74 1.93 11.12a.6.6 0 0 0 .81 0z" fill="#2b2f3e"/><path d="m448.12 378.73c1.52-3.23.9-7.33.9-10.81 0-4.09-.08-8.25.23-12.33s2.05-8.16 2.61-12.33.94-8.18 1.11-12.34c.36-8.21.4-16.44.6-24.66a69 69 0 0 0 -.59-11.93c-.58-3.92-1.16-8.35-2.49-12.08a1.62 1.62 0 0 0 -3.09 0 62.61 62.61 0 0 0 -3.07 11.57 69.28 69.28 0 0 0 -1.22 12.44c-.19 8.22-.51 16.45-.48 24.66 0 4 .19 7.85.6 11.8.45 4.34 2.06 8.52 2.26 12.87.18 3.91 0 7.88-.12 11.8-.09 3.63-.86 7.94.63 11.34a1.23 1.23 0 0 0 2.12 0z" fill="#2b2f3e"/><path d="m465.67 378.47c1.3-3.23 1.09-7.17 1.11-10.6 0-3.77 0-7.54 0-11.31s-.41-7.48.5-11a84.34 84.34 0 0 0 2.13-11.06 180.84 180.84 0 0 0 1-22.08c0-7.09 0-15.66-4.11-21.73a2.53 2.53 0 0 0 -4.3 0c-4.13 6.08-4 14.65-4 21.73a178.86 178.86 0 0 0 1.14 22.08 66.31 66.31 0 0 0 2 10.56c1.09 3.72.7 7.69.71 11.53v10.78s-.21 7.76 1.16 11.13a1.39 1.39 0 0 0 2.65 0z" fill="#2b2f3e"/><path d="m483.14 383.24a35.48 35.48 0 0 0 .1-5.74c-.14-1.93-.72-3.8-.89-5.75a69.16 69.16 0 0 1 .17-11.51 22.08 22.08 0 0 1 1.5-5.47c.6-1.77 1-3.62 1.43-5.44a95.71 95.71 0 0 0 2.37-11.62 123.28 123.28 0 0 0 1.06-22.55 61.75 61.75 0 0 0 -2.29-11.4c-.85-3.29-.27-7.46-2.22-10.35a1.59 1.59 0 0 0 -2.72 0c-1.68 3.09-.82 7-1.68 10.35a91.06 91.06 0 0 0 -2.66 11.4 152.27 152.27 0 0 0 -1.3 23.08 98.27 98.27 0 0 0 1.28 11.59c.57 3.87 1.92 7.56 2 11.46.12 3.64.4 7.35.27 11a52.72 52.72 0 0 0 -.26 5.74 27.23 27.23 0 0 0 1 5.6 1.41 1.41 0 0 0 2.76-.38z" fill="#2b2f3e"/><path d="m419.19 311.43c-5 5-4.56 13.21-5 19.78a92.38 92.38 0 0 0 1 22.65 118.27 118.27 0 0 1 1.76 22.24c-.1 7.31-.13 14.81 1.13 22 .49 2.81 4.43 1.84 4.66-.63.67-7.34 0-14.77-.23-22.1a111.42 111.42 0 0 1 1.88-22.19 134.25 134.25 0 0 0 1.84-22c0-6.68 1-14.2-3.34-19.78a2.62 2.62 0 0 0 -3.67 0z" fill="#191d2a"/><path d="m389.79 395.26c-2.43-2.08-1.52-7.08-1.41-9.95.18-4.64.47-9.28.71-13.91s.92-9.09-.19-13.49a64.45 64.45 0 0 1 -2.4-13.65c-.34-8.95.76-17.91 1.32-26.84s.86-18.15 3-26.82c1.07-4.27 8.15-5.79 10.1-1.32 3.69 8.45 4 17.72 3.33 26.8-.66 9.59-1.19 19.35-2.91 28.81a54.37 54.37 0 0 1 -4.22 12.89c-2 4.52-2.14 9.45-2.64 14.31-.48 4.64-.9 9.29-1.45 13.92-.34 2.88-.19 7.63-2.91 9.3a.3.3 0 0 1 -.36-.05z" fill="#191d2a"/><path d="m363.25 397.21c1.55-4.3.65-9.93.49-14.44s-.34-9.3-.36-13.94c0-5.4 1.18-10 2.23-15.24a77 77 0 0 0 1.29-14.77c0-9.81-.19-19.51-.93-29.3-.37-4.89-.73-9.75-.78-14.65a47.75 47.75 0 0 0 -.28-7c-.39-2.5-1.58-4.88-2.2-7.35a1.42 1.42 0 0 0 -2.72 0c-.82 2.36-2.18 4.58-2.78 7a45.17 45.17 0 0 0 -.81 7.33c-.39 4.91-1 9.77-1.61 14.65a221.15 221.15 0 0 0 -1.56 30 66.2 66.2 0 0 0 1.61 14.72c1.22 5 2.45 9.41 2.68 14.59s.34 10.23.54 15.34c.17 4.32-.07 9.52 1.8 13.48.73 1.58 2.9.92 3.39-.44z" fill="#191d2a"/><path d="m438.83 398.91c1.39-5 1-10.39 1-15.54s-.06-10.15-.07-15.23c0-11 2.76-21.62 3.71-32.53.92-10.6 1.77-21.21 2.08-31.84a92.84 92.84 0 0 0 -.56-16.33c-.39-2.7-1.56-5-2-7.65s-.2-4.79-1.29-7.29c-.91-2.09-4.19-1.83-5.18 0-1.29 2.37-1 4.79-1.85 7.29s-2.08 4.86-2.64 7.65a90.08 90.08 0 0 0 -1.43 15.64c-.27 10.85.16 21.7.86 32.53s3.4 21.12 3.49 31.84q.08 8 .2 15.92c.09 5.15-.12 10.58 1.47 15.54a1.2 1.2 0 0 0 2.29 0z" fill="#191d2a"/></g><path d="m334.94 381.73c-3.36-3.36-19.82-76.74-21.68-80.37s-27.46-53.36-30.26-56.16c-2.5-2.49-6.14-9.39-8.08-12.46-.24-.38-.45-.71-.64-1a3.28 3.28 0 0 1 -.25-.46c-.45-4.08 1-12.67 1-12.9s6.82 15.06 12.14 18.62 24.83 15.28 26.83 18.71 7.47 15.37 13.29 10.59-1.4-13.45-7.21-18.15-25.94-18.63-28-21.78-9.93-21.05-11.08-24.17-6-18.4-13-19.53c-1.63-.27-.24-11.22.63-14.3a.72.72 0 0 1 .63-.52c1.7-.15 4.75.63 7.71.05s4.47-6.13 4.08-11.83a21.22 21.22 0 0 0 -2.24-8.51.49.49 0 0 1 -.06-.17c-2.41-11.34-15.79-10-23-4.53s-3.14 11.24-7.42 14.54c-2.12 1.64-1.82-2.43-10.28-.73-8.07 1.61-5.53 6.76-10.36 7.25s-3.77-4.14-12.51-3.34-6.58 7.26-11.28 6.67c-5.49-.69-29.38 1.25-24.48 13.92s26.43-1.63 30.75-2.46 3.13 4 12.51 2.6 7.63-5.08 11.93-5.92 3.88 2.63 10.71 1.38a44.23 44.23 0 0 0 11-3.51.72.72 0 0 1 1 .85c-.87 3-3.66 9.06-7.57 9.74-2.21.56-5.74.5-10.3 4.24-8.45 6.91-42.24 67.3-45.45 70.24s-12.67 10.92-12.12 14.56.88 9.52 7.51 5.61 6.91-13.1 10.82-16.57 21.43-27.85 22.38-28.37 19.71-25.41 19.28-24-.94 6.65.86 12.86a42.84 42.84 0 0 1 1.51 10.75 2.6 2.6 0 0 1 -.32 1.31 4.27 4.27 0 0 0 -.21.72l-.13.18a3 3 0 0 1 -.59.64c-2.11 1.65-6.74 6.54-10.17 19.27-4.57 17-9.21 40.08-15.73 54.82s-26.14 43.25-29.64 47.13-15.92 22.31-16 24 5.49 14.86 10.1 17.33 14.13 2.3 16.05.08-5.33-5.32-4-7.54 38.4-60.11 42.61-66.82c2.08-3.29 18.46-37.29 24.24-49.29a3.07 3.07 0 0 1 4.94-.74c7.12 8.43 24.83 29.69 25.78 33.7 1.19 5 19.72 78.41 21.67 80.65s12.28 3.4 18.23 3.43 11.87.62 13.46-1.6-6.22-5.35-9.59-8.71z" fill="#090e1d"/><g fill="#fff"><path d="m81.93 356.67-6.28 7 7.18 11.8 9.17-2.3 4.5 7.39-39.5 8.36-5.1-8.39 25.52-31.25zm-11 12.18q-8.49 9.63-9.61 10.88c-.75.83-1.36 1.46-1.81 1.9q3.27-1 16.56-4.34z"/><path d="m57.2 268.64.94 7.95-16.24 1.93 1.76 14.9 16.24-1.92 1 8-37.63 4.46-.94-8 14.67-1.75-1.74-14.91-14.75 1.75-.94-7.95z"/><path d="m42.17 216.78q9.34 1.08 13.83 6.3t3.48 13.92q-1 8.64-6.56 12.7t-15 3q-9.41-1.08-13.82-6.31t-3.41-13.9q1-8.67 6.53-12.69t14.95-3.02zm-3.17 27.47c4.21.49 7.46.06 9.78-1.29s3.65-3.61 4-6.79q1.11-9.55-11.59-11t-13.82 8q-.54 4.77 2.38 7.56t9.25 3.52z"/><path d="m69.88 190.64-31-2.26-.08.21q8.63 2.83 11.46 3.93l16.42 6.39-2.6 6.69-35.33-13.73 4-10.2 30.25 2.15.06-.15-23.6-19.36 4-10.2 35.32 13.73-2.71 7-16.72-6.49-2.72-1.1q-1.53-.64-8.08-3.52l-.09.21 24.12 19.86z"/><path d="m55.78 132.85 6.78-9.65q4.64-6.6 8.61-8.25t8.06 1.21a9.19 9.19 0 0 1 3.64 4.51 6.36 6.36 0 0 1 -.29 5l.21.15a8.3 8.3 0 0 1 5.45-2.52 10.94 10.94 0 0 1 10.17 9.7q.23 4.74-3.47 10l-8.16 11.6zm16.9 2.05 2.68-3.81a8.57 8.57 0 0 0 1.89-4.46 3.79 3.79 0 0 0 -1.89-3.12 3.37 3.37 0 0 0 -3.47-.49 10.24 10.24 0 0 0 -3.67 3.58l-2.43 3.46zm5.22 3.67 8.1 5.68 3-4.25a7.74 7.74 0 0 0 1.77-4.74 4.66 4.66 0 0 0 -2.27-3.52q-3.85-2.72-7.73 2.8z"/><path d="m108.09 105.32 9.91 10.61-5.87 5.49-25.86-27.67 8.06-7.55q5.64-5.26 10.27-5.75t8.54 3.71a10.06 10.06 0 0 1 2.72 5.6 12.15 12.15 0 0 1 -1 6.54q15 3.49 19.42 4.44l-6.51 6.09-16.54-4.44zm-4.47-4.78 1.9-1.77a9.94 9.94 0 0 0 3.24-4.77 4.53 4.53 0 0 0 -1.4-4.15 4.19 4.19 0 0 0 -4-1.54 11.26 11.26 0 0 0 -5 3.09l-1.78 1.67z"/><path d="m163 60.48q4.78 8.1 3.34 14.82t-8.94 11.16q-7.5 4.42-14.08 2.44t-11.4-10.12q-4.81-8.15-3.32-14.78t9-11.11q7.53-4.44 14.07-2.46t11.33 10.05zm-23.8 14.06q3.23 5.46 6.94 7t7.83-.9q8.28-4.89 1.79-15.89t-14.76-6.15c-2.75 1.62-4.28 3.78-4.58 6.45s.63 5.84 2.78 9.49z"/><path d="m203.58 54.65a9.8 9.8 0 0 1 -.91 8.85q-2.56 4-8.79 6.08a24.16 24.16 0 0 1 -10.88 1.27l-2.39-7.07a45.25 45.25 0 0 0 6.93.21 19.44 19.44 0 0 0 4.82-.89 6.92 6.92 0 0 0 3.52-2.26 3.44 3.44 0 0 0 .38-3.3 3.35 3.35 0 0 0 -1.26-1.68 7.15 7.15 0 0 0 -2.27-1 46.51 46.51 0 0 0 -5.47-.86 23.73 23.73 0 0 1 -5.94-1.3 11.76 11.76 0 0 1 -3.75-2.43 10 10 0 0 1 -2.47-4.09 9.8 9.8 0 0 1 .7-8.58q2.31-3.83 8-5.74a22.28 22.28 0 0 1 5.56-1.14 39.77 39.77 0 0 1 6 .07l-.46 6.75a38.08 38.08 0 0 0 -5.31 0 16 16 0 0 0 -3.85.78 5.17 5.17 0 0 0 -3 2.12 3.51 3.51 0 0 0 -.26 3 3.37 3.37 0 0 0 1.06 1.6 5.48 5.48 0 0 0 2 .95 51.44 51.44 0 0 0 5.68.89c3.89.47 6.74 1.3 8.52 2.49a10 10 0 0 1 3.84 5.28z"/><path d="m294.05 40.86q-.75 9.31-6.47 13.85t-15.74 3.71l-10.69-.88 3.08-37.76 11.86 1q9.24.75 14 6.05t3.96 14.03zm-8.33-.48q1-12.16-9.75-13l-4.27-.38-2 24.59 3.43.28q11.58.94 12.59-11.49z"/><path d="m327.19 69.34-21-6.06 10.53-36.4 21 6.07-1.83 6.32-13.24-3.83-2.32 8 12.33 3.56-1.83 6.32-12.33-3.57-2.71 9.39 13.21 3.86z"/><path d="m401.34 87.49 11.66 9.51-12.48 15.17a43.1 43.1 0 0 1 -6.38-3.08 46.47 46.47 0 0 1 -5.4-3.82q-6.62-5.46-6.91-12.22t5.7-14q5.82-7.08 13.14-7.71t14.5 5.28a28.36 28.36 0 0 1 7.21 8.94l-6.15 3.27a19.11 19.11 0 0 0 -5.35-7.08 10.62 10.62 0 0 0 -8.67-2.6q-4.64.7-8.39 5.27-3.93 4.77-4 8.88a8.76 8.76 0 0 0 3.61 7.18 26 26 0 0 0 4.27 2.85l5-6.11-5.55-4.56z"/><path d="m409.84 125 28.69-24.74 5.25 6.08-28.69 24.66z"/><path d="m450.84 144.79 7.78 12.87-16.82 10.15a42.81 42.81 0 0 1 -5-5 45.89 45.89 0 0 1 -3.82-5.4q-4.44-7.35-2.46-13.82t10.05-11.36q7.86-4.74 15-2.9t11.92 9.8a28.24 28.24 0 0 1 3.79 10.87l-6.88 1a19.07 19.07 0 0 0 -2.69-8.47 10.63 10.63 0 0 0 -7.31-5.33q-4.62-.87-9.67 2.18-5.28 3.19-6.76 7a8.73 8.73 0 0 0 1 8 26.38 26.38 0 0 0 3.09 4.1l6.76-4.09-3.71-6.15z"/><path d="m454.1 204.4 7.66-5.5-4.44-13.09-9.42.3-2.78-8.2 40.32.45 3.16 9.3-31.72 24.93zm13.42-9.48q10.39-7.54 11.76-8.52c.91-.65 1.64-1.13 2.18-1.46q-3.42.26-17.11.63z"/><path d="m462.31 256.65-1-10.16 26.9-19.23v-.24q-7.5 1.24-10.73 1.56l-17.74 1.77-.74-7.15 37.71-3.74 1 10.08-26.62 19.19v.18q7.32-1.12 10.36-1.42l17.84-1.78.72 7.2z"/><path d="m459.89 286.84.91-8 31 3.53 1.2-10.22 6.65.76-3.23 28.43-6.65-.76 1.16-10.22z"/><path d="m449.06 331 9.43.13 4.21-13.16-7.76-5.36 2.63-8.25 32.17 24.33-3 9.35-40.32 1.21zm16.43.36q12.84.09 14.51.13c1.12 0 2 .06 2.63.12q-2.89-1.83-14.13-9.66z"/><path d="m439.74 373.7a9.77 9.77 0 0 1 -5.3-7.14q-.81-4.65 2.37-10.42a24.16 24.16 0 0 1 7.17-8.3l6.54 3.6a44 44 0 0 0 -5.25 4.52 19.33 19.33 0 0 0 -2.95 3.92 6.89 6.89 0 0 0 -1.07 4 3.43 3.43 0 0 0 1.95 2.69 3.34 3.34 0 0 0 2 .41 7 7 0 0 0 2.34-.79 47.18 47.18 0 0 0 4.62-3.07 23.28 23.28 0 0 1 5.26-3.05 11.67 11.67 0 0 1 4.4-.74 10 10 0 0 1 4.59 1.34 9.82 9.82 0 0 1 5.28 6.8q.87 4.37-2 9.64a22.12 22.12 0 0 1 -3.33 4.6 39.86 39.86 0 0 1 -4.43 4l-4.22-5.29a38.5 38.5 0 0 0 3.94-3.55 16.49 16.49 0 0 0 2.35-3.17 5.19 5.19 0 0 0 .76-3.58 3.51 3.51 0 0 0 -1.84-2.4 3.39 3.39 0 0 0 -1.86-.47 5.59 5.59 0 0 0 -2.1.64 47.79 47.79 0 0 0 -4.78 3.18c-3.2 2.28-5.85 3.59-8 3.92a9.94 9.94 0 0 1 -6.44-1.29z"/></g></svg>