<?xml version="1.0" encoding="utf-8"?>
<!-- Generator: Adobe Illustrator 23.0.3, SVG Export Plug-In . SVG Version: 6.00 Build 0)  -->
<svg version="1.1" id="Capa_1" xmlns="http://www.w3.org/2000/svg" xmlns:xlink="http://www.w3.org/1999/xlink" x="0px" y="0px"
	 viewBox="0 0 14 16" style="enable-background:new 0 0 14 16;" xml:space="preserve">
<style type="text/css">
	.st0{fill:#fff;fill-rule:evenodd;clip-rule:evenodd;}
</style>
<path class="st0" d="M0,4v8c0,0.6,0.4,1,1,1h12c0.6,0,1-0.4,1-1V4c0-0.5-0.4-1-1-1H1C0.4,3,0,3.5,0,4z M13,4L7,9L1,4H13z M1,5.5l4,3
	l-4,3V5.5z M2,12l3.5-3L7,10.5L8.5,9l3.5,3H2z M13,11.5l-4-3l4-3V11.5z"/>
</svg>
