<svg viewBox="0 0 30.34 24.51" xmlns="http://www.w3.org/2000/svg"><g fill="#333"><path d="m27.05 11.29h-6.05v-4.67a2 2 0 0 1 .6-1.56c1.12-1.06 3.58-1.2 4.4-1.16a1.95 1.95 0 0 0 .17-3.9c-.48 0-4.7-.18-7.23 2.22a5.85 5.85 0 0 0 -1.83 4.39v14.6a3.29 3.29 0 0 0 3.29 3.29h6.65a3.29 3.29 0 0 0 3.29-3.29v-6.63a3.29 3.29 0 0 0 -3.29-3.29z"/><path d="m9.93 11.29h-6v-4.67a2 2 0 0 1 .6-1.56c1.08-1.06 3.54-1.2 4.31-1.16a1.95 1.95 0 1 0 .21-3.9c-.47 0-4.69-.17-7.23 2.23a5.88 5.88 0 0 0 -1.82 4.39v14.6a3.29 3.29 0 0 0 3.29 3.29h6.64a3.29 3.29 0 0 0 3.29-3.29v-6.64a3.29 3.29 0 0 0 -3.29-3.29z"/></g></svg>