<?xml version="1.0" encoding="utf-8"?>
<!-- Generator: Adobe Illustrator 25.0.1, SVG Export Plug-In . SVG Version: 6.00 Build 0)  -->
<svg version="1.1" id="Capa_1" xmlns="http://www.w3.org/2000/svg" xmlns:xlink="http://www.w3.org/1999/xlink" x="0px" y="0px"
	 viewBox="0 0 16 16" style="enable-background:new 0 0 16 16;" xml:space="preserve">
<style type="text/css">
	.st0{fill:#FFFFFF;}
	.st1{fill:#FCFAFA;}
</style>
<path class="st0" d="M13.5,0.2h-11c-1.3,0-2.3,1-2.3,2.3v11c0,1.3,1,2.3,2.3,2.3h11c1.3,0,2.3-1,2.3-2.3v-11
	C15.8,1.3,14.7,0.2,13.5,0.2z M8,12.1c-2.3,0-4.1-1.8-4.1-4.1S5.8,3.9,8,3.9s4.1,1.8,4.1,4.1S10.3,12.1,8,12.1z M12.6,4.8
	c-0.8,0-1.4-0.6-1.4-1.4s0.6-1.4,1.4-1.4c0.8,0,1.4,0.6,1.4,1.4S13.3,4.8,12.6,4.8z"/>
<path class="st1" d="M12.6,3c-0.3,0-0.5,0.2-0.5,0.5s0.2,0.5,0.5,0.5c0.3,0,0.5-0.2,0.5-0.5S12.8,3,12.6,3z"/>
<path class="st0" d="M8,4.8C6.3,4.8,4.8,6.2,4.8,8s1.4,3.2,3.2,3.2s3.2-1.4,3.2-3.2S9.8,4.8,8,4.8z"/>
</svg>
