<svg enable-background="new 0 0 16 16" viewBox="0 0 16 16" xmlns="http://www.w3.org/2000/svg"><path clip-rule="evenodd" d="m8 0c-4.4 0-8 3.6-8 8 0 3.5 2.3 6.5 5.5 7.6.4.1.5-.2.5-.4s0-.8 0-1.5c-2 .4-2.5-.5-2.7-.9-.1-.2-.5-.9-.8-1.1-.3-.1-.7-.5 0-.5.6 0 1.1.6 1.2.8.7 1.2 1.9.9 2.3.7.1-.5.3-.9.5-1.1-1.8-.2-3.6-.9-3.6-3.9 0-.9.3-1.6.8-2.2-.1-.2-.4-1 .1-2.1 0 0 .7-.2 2.2.8.7-.2 1.3-.3 2-.3s1.4.1 2 .2c1.5-1 2.2-.8 2.2-.8.4 1.1.2 1.9.1 2.1.5.6.8 1.3.8 2.2 0 3.1-1.9 3.8-3.6 4 .3.2.5.7.5 1.4v2.2c0 .2.1.5.6.4 3.2-1.1 5.4-4.2 5.4-7.6 0-4.4-3.6-8-8-8z" fill="#fff" fill-rule="evenodd"/></svg>