<svg xmlns="http://www.w3.org/2000/svg" viewBox="0 0 31.4 79.5"><defs><style>.cls-1{fill:#fff;}</style></defs><g id="Capa_2" data-name="Capa 2"><g id="Capa_1-2" data-name="Capa 1"><path class="cls-1" d="M15.65,79.5a1.47,1.47,0,0,1-.73-.19L4.23,73.37a1.51,1.51,0,0,1-.58-2,1.49,1.49,0,0,1,2-.58l10,5.53,10.06-5.59a1.5,1.5,0,1,1,1.46,2.62l-10.79,6A1.47,1.47,0,0,1,15.65,79.5Z"/><path class="cls-1" d="M15.7,0A15.71,15.71,0,0,0,0,15.7v22a15.7,15.7,0,0,0,31.4,0v-22A15.71,15.71,0,0,0,15.7,0ZM28.4,15.7v4.7H17.2V18.34a4.88,4.88,0,0,0,3.4-4.64V10.1a4.88,4.88,0,0,0-3.4-4.64V3.1A12.71,12.71,0,0,1,28.4,15.7ZM15.7,8.2a1.9,1.9,0,0,1,1.9,1.9v3.6a1.9,1.9,0,0,1-3.8,0V10.1A1.9,1.9,0,0,1,15.7,8.2ZM14.2,3.1V5.46a4.88,4.88,0,0,0-3.4,4.64v3.6a4.88,4.88,0,0,0,3.4,4.64V20.4H3V15.7A12.71,12.71,0,0,1,14.2,3.1Zm1.5,47.3A12.72,12.72,0,0,1,3,37.7V23.4H28.4V37.7A12.72,12.72,0,0,1,15.7,50.4Z"/></g></g></svg>