<?xml version="1.0" encoding="utf-8"?>
<!-- Generator: Adobe Illustrator 23.0.3, SVG Export Plug-In . SVG Version: 6.00 Build 0)  -->
<svg version="1.1" id="Capa_1" xmlns="http://www.w3.org/2000/svg" xmlns:xlink="http://www.w3.org/1999/xlink" x="0px" y="0px"
	 viewBox="0 0 150 123.9" style="enable-background:new 0 0 150 123.9;" xml:space="preserve">
<style type="text/css">
	.st0{fill-rule:evenodd;clip-rule:evenodd;fill:#FFFFFF;}
</style>
<title>ico-twitter</title>
<path class="st0" d="M150,16.9v1c-4,5.2-7.9,10.6-12.1,15.6c-3.7,4.5-5,9.4-4.8,15.2c1.1,38.8-19.4,65.2-56.5,72.7
	c-4.8,1-9.7,1.6-14.5,2.4H50c-1.7-0.4-3.4-0.8-5.2-1c-16-1-30.2-7.2-44.3-15.8l34.1-12c-9.3-5.2-14.4-11.9-17.4-20.4
	c-1.7-4.9-4.6-9.4-6-14.4c-1.5-6-2.6-12.1-3.3-18.3c-0.1-1,1.4-2.2,2.5-3.8C5.7,25,7.1,13.4,15.4,3c13.5,17.2,30.2,29,51.8,31.8
	c1.2-5.6,1.4-10.9,3.4-15.5C78.3,1,103.4-5.1,120.3,6.8c2.5,1.8,4.5,2.2,7.3,1.1c5.5-2.2,11.1-4,17.5-6.3
	c-1.8,5.6-3.4,10.4-5.2,15.8L150,16.9z"/>
</svg>
