<svg xmlns="http://www.w3.org/2000/svg" viewBox="0 0 447.86 190.11"><g id="Capa_2" data-name="Capa 2"><g id="Capa_4" data-name="Capa 4" fill="#ffffff"><path d="M32.55,62c-1.2-10.3-1.77-22.59-7.15-31.75-2.11-3.6-4-5.3-7.48-4.74a5.1,5.1,0,0,0-2.68,1.41c-3.33,3.23-5,10.85-6.29,15.16-2.89,10-4.46,20.67-5.73,31.16A9.22,9.22,0,0,0,1.45,74c-2.56,1.5-1.43,5,1,5.51-.1.81-.19,1.63-.28,2.43a129.72,129.72,0,0,0-.33,22.47c.37,6.26.25,13.68,3,19.44a1.49,1.49,0,0,0,2.7-.36c1.32-4.93.31-10.3-.08-15.33a162.81,162.81,0,0,1-.57-18.74c.11-3,.35-6.14.66-9.23,2.55,1.29,5,3.85,6.61,5.43a30.31,30.31,0,0,1,7,12.25c2.74,8.5,2.93,17.47,3.22,26.31.16,4.69,6.46,6.59,8.93,2.42C35,124,35,120.4,35.21,117.41a148.7,148.7,0,0,0,.2-14.93C35.11,89,34.12,75.43,32.55,62ZM16.23,28.9a11.39,11.39,0,0,1,.44,1.65l-.07,0C16.4,30.35,15.74,27.75,16.23,28.9ZM14.66,76.83a23.06,23.06,0,0,0-6.25-3.56c.8-5.84,1.8-11.67,2.8-17.34a113.22,113.22,0,0,1,3.33-14.07c.85-2.72,2-5.26,3-7.89.1.43.19.88.27,1.31a425.76,425.76,0,0,1,6.3,50.65A41.86,41.86,0,0,0,14.66,76.83ZM25,122v0S25,122,25,122Z"/><path d="M154,107.23c-1.94,2.06-6.51,7.8-9.79,5.62-2.81-1.87-3.87-7.25-4.52-10.23-.07-.37-.13-.76-.2-1.13a15.58,15.58,0,0,0,5.71.84c11.11-.57,15.17-13.34,14.36-22.7-.78-9.12-8.41-23.79-19.45-16.21-9.08,6.23-11.3,21.73-11.3,31.89,0,.59,0,1.22,0,1.87-.77,2.8-1.9,7.93-3,10.53-4.26-11-2.76-24.86-1.85-36.32.13-.07.25-.15.4-.22,1-.44,2.18-.5,3.21-1,2.66-1.21,4.15-3.39,5.53-5.88a83.66,83.66,0,0,0,4.56-10.07c4.11-10.43,7.56-21.42,9-32.57.86-6.58,1.64-17.81-6.61-20.19s-12.44,5.37-15,11.8c-4.49,11.07-6.54,22.88-8.3,34.63a313.66,313.66,0,0,0-3.59,34.73c0,.55,0,1.1,0,1.65-1.08,2.64-2.24,5.24-3.49,7.84a47.8,47.8,0,0,1-9.16,13.6c-2.6,2.57-7.07,7.27-11.28,6.84-5.87-.6-6.13-10.19-6-16.77a27,27,0,0,0,4.45,1.86c16.64,4.53,16.07-26.76,7-34.09a9.35,9.35,0,0,0-8.06-1.52c-4.17.95-6,3.07-7.72,6.73a52.58,52.58,0,0,0-5.1,20.61c-2.29,2.68-3.24,7.1-4,10.45-.66,3.15-1.14,6.37-2.55,9.25a15,15,0,0,0-.64-3.3c-.63-4-1-8-1.33-12-.56-7.85-.58-15.71-.36-23.58A63.48,63.48,0,0,0,77.78,34.21c.35-10.63,3.69-24.63-4-33.4A2.76,2.76,0,0,0,71.06.1c-4.42,1.2-6.74,5.44-8.21,9.46-2.16,5.91-3.28,12.62-4.28,18.83A313.58,313.58,0,0,0,54.86,64.9C47.67,64.56,42.55,77.5,41,82.59a47.4,47.4,0,0,0-.22,24.63c1.73,7.25,7.45,16.8,16.25,11.88a8.67,8.67,0,0,0,2.4-2c3.19,4.15,8.92,5,13.77.78a11.27,11.27,0,0,0,3.22-4.65,18.13,18.13,0,0,0,2.3,3.7A13.77,13.77,0,0,0,95.25,121c7.68-3.27,13.54-11.7,17.47-18.75.39-.71.76-1.43,1.12-2.15.73,7.31,2.65,18.25,9.51,19.12,4.27.54,7.35-1.58,9.42-4.67,2.47,5.13,6.3,9,12.06,9,7.19,0,11.75-6.29,14.79-12C161.48,108.09,156.87,104.15,154,107.23Zm-86.5-81C67.39,22.12,66.7,9.89,71,6.32c2.82,4.65,2.13,11,1.76,16.21-.51,6.9-.33,13.87-1.9,20.64a56.87,56.87,0,0,1-5.37,14.19q.18-3.77.38-7.53C66.24,41.91,67.67,34.21,67.49,26.21ZM52,108.09c-.09-.21-.18-.4-.25-.55A37.79,37.79,0,0,1,49.3,96c-.35-4.53.21-6.48.63-11,.2-2.13,1.71-12.26,4.7-13.49q-.09,3.49-.1,7c0,5.42.09,10.93.46,16.42a60.83,60.83,0,0,1-1.8,9.88C53,105.52,52.39,106.9,52,108.09ZM88.19,70.24c2.69-1.44,3.5,1.38,4.47,3.46A15.9,15.9,0,0,1,94.15,84c-.37,1.94-1.33,6.73-3.71,7.18-2,.38-4.71-1.44-7.21-2.77a34.22,34.22,0,0,1,2.36-13.79C86.37,72.78,86.65,71.07,88.19,70.24ZM129.7,28.35c1-5.65,2-11.66,4.22-17a13.89,13.89,0,0,1,2.21-3.61c-.06.07,1.56-.61,0,0a4.89,4.89,0,0,1,1.29-.39c.82,0,1.51-.33,2.32.1,3.35,1.77,2.22,9.61,1.93,12.51a104.8,104.8,0,0,1-4.09,18.92,157,157,0,0,1-6.24,17.63c-.74,1.73-1.54,3.43-2.43,5.08-.75,1.37-1.52,3-2.9,3.82a6,6,0,0,1-1.47.59C125.7,53.35,127.57,40.89,129.7,28.35Zm11.2,48c.84-2.51,3.08-8.58,6.69-6.69,3.07,1.61,4.07,7,4.31,10,.49,6-1.65,16.74-9.88,14.14-1.17-.37-2.32-.81-3.43-1.17A50.63,50.63,0,0,1,140.9,76.32Z"/><path d="M232.38,125.07c-.92-7.52-2.39-15-3.75-22.39-.44-2.38-.81-4.77-1.19-7.16,1.27-12.42-.8-26.35-13.27-23.48-5,1.17-3.35,7.91,1.13,8.4h.25a54.79,54.79,0,0,1,2.74,12,41.24,41.24,0,0,1-3,12.74c-1.29,3-4.18,5.91-7.07,6.36-.46.07-.24.09-.67-.64a18.08,18.08,0,0,1-1.85-5.57c-3.62-18.57,2-39.89,8.88-57.1,1.48-3.72,4-12.19,8-14.06,1.79-.84,2.78.45,4,1.9a21.56,21.56,0,0,1,4.62,17.59,1.82,1.82,0,0,0,3.5,1c3.17-8.33,1-21-6.71-26.47-5.47-3.83-11.3-.53-15.13,3.93-8.9,10.35-12.23,25-15.51,38-3.16,12.5-4.68,28.71-.8,41.17,1.73,5.54,5.52,10.84,11.94,10.66,4.57-.13,9.3-3,12.51-6.66q.5,3.67.92,7.37c-22.07-2.63-46.2,10.62-50.66,35a27.7,27.7,0,0,0,32.52,32.1c20.35-3.75,27.89-26.33,29.29-44.29a85,85,0,0,0,.14-10.82,30.88,30.88,0,0,1,9,7.11,3.73,3.73,0,0,0,2.07,3l1.09.6c3.43,1.88,8.37-2.16,5.77-5.78A40.55,40.55,0,0,0,232.38,125.07Zm-9.49,10.83c.3,14.21-1.77,33.69-15.59,41.58-12.4,7.08-27.93-2.82-26.8-16.9,1-12.67,10.93-24.1,22.72-28.19a38.9,38.9,0,0,1,19.45-1.48C222.77,132.57,222.86,134.24,222.89,135.9Z"/><path d="M446,67.48a.86.86,0,0,0-1.41-.37c-.64.68-1.18,1.16-1.65,1.62a6.84,6.84,0,0,0-2-2.19c-7.37-4.87-16.25,3.58-19.49,9.68-2.65,5-7.24,17.32-7.41,27.29a4.55,4.55,0,0,0-.42,1.29,13.83,13.83,0,0,1-1.25,4.07c-.06-1.86-.19-4.24-.14-4.68.42-4,1-8,1.58-12,2.22-14.3,5-28.43,6.79-42.8.55-4.38-6.18-4.87-7.41-1-1.44,4.49-5.85,8-10.5,9.35-.86-5.5-2.86-13-9.14-13.83-7.82-1.09-8.87,9.58-6.31,14.63a12.19,12.19,0,0,0,10.36,7.1c-.19,8.24-2.54,16.79-5.42,23.82-2.12,5.15-4.73,10.62-8.66,14.65a16.21,16.21,0,0,1-4.73,3.39c-3.26,1.58-.4,0-.36.07.4.33-1.11-1.24-1.2-1.41-.41-.72-1-1.37-1.43-2.21a30.27,30.27,0,0,1-2.4-7.53c.27,0,.54.1.82.12,4.27.36,7.18-1.52,10.17-4.41,5.39-5.19,7.22-12.5,4-19.5-2.59-5.62-8.06-7.74-13.72-5.18-4.69,2.12-7.34,6.63-9.09,11.27a34.83,34.83,0,0,0-1.75,6.9,16.14,16.14,0,0,0-2.32-.25c-.22-4.52-.9-9.15-3.18-13S351,65.07,346.52,68c-3.37,2.17-5.89,5.89-7.58,9.89-.05-1.24-.07-2.48-.1-3.72.1-1,.19-2,.28-3,6.87-3.5,9.39-12.44,10.51-19.59a84.53,84.53,0,0,0-1.56-33c-1.22-4.9-5.57-21-13.41-12.76-3.23,3.4-2.92,9.32-3,13.68-.2,8.3-1,16.58-1.75,24.84a299.31,299.31,0,0,0-.45,42.86c-.77,2.58-1.62,5.15-2.56,7.68-2.12,5.73-4.63,12.19-9.05,16.58a45.86,45.86,0,0,1-2.81-8.31,144.37,144.37,0,0,1-2.88-20.94c.09-1.37.16-2.74.2-4.11,0-.74-.31-3.72-.26-5.19,3.77-2.17,5.58-7.24,6.74-11.26,2.15-7.44,3-15.54,3.43-23.24s.35-15.65-1.42-23.16c-1.13-4.77-3.13-10.2-8.15-12a2.47,2.47,0,0,0-2.48.66c-4.81,5.64-5.07,12.59-5.82,19.66-1,9.8-1.44,19.74-2.06,29.59-.28,4.38-.48,8.83-.56,13.29a11,11,0,0,0-6.44.18c-5,1.79-9.18,6.94-10.83,11.87a30.89,30.89,0,0,0-1.22,11.26c-.75,4.17-.82,8.55-1.49,12.68-.31,1.89-.52,3.8-.92,5.68-.09.4-.67,1.82-1,2.77-2.82-4.91-3.27-9.63-4-15.23-1-7.61-1.51-15.25-1.86-22.91,4-9,6.06-19.24,7.58-28.66a150.54,150.54,0,0,0,2.21-19.74c.12-4,.16-10.43-4-12.63-5.18-2.73-10.73,4.29-12.47,8.4-3,7-2.59,16.19-3.14,23.69a263.29,263.29,0,0,0-.13,35.42c-.27.32-.54.64-.83.94a13,13,0,0,1-1.74,1.54c-.07-1.18-.17-2.35-.31-3.53-.73-5.93-2-13.77-8.76-15.3-7-1.57-10.25,3.1-10.88,8.71-6.13,7-8.76,20.62-8.48,27.7.31,7.92,3.83,18.4,13,19.48,9.73,1.14,12.73-8.2,14-15.82a107.8,107.8,0,0,0,1.51-14.73,15.18,15.18,0,0,0,3-1.82c.05.54.09,1.08.14,1.62.87,9.17.82,20.3,6.29,28.18,4.31,6.2,12.16,7.83,16,.28v0a11.66,11.66,0,0,0,1.4,1.92c3.19,3.45,8,5.36,12.39,2.92,3.3-1.83,5.17-5.37,6.41-8.86,2.22,5.46,6.1,10.68,12.47,8.81,5.63-1.65,9-8,11.2-13.65.13,1.49.26,3,.4,4.47-1.83,3.15-.43,8.16,4.26,8l1.21,0a5.94,5.94,0,0,0,2.55-.74,29.86,29.86,0,0,0,2.91,3.17c5.47,5.15,12.84,4.56,15.81-2.78,1.75-4.33,2-9.75,2.52-14.38.52-4.23.89-8.48,1-12.74a7,7,0,0,1,1.45.23c.1,0,.2.06.3.09.11,7,1.85,14,5.59,19,2,2.61,4,5.41,7.45,6s6.75-1.09,9.47-3c5-3.46,8.62-8.81,11-14.31A82.17,82.17,0,0,0,403.41,65a25.88,25.88,0,0,0,6.55-2.8c-1.47,6.26-2.89,12.52-4.07,18.86-1,5.35-1.89,10.71-2.63,16.09-.66,4.8-1.82,10-.91,14.82,1,5.46,5.47,10,11.38,8.31a10.7,10.7,0,0,0,5.52-3.89,10.55,10.55,0,0,0,4.1,1.34,12,12,0,0,0,7.36-1.23,71.94,71.94,0,0,1-3.47,8.72c-4.38,9.11-10.56,16.09-19.88,20.22-6.82,3-13.59,5.5-21.15,5.35-7.78-.15-14.88-4.16-22.61-3.84a3.61,3.61,0,0,0-2.52,6.08c5.52,5.8,14.35,7.45,22.05,8.14a50.51,50.51,0,0,0,23.56-4c11.76-4.81,21.08-11.34,27.52-22.54,6-10.47,9.07-22.67,11-34.51,1-6,1.7-12.09,2.29-18.16a65.75,65.75,0,0,0,.37-7.94C447.8,71.08,447,70,446,67.48Zm-191.87,5a29.87,29.87,0,0,1,.83,7.64c0,1.21,0,2.42-.06,3.63a9.44,9.44,0,0,1-7.51-5.16A15.25,15.25,0,0,1,254.1,72.46Zm-4,34.62c-2.87,3.75-5.32-.61-6.12-3.47a35.88,35.88,0,0,1,.77-19.27,13.75,13.75,0,0,0,9.72,5,85.44,85.44,0,0,1-1.85,10.42C252,102.17,251.59,105.1,250.07,107.08Zm24-64.15c.16-5.72-.62-11.33-.55-17,0-2.41,0-5.43,1-7.66,1.14-2.52,3.43-4.5,5-1.66,1.87,3.32,1.14,8.8.73,12.41-.93,8.09-3.21,16.25-5.41,24.08-.36,1.26-.71,2.57-1.07,3.89C273.79,52.29,273.9,47.61,274,42.93Zm44-15.32c.3,9.71-.62,19.58-3.68,28.82a37.45,37.45,0,0,1-2.6,6.08c0-1.18.07-2.35.12-3.52.38-9.57,1.33-19.17.7-28.74-.43-6.5-2-14.92.62-21.21C317.82,12.27,317.91,23.39,318,27.61Zm-17.7,73.66a55.37,55.37,0,0,1-1.88,6.45,36.56,36.56,0,0,1-2.13,3.77.53.53,0,0,1-.19-.29c-.44-2.79-1.28-5.36-1.56-8.22-.42-4.33-.87-8.67-1.22-13-.29-3.57-.4-7.36.83-10.79a9.36,9.36,0,0,1,3.28-4.53,13.68,13.68,0,0,1,4.26-1.37,175.34,175.34,0,0,0,1,17.61C302,94.36,301.23,97.8,300.34,101.27Zm17.13,10.51c-.17.07-.17,0,0,0Zm25.6-94.17c2.49,8.44,2.89,17.83,2.26,26.56C344.92,50,344,60,338.8,64.36c.36-14.57,3.29-29.51,1.93-44-.16-1.79-.46-3.58-.56-5.38a25.37,25.37,0,0,1,.29-3.17c.18.27.36.54.51.81A24.88,24.88,0,0,1,343.07,17.61Zm-2.86,78.75-.27-3.28a61,61,0,0,1,1-6.17c.61-2.79,5.45-16.28,9.08-10.7,1.77,2.72,1.93,7.21,1.76,11.27A32.37,32.37,0,0,0,340.21,96.36Zm9.48,12.91c-.14,1-.27,1.9-.42,2.85-.07.41-.5,1.72-.64,2.56-2.87-2.59-6.32-4.16-4.91-8.89.92-3.07,3.89-6.63,7.48-9.3C350.86,100.77,350.34,105,349.69,109.27Zm25.39-32.82c.74-1.48,1.73-2.93,3.45-3.29,3.73-.76,4.74,4.22,4.6,7.06-.18,3.33-3.06,7.8-6.35,9a6.34,6.34,0,0,1-4.11-.15C372.61,84.43,373.35,79.87,375.08,76.45Zm17.84-21c-.91-1.18-3-6.13.4-6,1.46.07,2.52,3.41,2.89,4.61a30.43,30.43,0,0,1,.9,3.94A7.08,7.08,0,0,1,392.92,55.47Zm17.59,55.47s.08,0,.21-.08C410.61,110.94,410.52,111,410.51,110.94Zm1.84.23a.89.89,0,0,0,0-.35C412.5,110.89,412.51,111,412.35,111.17Zm14.27-4.87c-.76.54-1.85.61-1.69,1-1.61-2.4.78-11.8,1.44-14.44,1.2-4.82,2.48-10.3,5.36-14.44,1-1.48,4.41-5.7,6.53-4.73a3,3,0,0,1,1.4,1.76c-.33,1.18-.62,2.37-.88,3.57-.65,3-1.19,6-1.72,9.08a4.32,4.32,0,0,0-3.41,2.71c-1.37,3.67-2.2,7.66-3.84,11.19A10.68,10.68,0,0,1,426.62,106.3Z"/></g></g></svg>