<svg xmlns="http://www.w3.org/2000/svg" viewBox="0 0 568.11 154.34"><g id="Capa_2" data-name="Capa 2"><g id="Capa_6" data-name="Capa 6" fill="#ffffff"><path d="M66.43,74.16c.5-.36,1-.74,1.49-1.13,8-6.5,10.27-16.58,4.92-25.57-6-10.07-17.63-14.3-29-13.28A3.71,3.71,0,0,0,41.68,34l-.32.07a2.71,2.71,0,0,0-1.27.66c-9.52,1.85-19.56,7.49-23,16.68-.64,1.67,1.74,2.85,2.9,1.69,5.16-5.22,10.37-9.48,17.11-11.62-1.59,5.39-2,11.6-2.83,16.68-1.39,8.07-2.8,16.15-4.31,24.2s-3,16.1-4.68,24.12c-1.5,7.14-4.48,15-4.55,22.35-1.08,4.24,5.7,7.68,8.31,3.15,3.8-6.6,4.65-15.36,6.21-22.75C37,100.9,38.58,92.54,40,84.15c.19-1.1.36-2.2.54-3.3a41.17,41.17,0,0,0,17.74-2.37,22.65,22.65,0,0,1,13.39,7c7,7.75,6.66,19.1,3.11,28.34-4.33,11.26-13.27,20.67-24.72,24.6-10.48,3.61-24.12,4.65-33.62-2.14-4.65-3.33-7.69-8.13-6.47-13.87.62-2.92,4.17-14.06,8.7-12.13,3.05,1.29,7.1-2.53,3.95-5.12-13.42-11-24.62,13-22.3,24,3.42,16.22,22.56,22.48,37.06,21.47,17-1.19,32-9.2,40.93-23.85C85.56,114.87,88.44,99,81.08,86.44A28.05,28.05,0,0,0,66.43,74.16Zm.37-24.74c7.36,11-.22,18.78-10.3,22.51a54.91,54.91,0,0,0-14.63.72q1-6.39,2-12.8c.93-6.06,2.94-13.38,2.5-19.83C54.27,39.91,62.28,42.63,66.8,49.42Z"/><path d="M259.54,123.17v.07s0-.07,0-.07Z"/><path d="M317.52,114.93a86,86,0,0,1-6.32,5.92l0-.07a53.27,53.27,0,0,1-.36-8.09c.07-6,.66-12,1.32-17.92.48-4.4,2.06-9.49,1.53-13.88-.41-3.4-5.81-5.08-6.79-1.31a20.77,20.77,0,0,0-2.24,5.22,13.3,13.3,0,0,0-6.88-8.64C289.71,72.09,281.51,81.76,278,88a51.2,51.2,0,0,0-5.1,13.06,3.72,3.72,0,0,0-1.37,1c-3.65,4.14-6.7,8.72-10.24,13-.39.47-.79.93-1.2,1.39,2.14-13.65,7.26-28.25,11.52-41.68,2.09-6.59,3.74-13.29,5.78-19.89,1.36-4.41-4.69-6.44-7.09-3-3.31,4.77-9.14,11.66-15.18,14.49-.62-5.68-2.82-13.53-8.19-14.45-6.47-1.11-5.89,8.32-5.38,12.07.6,4.36,2.54,8.74,7.17,9.93l.21,0a47,47,0,0,1-1.05,5.15c-1.76,6.82-4.3,13.56-6.52,20.25a84.31,84.31,0,0,1-4.28,10.85c-.7,1.39-1.46,2.76-2.28,4.08-.41.67-.85,1.32-1.3,2,0-.39,0-.78,0-1.15.13-2.88.7-5.79,1.07-8.64,1.14-8.89,2.06-17.8,3.1-26.7.44-3.86-5.83-5.51-7.41-2l-.39.87a10.61,10.61,0,0,0-3.26-2.41c-6.67-3.24-13,.33-16.36,6.22a62.5,62.5,0,0,0-5.49,12.65,16.44,16.44,0,0,0-2.7-.4c0-.2,0-.4.07-.59.66-5.57,2.91-13.5-1.81-18-4-3.82-9.2-.86-12.58,2.19a49.4,49.4,0,0,0-9.49,12c.13-1.63.27-3.27.42-4.9q4.78-10.25,8.88-20.87c5.1-13.18,9.66-27.32,9.4-41.62a51.25,51.25,0,0,0-3.75-18.17c-.86-2.18-1.4-4.22-4-4.64s-4.61,1.08-6,3c-2.16,3-2.42,7.2-3.12,10.73q-1.51,7.68-2.92,15.37c-1.75,9.63-3.15,19.32-4.47,29q-3.06,22.37-5.09,44.84c-2.71,3.46-6.32,6.2-9.4,9.43q-1.51,1.59-3.09,3.14A288.28,288.28,0,0,1,165.83,64c1.24-4-4.46-6.18-6.63-2.8-1.08,1.69-4.86,7.56-8.68,10.74a17.19,17.19,0,0,0,.74-6.89c-.6-4.49-4.65-8.28-9.24-6.2-6.22,2.82-6.42,12.65-3.27,17.75a10.64,10.64,0,0,0,3.74,3.83c-2.13,6.24-4.28,12.47-6.62,18.63-2.18,5.75-4,12.37-7.24,17.71.31-3.87.69-7.74,1-11.62.72-8.83,1.52-17.71,2.51-26.51.31-2.7-3.34-3.68-5-2.09a29.76,29.76,0,0,0-5.46,7.39c-.53-5.44-3-10.29-9-10.3-12.56,0-18,21.25-19.85,30.64-1.49,7.36-4.33,32.81,9.94,29.36,8.21-2,11.75-14.83,14.32-21.7,1.29-3.45,2.52-6.91,3.78-10.37-.43,2.45-.82,4.91-1.15,7.4-.8,6-4.32,20.83,6,20.83,6.81,0,9.61-6.81,11.33-12.25,3-9.3,5.54-18.72,8.36-28.07q1.25-4.17,2.48-8.36a15.88,15.88,0,0,0,5.8-2.9c-5.12,15.86-9.77,32.13-8.45,48.77.26,3.4,4.94,6.41,7.58,3.14,3.44-4.25,6.76-8.6,9.86-13.1a72.24,72.24,0,0,0,4.53-8.17q-.68,8-1.21,15.94c-.27,4.05,3.89,5.56,6.92,4.47,3,4.31,9,7.59,13.63,5.49,11.34-5.1,13.61-20.67,14.9-33.11a11,11,0,0,1,1.71.18c-1.81,9.2-1.55,18.82,2,26.8,1.09,2.44,5,3.36,7.15,1.87,6.92-4.82,9.4-14.22,12.64-21.62l.54-1.2c-.17,1.11-.35,2.22-.51,3.33-.72,4.73-1.44,10.93,2.14,14.79,11.66,12.58,21.37-24.55,23.06-30.58,2-7,4.27-14.1,5-21.39a25,25,0,0,0,8.14-4.15c-3.61,9.61-7,19.59-9.71,29.4-1.5,5.44-11.18,37.59,5,32.17,3.53-1.19,6.07-4.61,8.24-7.45,1.85-2.43,3.64-5,5.31-7.55,0,.27.07.54.11.81,1.53,9.09,9.72,19.2,19.45,12.29,4.74-3.36,7-9.85,8.91-15.56-.05,1.69-.05,3.37,0,5,.21,5.2,1.26,12.67,7.36,14.14,8.28,2,12.56-7.92,15.09-13.76C324.46,115.82,320.44,111.74,317.52,114.93Zm-217.16,8.4c-.11-.15,0-.14.28-.06C100.34,123.46,100.35,123.32,100.36,123.33Zm5.55-6.65a33,33,0,0,1-3.58,5,22.94,22.94,0,0,1-.37-2.37c-1-10.33,2.42-21.61,7-30.73,1.16-2.3,4-11.09,6.78-6.37,1.54,2.59,1.85,6.76,1.81,10.25l-.49,1.11C113.63,101.37,110.22,109.29,105.91,116.68ZM143.1,64c1.41-1.63,2.76-.93,3.45,1.18.83,2.57-.88,6-1.77,8.41a4.71,4.71,0,0,1-1.95-2.4C142,69.22,141.53,65.85,143.1,64ZM190,85.8c1.23-1.23,2.56-2.18,3.87-3.28a3.75,3.75,0,0,1,1.35-.64c.82,2.1-.86,6.91-1.14,8.52q-.5,2.92-1,5.86c-5.93,2.34-11.47,6.87-15.42,11.46a44.71,44.71,0,0,1,5.14-12.92A52.24,52.24,0,0,1,190,85.8Zm-1.42-78c6.69,14.11,2,32.29-2.67,46.25-1.62,4.88-3.54,9.67-5.52,14.43.14-1.4.29-2.79.44-4.19C181.38,59.15,185.9,16.64,188.56,7.75Zm-5.77,118.58c-7-2.54-3.58-9.62.85-14.58a40.24,40.24,0,0,1,8-6.93C190.41,111.76,189,122,182.79,126.33Zm36.41-25.25c-2.13,4.32-4,9.84-6.86,14.36-.41-6.48,1.23-13.5,2.95-19.16,1-3.25,2.29-8.82,4.8-11.3s5.56-1.11,6,1.8Q222.73,94,219.2,101.08Zm29-34.52c-.83-.85-3.15-7.64-2.09-8.14,1.9-.89,2.91,6.24,3.17,8.93A3.58,3.58,0,0,1,248.17,66.56Zm11.39,56.68c0,.14,0,.45,0,0,0,0,0,0,0,0v0C259.72,123.28,259.63,123.27,259.56,123.24Zm49.63-.6-.16,0c.06-.07.14-.12.19-.08Zm-20.61-5.36c-.75,1.29-2.95,4-3.33,3.85-.95-.25-1.79-2.42-2.1-3.2-1.3-3.3-1.21-7.23-.77-10.69a45.79,45.79,0,0,1,8.69-21.78c2.24-2.86,4-4.47,7-1.4,1.86,1.9,3,5.22,3.3,8.4q-1.83,3.77-3.79,7.48C294.55,105.66,291.83,111.69,288.58,117.28ZM309,122.71l.14,0C308.9,122.93,308.92,122.83,309,122.71Zm3,1Z"/><path d="M417.47,142.4c-4.51,1.69-8.6,3.69-13.54,3.63a30.4,30.4,0,0,1-14.5-4.33,39.22,39.22,0,0,1-8.77-6.91c5-9.06,7.62-20,9.22-29.38,3.83-22.48,3.63-45.39,2.92-68.09-.17-5.5-.52-11-1-16.46-.21-2.45-.5-4.83-.91-7.25-.38-2.22-1.44-4-1.8-6.22-.25-1.62-2.89-1.55-3.21,0-.74,3.69-2.16,6.79-2.47,10.69-.36,4.42-.34,8.87-.4,13.3-.14,10.33.13,20.65-.06,31-.37,20.16-1.09,41.36-8.34,60.42-.45,1.18-.93,2.33-1.46,3.46a16.75,16.75,0,0,0-5-3.5c-6.88-3-13.23,1.74-15,8.41-1.71,6.42.14,14.61,5.42,18.91,1.22,1,2.93,1.85,4.56,1.21a32,32,0,0,0,13.34-10.19,42.84,42.84,0,0,0,3.66,3.31c10.72,8.6,29.36,15.12,40.92,4.24C423.7,146.19,421,141.08,417.47,142.4Zm-55.26-1.67c-2.27-3.24-3.11-9,.09-11,2.49-1.62,5.12.62,7.2,3.06A37.26,37.26,0,0,1,362.21,140.73Z"/><path d="M561.06,111.35c-2.43,2.36-5.61,4.57-7.91,7.12.22-3.28.19-6.26,1-9.55,1.75-6.81,4.6-13.32,6.1-20.2,1.05-4.77,2.81-11.88-2.1-15a3.71,3.71,0,0,0-4.4.57,102.22,102.22,0,0,0-10.3,11.14,88.39,88.39,0,0,0,1.45-9.74c.28-3.2-4.18-3.9-5.68-1.54-1.69,2.64-4.7,4.77-7,6.87a75.72,75.72,0,0,1-8.55,6.83c-.52.35-1.13.76-1.81,1.19.38-4.75.41-10.47-2.7-14.27-3.25-4-9.21-3.63-13.42-1.34-5,2.73-7.74,9-7.84,14.62-4.24,7.17-6.42,16.28-7.55,24.52a3.65,3.65,0,0,0-3.17,1.58,25.52,25.52,0,0,1-5.2,4.34c0-3.9-.49-7.89-.46-11.79,0-4.47.26-8.94.53-13.4.55-8.94,1.4-17.85,2.17-26.77.24-2.74.5-5.54.72-8.35,4,.24,8,.84,11.92,1,6.06.32,12.33.32,17.81-2.64,3.66-2,10-8.25,7.33-13a.65.65,0,0,0-.72-.29c-2.47.78-4.17,3.62-6.48,4.92a15.75,15.75,0,0,1-7.18,1.87c-6.63.41-13.14-.81-19.72-1.47-.82-.08-1.66-.15-2.5-.19a65.78,65.78,0,0,0-.6-9.66c-.46-3.25-5.57-3-6.27,0-.76,3.23-1.34,6.55-1.83,9.89-9.36,1.16-17.59,5.67-18,17.09-.15,4,5.66,5.55,7.56,2,2.36-4.38,4.7-7.79,9.22-9.08-.5,4.86-.95,9.72-1.53,14.48-1.29,10.5-2.46,21-2.74,31.56l-.63.1a22.18,22.18,0,0,0-3.7-7.6,22.61,22.61,0,0,0-16.06-9.39h-.19c.22-.25.44-.49.64-.75,3.07-3.85,3.85-9.69-.88-12.62-8.59-5.31-18.12,5.91-16.92,14.21a10,10,0,0,0,2.42,5.37c-3.92,4.16-7.64,8.53-11.28,12.93-3.9,4.71-7.81,10.66-12.54,14.73a49.33,49.33,0,0,1,.53-6.09c.87-4.57,2.06-9.09,3.33-13.57,1.89-6.65,4.09-13.21,5.93-19.87,1.53-5.56-6.91-7.84-8.6-2.38-.67,1.64-1.47,3.66-2.3,5.85-3.93,8.3-9.86,15.35-13.58,23.81a1.84,1.84,0,0,0,2.87,2.22c1.1-1,2.18-2,3.25-3a68.16,68.16,0,0,0-2.21,13.07c-.35,6.21,2.43,14.06,10.24,12.08,5.17-1.31,8.09-5.77,11-9.86,4.43-6.27,8.47-12.81,12.8-19.15a85.74,85.74,0,0,1,5.88-7.68,17.23,17.23,0,0,0,4.65.54c6.58-.11,12.84,2.58,14.83,9.08a56.46,56.46,0,0,0-16.77,6.8c-5.19,3.26-10.6,8.12-11.37,14.56a10.34,10.34,0,0,0,7.91,11.49c6.63,1.67,13.95-1.93,18.72-6.31,6.19-5.66,11.08-13.12,11.94-20.88l.15,0a34,34,0,0,1,.09,5.78c-.17,1.68-1.06,2.76-1.51,4.52-1.05,4.1,1.69,8,5.5,9.41,4,1.53,7.4-.09,10.28-2.83,1.41-1.34,2.9-2.59,4.31-3.91,2.19,6.63,11.44,6.23,17.3,2.14,6.4-4.47,10.8-12.52,12-20.12.57-3.51,1.16-7,1.67-10.57a51,51,0,0,0,9.26-6.47c1.2-1,2.38-2.21,3.56-3.44-1.49,4.42-2.75,8.94-4,13.3-2.38,8.29-5,16.58-7,25-1.52,6.44,7.9,9,9.89,2.72,2.57-8.07,4.34-16.43,6.44-24.63.46-.85.91-1.69,1.39-2.53a106,106,0,0,1,7.69-11.76,56.06,56.06,0,0,1,4.46-5.41c-.91,2.86-2.37,6-2.82,7.24-1.49,4.09-3.25,8.09-4.59,12.24-2.19,6.78-4.67,16.67-.83,23.32,7,12.18,19.39-3.64,23.1-10.11C569.88,112.27,564.44,108.06,561.06,111.35ZM408.93,123.92a.26.26,0,0,1,.17-.19A.58.58,0,0,0,408.93,123.92Zm2.83,1.16a.06.06,0,0,0,0,0C412.35,125.52,411.7,125.39,411.76,125.08Zm30.86-43.47c1.48-2.08,7.16-4.06,5,1-.89,2.06-3.28,3.85-5.38,5.48a1.31,1.31,0,0,1-.35-.27C440.46,86.37,441.65,83,442.62,81.61Zm7.87,45.54a15.23,15.23,0,0,1-6.69,2.6,4.2,4.2,0,0,1-1.19-.27.81.81,0,0,1,0-.22c.05-.14.2-.94.31-1.17-.09.21,1.13-1.9,1.65-2.52,3.77-4.49,9.42-7.6,15.51-9.85A29.88,29.88,0,0,1,450.49,127.15Zm65.42-46.72c1,3.68.71,7.87-.09,12-3.7,1.68-7.65,2.7-10.28,1.09l-.37-.28a58.46,58.46,0,0,1,8.29-15.8l0-.09A4.34,4.34,0,0,1,515.91,80.43Zm-9.76,35c-1.76,1.86-3.77,2.77-5.79,4,.09-1.08.11-2.21.16-2.73a120.91,120.91,0,0,1,2.79-17.14c.22.12.45.23.68.33,2.79,1.18,6.62.72,10-.21-.37,1.24-.74,2.43-1.1,3.56A30.45,30.45,0,0,1,506.15,115.41Z"/><path d="M415.17,62.62l.48,1.14a3.58,3.58,0,0,0,1.23,1.33,2.23,2.23,0,0,0,1.05.61,3.49,3.49,0,0,0,1.83.41l1.27-.17,1.13-.48a3.58,3.58,0,0,0,1.34-1.22,3.62,3.62,0,0,0,.85-1.62l.31-.8a5.15,5.15,0,0,0,0-2.7,5,5,0,0,0-1.31-2.24,5.27,5.27,0,0,0-3.59-1.49,3.79,3.79,0,0,0-2,.44,3.7,3.7,0,0,0-1.63,1.05,5,5,0,0,0-1.31,2.24,5.15,5.15,0,0,0,0,2.7Z"/></g></g></svg>