<svg xmlns="http://www.w3.org/2000/svg" viewBox="0 0 490.89 188.72"><g id="Capa_2" data-name="Capa 2"><g id="Capa_10" data-name="Capa 10" fill="#ffffff"><path d="M64.52,134.85c-.79,1.38-3.46,6.14-5.79,5.11-3.08-1.36-1.75-8.88-1.57-11.08,1-11.54,3.88-22.83,6.46-34.09,2.48-10.85,4.9-22,5.16-33.12.16-7.36.81-22.63-8.55-25.15S43,42.81,37.68,50.73c-1.83-9.46-5.95-17.34-14.9-16.89C16.4,34.16,10.2,39.27,6.49,44A29,29,0,0,0,.72,68.57c.59,2.5,4.62,2,4.52-.61A26.37,26.37,0,0,1,12.8,47.77,20.8,20.8,0,0,1,21,42.6a3.5,3.5,0,0,1,2.27-.23c.24.05.52.06,1.29,1-.15-.18,1.09,2,1.26,2.35a34.77,34.77,0,0,1,2.07,9.16c.43,3.81.67,7.65.78,11.51A119.54,119.54,0,0,0,18.52,96.56c-2.26,11.94-4.58,28.75,4.24,38.62,2.06,2.31,6.76,1.91,8.11-1.05,3-6.52,3.58-14.63,4.62-21.64A310.26,310.26,0,0,0,38.8,78.07a163.54,163.54,0,0,0-.16-20.37c.29-.5.59-1,.9-1.49,2.79-4.46,6-9.07,10.47-12,3.31-2.17,6.91-2.82,7.87,1.95,1,5.15.74,11.16.47,16.39C57.23,84.48,49,105.29,46.89,127.1c-.8,8.08-.91,19.38,8.42,22.73,8.59,3.08,14.59-4.4,17-11.69C73.86,133.51,66.91,130.71,64.52,134.85ZM25.35,110.13c-.45,3-1,6-1.56,9-2.18-7.39-.52-16.87.78-23.24a146.12,146.12,0,0,1,3.92-15.15C28,90.63,26.75,100.51,25.35,110.13Z"/><path d="M228.35,156.52c-1.91-1-3.89-2-5.91-3,.15-2,.27-3.95.41-5.89q1.18-17.09,3.77-34c.87-5.72,1.91-11.4,2.9-17.09.81-4.67,2.21-9.27,1.68-14,.74-3.17-4.3-5.47-6.68-2.32-2.94,3.88-3.51,9-4.55,13.64-.58,2.63-1.1,5.27-1.59,7.91a86.28,86.28,0,0,1-5.81,11.52,38.08,38.08,0,0,1-6.16,7.9,20,20,0,0,1-2.21,1.89,7.38,7.38,0,0,1-.8.5,24.19,24.19,0,0,1,0-5.86c1.24-12,6.26-23.57,10.33-34.76h0c1.26-4.62-6-8.58-8.4-3.55A148.22,148.22,0,0,0,195,107c-.77,1.25-1.53,2.49-2.29,3.71-3.37,5.48-7.74,11.25-13.36,14.63-6.24,3.75-10.44,1.08-12.45-5.5-2.48-8.14-.7-17.83,3.53-25.07,2-3.42,6.91-10.39,11.26-10.86,5.41-.59,3.72,9.32,2.1,11.93-1.38,2.24,1.87,4.82,3.69,2.84C194,91.52,193,74.3,180.16,76.2c-11.25,1.67-19.77,14.86-22.69,24.86a.83.83,0,0,0,0,.15,3.59,3.59,0,0,0-4.36,1.26c-2.89,4.06-6,7.92-9.08,11.85l-1.4,1.8c1.2-10.2,6.18-20.33,5.71-30.63-.45-9.8-10.47-11.43-15.74-4.53a49,49,0,0,0-5.1,8.57v-.12c.38-3.51,1.12-7.17-1.12-10.2a3.93,3.93,0,0,0-5.22-1.37c-6.61,3.59-8.91,13.21-11.42,19.66-2.69,6.89-4.93,15.59-9.3,22.06,0-.36,0-.71,0-1,.57-7.54,2.12-15,3.46-22.43.64-3.57,1.29-7.12,1.83-10.7.52-3.4.88-4.47.34-7.21-.73-3.68-6.72-3.82-7.61-.22a15.13,15.13,0,0,0-.7,1.7c-.4,1.09-.67,2.26-1,3.39-.4.87-.83,1.74-1.28,2.6.07-3.31-.32-6.93-2.73-9.21-7.45-7.07-16.15,4.25-19.36,10.16-4.75,8.74-8.23,19-8.91,28.92-.54,8.12,2.93,18.24,12.87,17.38,4.54-.39,6.37-4.65,8.3-8.29,1.69-3.2,3.28-6.48,4.77-9.79-.17,1.6-.32,3.2-.41,4.8-.33,5.38-.07,14.52,7.39,14.59,8.55.09,12.32-12.47,14.38-18.74,1.63-5,3.12-10,4.71-14.94-.29,1.56-.58,3.12-.85,4.68-1.33,7.59-2.65,15.19-3.9,22.8-1.09,6.54,9,9.3,10,2.75,1.09-7.06,2.18-14.12,3.19-21.19,3-6.71,6-13.68,10.18-19.78a19.82,19.82,0,0,1,3.37-3.57,3.24,3.24,0,0,0-.1.41c-.94,2.72-1,6.1-1.66,8.94-2.55,11.32-6.67,23-3.49,34.58a5.27,5.27,0,0,0,6.4,3.64c5.12-1.57,7.3-7.43,9.84-11.75,2.12-3.62,4.19-7.26,6.34-10.85-.25,6.27,1,12.64,4.33,17.82,5,7.72,14.24,8.85,21.56,3.63a42.49,42.49,0,0,0,11.1-12.22c-.19,3.87.32,7.78,2.71,10.73,6.54,8.1,14.23.81,19.36-6.5q-.8,6.21-1.42,12.44c-.41,4.07-.6,8.21-.87,12.34-10.24-3.62-21.17-5.31-31.5-1.9-6.33,2.09-12.36,5.53-15.13,11.85a19.41,19.41,0,0,0,1.32,17.81c7.55,12.26,25.9,13.84,38.12,8.82,11.13-4.58,14.72-14.18,16.23-24.61l4,1.64C229.35,164.63,231.9,158.4,228.35,156.52ZM75.42,121.92c0-.09-.07-.18-.11-.29-.89-2.39-.6-5.33-.28-7.81A64.79,64.79,0,0,1,81,94.66a42.41,42.41,0,0,1,4.17-7.48c.34-.44,1.29-1.52,1.32-1.55.2-.2,1.47-.93,2-1.49a2.9,2.9,0,0,1,.41.58,16.17,16.17,0,0,1,1.34,4.86,25.55,25.55,0,0,1,0,6.54c-1.15,2.2-2.35,4.37-3.53,6.59C83.22,109.35,79.53,115.7,75.42,121.92ZM96.62,124h0C96.33,124.36,96.32,123.92,96.62,124Zm107,1.11a.35.35,0,0,0,.13.1C203.73,125.21,203.69,125.17,203.65,125.11Zm7.52,37.44c-1.45,7.95-4.89,13.54-13.07,15.64-6.68,1.71-15.83,1.07-21-4-4-3.91-4.4-10.94.08-14.68,9.75-8.15,22.9-5.88,34.73-1.81C211.68,159.32,211.46,160.94,211.17,162.55Z"/><path d="M364.66,135.75a66.85,66.85,0,0,1-18.81,6.19c-.13-3.87-.33-7.68-.36-11.27-.05-7.76,0-15.54-.38-23.3a26.13,26.13,0,0,0,.2-10.4,4.48,4.48,0,0,0-1.08-2.13c-.11-1.3-.22-2.6-.35-3.9-.35-3.66-.43-7.45-2.32-10.68a1.49,1.49,0,0,0-2.55,0c-3,5.17-2.57,12.81-3,18.62,0,.72-.09,1.44-.13,2.16A57.08,57.08,0,0,1,333,112.41c-1.09,2.92-3.83,11.46-7.67,12-.11,0-.44,0-.46,0-.69-.43-2-4.29-2.3-5.33a42.73,42.73,0,0,1-1.46-12.69c0-8.49,2.26-17.84-.35-26.1a3.18,3.18,0,0,0-2.25-2.24,3.56,3.56,0,0,0-1.34-.06l-.37.06a3.17,3.17,0,0,0-2.24,2.24c-1.9,5.58-2.37,11.74-3,17.57a75.2,75.2,0,0,0-.32,16.83c1,8.56,4.93,22.15,16.15,19.8a14.64,14.64,0,0,0,7.86-4.85q0,6.27-.05,12.55c-.86-.1-1.72-.23-2.57-.41C324.13,140,316.74,135.28,310,130c-5-3.84-10.35-8.82-16.18-12.56.56-2,1-4,1.46-5.93A190.48,190.48,0,0,0,298.9,82.2a245.3,245.3,0,0,0-.09-32.76c-.51-6.7-.4-15.39-4.7-20.21-1.06-1.18-2.72-.39-3.21.85-1.66,4.22-1.24,10-1.2,15.11.07,8.11.05,16.24-.27,24.34-.55,14.25-1,29.54-5.09,43.49a20.38,20.38,0,0,0-13.75.74c-5.14,2.13-8.84,6.13-9.47,11.86-.64,5.9,2.26,10.93,7.87,12.82,6.47,2.18,12.82-.09,17.12-5.2a32.2,32.2,0,0,0,3.94-6l1.47,1.11c6,4.61,11.62,9.7,17.87,14,7.75,5.33,16.38,9.23,25.8,10.17h0a45,45,0,0,1-.44,5.45c-.61,4-1.88,8.54-5.25,11.08-4.13,3.11-11.45,1.15-15.83-.5a43.74,43.74,0,0,1-14.25-9.2,60,60,0,0,1-5.89-6.36c-1.81-2.28-3.21-4.85-5.93-6.09-2.88-1.31-6.17.23-6.28,3.61-.22,6.37,6.9,12.83,11.26,16.8a56.15,56.15,0,0,0,16.85,10.78c11.68,4.69,26.06,4.43,32.42-8,2.77-5.43,3.76-11.62,4-17.94,8.07-1.4,15.49-5.19,22.4-10.17A3.61,3.61,0,0,0,364.66,135.75Zm-86.19-9.37c-1.5,1.8-2.28,2.57-4.25,2.82.22,0-1.27,0-1.52,0-2.27-.41-2.61-1-2.23-3.51.5-3.17,4-4.37,6.74-4.41a11.29,11.29,0,0,1,3.89.71A24.37,24.37,0,0,1,278.47,126.38Z"/><path d="M483.43,113.38c-1.87,2-7.7,7.81-10.92,6.05-2.48-1.35-1.2-8.36-.88-10.65,1.16-8.26,5.28-17.44,4.39-25.84-.57-5.38-8.44-5.85-9-.72-.87,3.38-1.64,6.81-2.39,10.25-1.6,3.63-3.23,7.26-5,10.83-1.49,3.07-3,6.16-4.76,9.09a50.64,50.64,0,0,1-3,4.59,6,6,0,0,1-.51.57c.18-1.19.38-2.38.61-3.57.73-4,1.63-7.88,2.25-11.86.92-6,2.37-13-.62-18.66C446.91,70.83,436.91,85,432,94c.05-.94.08-1.89.13-2.83q.26-4.81.53-9.63C439.2,67,446.72,52.78,450.52,37.09c2.44-10,6.64-29.1-4.5-36-5.32-3.31-9.8,1.8-11.86,6.29-3.64,8-5.25,16.91-6.7,25.49-2,12.14-3.28,24.37-4.27,36.63-.54,6.58-1,13.16-1.36,19.75-.47,1.06-.93,2.13-1.38,3.2-4.07,9.72-7.34,20.21-13.47,28.89-1.2,1.69-4.94,7.64-7.89,6.18-1.7-.83-2.55-5.13-2.93-6.8a27.08,27.08,0,0,1-.53-7.46c.26-5.44,1.85-10.73,3.62-15.84,1.19-3.43,2.05-8.22,5-10.67.83-.7,3.46-2.27,4.62-1.29.71.6-.1,2.87-.45,3.78a1.67,1.67,0,0,0,2,2.05c4.82-1.91,7.17-6.69,4-11.32-3.59-5.17-11-4.75-15.73-1.49a19.37,19.37,0,0,0-6.64,9,111.57,111.57,0,0,0-5.38,16.21,51.54,51.54,0,0,0-1.11,17.32,4.74,4.74,0,0,0-2,1.66c-.69,1-1.44,1.93-2.16,2.9a4.71,4.71,0,0,1-.14-.57c-.81-5.5.81-11.84,1.14-17.36.4-6.55.59-13.14.48-19.7-.07-3.9-.59-9.88-5.92-9.88-3.36,0-7.33,3.75-9.5,6a33.49,33.49,0,0,0-6.28,9.56,54.61,54.61,0,0,0-1.41-13c-.75-2.92-5.21-3-6,0-2.07,8.23-2,17.38-2.41,25.83a124.69,124.69,0,0,0,1.14,26.26c1.05,6.42,11.88,3.75,10-2.57-.69-6-1.1-12.05-1.31-18.11,3.67-8,4.65-18.83,11.92-23.55,0,.79-.08,1.58-.1,2.37-.09,2-.17,3.94-.27,5.91-.25,4.59-.58,9.19-.94,13.78-.47,6.23-2.05,12.9-.19,19.07,1.23,4.09,4.28,8.06,8.95,8,4,0,6.8-2.57,8.78-5.73A18.1,18.1,0,0,0,391,134c6.49,7.22,16,3.63,21.06-3.13a65.44,65.44,0,0,0,8.69-17.19c-.07,2.24-.14,4.47-.18,6.71,0,1.49-.07,3,0,4.47.06.95.36,4.64.23,2.43.37,6.33,10.26,6.37,9.9,0,.09,1.72,0-.32.07-1.38.08-.89.14-1.79.18-2.68.1-2.64.08-5.28.15-7.92.09-3.32.21-6.65.34-10,.73-1.32,1.46-2.61,2.15-3.86,1.8-3.29,3.61-6.59,5.7-9.71,1.28-1.91,3.58-6,6-6.67a.92.92,0,0,1,.29,0,16.81,16.81,0,0,1,.47,2.81c.78,7.27-2.33,15.38-3.79,22.47-1.11,5.42-4.06,14.44-.12,19.21,3.82,4.62,10,2.58,13.13-1.57a62.28,62.28,0,0,0,5.83-9.53q.11.7.24,1.41a12.15,12.15,0,0,0,13.43,10.07c6.81-.6,12-5.84,15.46-11.3C492.89,114.51,486.78,109.75,483.43,113.38Zm-41-106.44c-.15,0-.22-.17,0,0Zm-5.58,25.58c.89-7,1.79-14.16,4-20.88a20.73,20.73,0,0,1,1-2.63c.14-.3.65-1.24.92-1.75a15.24,15.24,0,0,1,3.34,5.93c1,4,.15,9.4-.32,13.43a85.45,85.45,0,0,1-3,14.24,163.6,163.6,0,0,1-9,23.06C434.55,53.43,435.53,43,436.85,32.52Z"/><path d="M469.32,62.1a4.62,4.62,0,0,0,2.06,1.2c.43.07.86.13,1.29.17a3.27,3.27,0,0,0,1.48-.16,5.06,5.06,0,1,0-4.92-1.3Z"/></g></g></svg>