<svg xmlns="http://www.w3.org/2000/svg" viewBox="0 0 522.52 157.23"><g id="Capa_2" data-name="Capa 2"><g id="Capa_7" data-name="Capa 7" fill="#ffffff"><path d="M66.46,143.37C58.7,147,50.68,149.67,46,140.16c-4.44-9-4.79-20.78-4.86-30.61-.06-9.19,1.69-19.69-4.1-27.65l-.14-.18C42.78,81,49,80.23,54.26,77.52c10.5-5.39,14.25-18.61,10.07-29.27-4.6-11.74-16-18.72-28.06-20.81a64.5,64.5,0,0,0-20.19-.38c-5.33.78-12.61,2.22-15.95,6.83a.88.88,0,0,0,.52,1.28c4.2,1.25,9-.15,13.27-.43a84.69,84.69,0,0,1,15.19.1C38.89,36,49.63,40,54.44,49.22c4.28,8.21,1.31,17.74-7.5,21.08a62.55,62.55,0,0,1-15.55,3.22c-3.6.38-7.68,0-11.45.3l.79-11.65c.5-7.24,2.16-15.81.24-22.88-.74-2.76-5.35-3.86-6.64-.87-2.84,6.55-2.64,14.7-3.2,21.76q-1,12-1.88,23.91C8.09,98.71,7,113.33,5.91,128a14.93,14.93,0,0,0-.3,4c.27,6.62,9.74,6.53,10.21,0C17,116.3,18.1,100.7,19.16,85.09c.06-.79.11-1.57.17-2.36a31.81,31.81,0,0,0,5.72.22c7.2,4.18,6.34,14.62,6.07,22.92-.35,10.8.31,22.33,3.41,32.74C37,146.76,42.13,154.8,51,156.77c7.66,1.71,18.41-1.29,19.75-10.15A2.93,2.93,0,0,0,66.46,143.37Z"/><path d="M168.39,123.63c.31-.54.6-1.08.9-1.63a21,21,0,0,0,.81,3.59c1.77,5.45,6.67,9.11,12.27,5.74,6.06-3.64,10.46-11,13.25-17.22,1.62-3.63-2.64-7.66-5.82-4.48-2.29,2.28-4.66,4.46-6.87,6.82-.7.75-2.32,3-3.8,4.45-1.06-4.88,1.08-13.29,1.48-16.56.89-7.4,2.33-15,2.35-22.49,0-5.64-7.54-5.89-9.08-1.22l-.09,0c-.39,1.6-.72,3.24-1,4.89a11,11,0,0,0-2.73-7c-3.76-4.06-9.63-2.06-13,1.38-4.48,4.6-6.18,11.44-7.38,17.55-1.39,7-2.86,14.39-2.33,21.62l0,.3a5.25,5.25,0,0,0-5.9.48,13.08,13.08,0,0,1-.06-1.88c0-1.57,0-3.14.09-4.71.11-3.46.28-6.91.54-10.36.52-7.09,1.34-14.2,2.29-21.24.76-5.64-7.77-8.21-8.72-2.41-1.18,5.26-2.09,10.51-2.79,15.82a73.79,73.79,0,0,1-2.37,8.44c-.89,2.53-1.69,5.53-2.66,8.51,0-3.84-.08-7.67,0-11.5.1-4.19.26-8.37.45-12.55,1.13-4.52,2.27-9,3.51-13.5,3.79-13.64,7-27.42,9.65-41.31,1.21-6.25,5.86-27.21-5.88-27.13-4.54,0-7,4.58-8.24,8.27A112.42,112.42,0,0,0,123,34.13c-1.84,13-2.8,26.11-3.58,39.21a8,8,0,0,0-2.07.11c-10.34,1.84-15.46,16.25-17.5,25a71.69,71.69,0,0,0-1.71,12.9c-1.85,1.89-3.5,4-5.21,6-1.16,1.35-2.32,2.7-3.5,4l-.29.3c-1.94-4.75-.52-13.5-.33-16.93.45-8,.87-17,3.59-24.52,1.38-3.83-4.53-6.18-6.5-2.74-1.1,1.93-2.1,3.91-3,5.91-1.71-5.72-6-9.5-12.6-4.82-5.51,3.9-8.2,11.18-10.53,17.2a62.63,62.63,0,0,0-4.54,22.93c.06,6.2.78,14.66,7.66,17.08,7.48,2.63,11.63-5,14-10.74.63-1.5,1.19-3,1.72-4.56a26.66,26.66,0,0,0,.9,4c1.76,5.58,7.15,12.22,13.42,8a24,24,0,0,0,6.27-6.94,8.26,8.26,0,0,0,2.5,3.45c6.54,5.22,12.42-1,16.2-7.73.13,2.26.31,4.52.56,6.75.4,3.63,5,6.58,7.92,3.28a26.79,26.79,0,0,0,5-9c.84,5.21,4.47,9.9,10.2,9.49a7.83,7.83,0,0,0,7.1-5.12c1,3.17,2.74,6,6,7.08C161.34,136.11,165.69,128.4,168.39,123.63Zm-101.47-1c-.29.46-.56.94-.84,1.41a3.3,3.3,0,0,0-.31-.57c0-1.83-.33-3.78-.32-5.64a56,56,0,0,1,2.2-14.31c1.1-4,2.48-7.92,3.87-11.85,1.08-3,2.29-7.26,5.28-9a18.1,18.1,0,0,1,2.06,10.55C75.23,103.2,72.28,113.42,66.92,122.66ZM134.27,17.15c1.13-3.55,1.39-1.75,1.56,1.31a30.5,30.5,0,0,1-.36,5.81c-.66,4.85-1.71,9.67-2.66,14.46-.75,3.77-1.55,7.53-2.37,11.28.1-1.83.21-3.65.31-5.48C131.26,35.35,131.47,26,134.27,17.15Zm-24.2,98a30,30,0,0,1-1.77,2.57c0-.77-.06-1.54-.07-2.32a63.22,63.22,0,0,1,1.2-13.38,45.38,45.38,0,0,1,4.43-12.54A26.4,26.4,0,0,1,117.43,84a10.54,10.54,0,0,1,1.43-1.37c-.27,4.41-.55,8.88-.79,13.36C115.92,102.57,113.71,109.34,110.07,115.13Zm61.77-23.19a87.06,87.06,0,0,1-5.47,15,80.41,80.41,0,0,1-5.78,10.23c-.71,1.06-1.83,2.29-2.71,3.54-1.21-8.19.7-17.13,2.51-25.1a33,33,0,0,1,3.81-10.19c1.33-2.17,2.65-5,4.8.39.73,1.84.22,4.12.89,6.06a.57.57,0,0,0,1,.14,8.58,8.58,0,0,0,1.2-2.18C172,90.49,171.93,91.21,171.84,91.94Z"/><path d="M142,57.81a4.44,4.44,0,0,0-3,1.26,3.27,3.27,0,0,0-.88,1.38,3.23,3.23,0,0,0-.37,1.65,4.33,4.33,0,0,0,1.25,3,4.49,4.49,0,0,0,3,1.26,4.42,4.42,0,0,0,3-1.26,3.29,3.29,0,0,0,.89-1.38,3.33,3.33,0,0,0,.37-1.65,4.34,4.34,0,0,0-1.26-3A4.46,4.46,0,0,0,142,57.81Z"/><path d="M282.05,73.15c10.2-13,13.7-30.35,6.84-45.75S266.29,3.83,249.83,6.09s-29.48,14.66-35.31,29.79c-3.23,8.39-4.24,18.08-.27,26.39,2.59,5.42,11.3,14,16.82,7.09a.48.48,0,0,0-.09-.74c-16.72-7.71-10.23-29.28-.84-40.45,10.13-12.06,29.5-17.5,42.4-6.27,11.79,10.26,12.16,27.65,4.56,40.44-7.07,11.89-18.92,18.23-31.64,22,.19-2.37.37-4.74.58-7.11.75-8.41,1.44-16.82,2.31-25.22.8-7.84,3.45-17.75,1.06-25.4a1,1,0,0,0-1.88-.25c-4.65,6.55-5,16.94-6.29,24.69-1.37,8.38-2.69,16.78-3.74,25.21-.43,3.47-.82,7-1.21,10.42-4,.88-3.95,6.56-.88,8.2q-1.78,17.44-2.94,34.94c-.66,6.48,10,6.69,10.27,0q.67-17.66,1.94-35.29C259.2,92.16,272.86,84.91,282.05,73.15Z"/><path d="M516.87,123.81a49.55,49.55,0,0,0-6,4.47c-2.58,2.33-1.23-1.13-1.09-3.21a114,114,0,0,1,3-18.28c1.53-6.65,7.83-24.09-1.29-27.94C504,75.71,498,86.2,494.63,93c.34-3.42.6-6.83.72-10.24.14-4.17-5.5-5.31-7.56-2.05a166.54,166.54,0,0,0-10.21,18.63c-2.58,5.54-4.74,11.34-7.42,16.85q.64-3.52,1.36-7c1.74-8.45,4.27-16.86,5.45-25.4.56-4.07-5.17-7.63-7.36-3.1-1.18,2.42-2.42,4.83-3.67,7.24a13.28,13.28,0,0,0-1.9-6.64c-3.34-5.4-10.72-4.65-15.25-1.45-5.67,4-9.8,11-12.89,17.13a62.64,62.64,0,0,0-6.07,16.64c-1.64,1.72-3.37,3.36-4.95,5.16l-2.14,2.47A54.38,54.38,0,0,1,424,110.85c.93-5.27,2.35-10.46,3.08-15.76.56-4,1.63-9.17-.57-12.88a7.46,7.46,0,0,0-8.75-3.4C414,80,411.44,84,409.33,87c-.3.43-.58.85-.86,1.28.29-5.62-.65-11.5-6-11.94-6-.49-10.39,7.77-12.29,12.58l.45-5.32c.39-4.62-6.39-5.06-7.73-1a92.19,92.19,0,0,0-4.25,27.3,36.28,36.28,0,0,1-8.38,13.25c-1.51-5.91-1.34-12.27-1.39-18.33q-.08-10.65.46-21.3c10.64-5.54,13.61-21.71,17-31.91a110.68,110.68,0,0,0,5.71-24.92c.63-6.68,1.13-16-2.07-22.18C387.37-.66,381.63-1.23,377.18,2c-5.95,4.35-7.41,13.52-9.05,20.18a323.73,323.73,0,0,0-8.2,54c-.22,2.92-.39,5.84-.53,8.77-1.93,7.55-4,15-6.44,22.45-1.84,5.69-4.17,13.67-9.72,16.59a284.15,284.15,0,0,1,1.91-30.85c1.33-11.3,4.08-22.4,5.25-33.69.12-.9.21-1.81.27-2.7.24-3.59-5.54-5.35-7-1.9a85.81,85.81,0,0,0-5.07,16.28,10.32,10.32,0,0,1-3.79,2.58,54,54,0,0,0-.1-8.45c-.33-3.4-1.56-7.16-5-8.53-4.14-1.65-8.49,1.48-10.27,5.12C316.07,68.69,320,76,326.19,79a176.39,176.39,0,0,1-5.34,22c-2.68,8.48-5.34,17.91-12.56,23.65-7.52,6-14.88,2.69-17.13-6.27a33.5,33.5,0,0,1-.3-14c5.19.35,10.4.55,15.59.46s8.62-1.4,9.43-6.84c1.37-9.2-.87-23.53-13.09-23.22-10.23.26-17.53,13.77-20.19,22.15-3.26,10.28-3.42,23.66,2.9,32.86,6.15,8.94,17.74,10.11,26.56,4.37,9.61-6.24,13.48-20.71,16.56-31.06a163.58,163.58,0,0,0,5.48-22.89,16.47,16.47,0,0,0,2.91-.6c-.62,3.91-1.12,7.83-1.6,11.72a288.14,288.14,0,0,0-2.11,38.84,5.07,5.07,0,0,0,5,5c10.55.23,17.4-8.11,20.67-17.28.13-.37.25-.75.38-1.13a44.61,44.61,0,0,0,4.45,17.25c1.63,3.16,5.49,2.87,7.87,1a35.49,35.49,0,0,0,7.66-8.16l.12,1.34c-.48,6.63,10.9,6.46,10.17,0a145,145,0,0,1-.53-23.53c1-2.38,1.93-4.76,3-7.1a60.55,60.55,0,0,1,3.67-7.34,39.55,39.55,0,0,1,3.7-4.91,39.73,39.73,0,0,1-1.25,7.42c-.9,4-1.7,8-2.3,12a162,162,0,0,0-1.73,24.4c0,6.63,10,6.58,10.26,0,.16-3.27.46-6.65.78-9.87s1.84-6.29,2.91-9.25a97,97,0,0,1,6.58-15.21c.77-1.35,4.52-6.92,4.71-6.57.71,1.3-2.07,7.7-2.48,9.27-1.57,6.08-3.16,12.1-3.77,18.38-.48,4.94-.86,12.12,2.27,16.34,2.81,3.79,7.43,3.44,10.72.55a58.14,58.14,0,0,0,4.45-4.34c1.44,3.86,4.19,6.94,8.95,7,6.91,0,11.74-5.91,15.16-11.19,2-3,3.78-6.17,5.47-9.36-1.51,7.28-4.06,20.37,7.26,19,8.53-1.07,10.58-13.15,12.92-19.78.45-1.3.9-2.61,1.34-3.93-.91,6-1.75,11.92-2.72,17.79-1.08,6.61,9.08,9.39,10.08,2.78.85-5.59,1.83-11.23,2.76-16.89a156.59,156.59,0,0,1,7.38-14.78,59.56,59.56,0,0,1,4.28-6.41c.6-.77,1.58-1.6,2.27-2.47a5.49,5.49,0,0,1,0,.67c-.17,1.41-.45,2.81-.72,4.19-.61,3.08-1.43,6.11-2.18,9.15a124.65,124.65,0,0,0-3,16.28c-.54,4.85-1.6,10.79,1.12,15.17,2.38,3.83,7.05,5,11.23,3.73,5.32-1.61,6.78-6.39,9.78-10.37C524.14,125.88,519.81,121.86,516.87,123.81ZM293.62,95a40.15,40.15,0,0,1,6.87-11.17c5.66-6.21,9.25,2.5,9.33,7.53,0,2,.4,5.43-1.53,6.71-1.18.79-5.87.23-7.38.32-2.93.18-5.85.39-8.76.65C292.58,97.69,293.07,96.34,293.62,95Zm30.59-31.65c5.49-5.94,3.52,6.45,2.94,9.87C324.05,71.36,321.38,66.45,324.21,63.38Zm52.53-37.81c.78-4.07,1.59-8.12,2.28-12.21.32-1.89.62-6.54,2.76-7.39,3.39-1.35,4,2.32,4.43,4.17,2,8.89.55,18.76-1.59,27.46A139.53,139.53,0,0,1,375.34,63c-1.46,3.17-3,7-5.3,9.94A441.78,441.78,0,0,1,376.74,25.57Zm43.14,98.85h0C419,125.9,418.7,124.57,419.88,124.42Zm31.59-9.83c-2,2.77-6.46,8.7-10,9.61-4.11,1.07-1.43-10.13-.79-12.31a72.93,72.93,0,0,1,5.69-13.7c2-3.79,4.19-8.86,7.61-11.59,7.13-5.67,7.6,6.47,6.81,11-1,2-2.05,3.92-3,5.88A89.65,89.65,0,0,1,451.47,114.59Z"/></g></g></svg>