<?xml version="1.0" encoding="utf-8"?>
<!-- Generator: Adobe Illustrator 25.0.1, SVG Export Plug-In . SVG Version: 6.00 Build 0)  -->
<svg version="1.1" id="Capa_1" xmlns="http://www.w3.org/2000/svg" xmlns:xlink="http://www.w3.org/1999/xlink" x="0px" y="0px"
	 viewBox="0 0 789.7 185.2" style="enable-background:new 0 0 789.7 185.2;" xml:space="preserve">
<style type="text/css">
	.st0{fill:#FFFFFF;}
</style>
<g>
	<path class="st0" d="M542.3,82c0-0.3,0-0.5-0.1-0.8c-0.6-4.5-3.5-8.6-7.7-10.6c-9.8-4.5-21.4,5-24.6,14.3c-5.2,3.4-10.2,6.4-16,8.3
		c0.7-6.6,1.4-13.3,2.1-19.9c8.1-13.1,11.3-29.2,13.5-44.1c0.9-5.8,1.9-13.2-1.7-18.4c-4.4-6.3-10.5-2.1-12.6,3.5
		c-2.1,5.4-2.7,11.4-3.7,17.1c-1.2,6.7-2.1,13.5-3,20.3c-1.1,8.5-2.1,17-3.1,25.5c-0.1,0.1-0.2,0.3-0.2,0.4c-1,2-1.2,4.8-1.7,6.9
		c-1.1,4.7-2.3,9.3-3.8,13.9c-2.5,7.7-6,14.7-10.6,21.2c0.1-1,0.3-2,0.4-2.4c0.2-2.5,0.4-5,0.7-7.4c0.5-5.4,1.2-10.9,2-16.3
		c0.8-4.9,1.6-9.8,2.5-14.7c0.9-4.9,2.4-9.9,2.4-15c-0.1-4.5-5.8-5.1-7.7-2c0,0,0,0-0.1,0c-1.3,2.4-2.2,5.1-2.9,7.8
		c-1.5,2.1-3.5,3.8-5.6,4.6c0.4-2.3,0.7-4.6,0.6-6.8c-0.1-3.8-1.3-7.7-5.5-8.8c-6.2-1.6-9.5,6.9-9.4,11.8c0.1,4.6,3,8.5,7,10.3
		c-3.1,7.9-7.1,15.5-11.2,23c-1.7,3.2-3.2,6.4-4.8,9.6c-0.1,0.3-0.4,0.6-0.6,1c-0.3-1-0.7-2.1-0.7-2.8c-0.5-6.1,0.5-12.3,1.3-18.3
		c0.7-5.1,2.3-10.5,1.7-15.7c-0.5-4.2-5.7-4.9-7.3-1c-2.5,5.8-3.6,12.4-4.5,18.7c-2.5,3.3-6,7.7-9.6,9.5c2-6.4,3.3-13.2,4.6-19.5
		c2.6-12.8,4.7-26.1,4.9-39.2c0.1-4.9,0.1-9.8-0.2-14.8c-0.2-3.6-0.2-8.2-1.6-11.6c-1.7-4.4-7.3-8.4-11.2-3.8
		c-2.1,2.5-3.1,6.9-4.1,10c-6.3,19.3-8.8,41.8-7.3,62c0.4,5.2,1,13.8,5.2,18.3c-1.7,3.3-3.7,6.6-6.4,9.2c-0.7,0.7-1.9,1.4-2.2,1.5
		c-1,0.3-0.5,0-0.7,0c-0.4-0.9-1.1-1.9-1.4-2.8c-0.5-1.5-0.8-3-1.1-4.5c-0.7-3.6-1.1-7.3-1.6-10.9c-0.9-6.3-0.7-14.2-4.6-19.6
		c-0.8-1-2.7-1.1-3.1,0.4c-0.2,1-0.4,2.1-0.6,3.2c-2.4,9.7-7.2,19.2-12.9,27.4c-1.5,2.1-2.9,4.2-5,5.7c-0.3,0.2-0.5,0.4-0.8,0.5
		c-0.3-0.4-0.7-0.8-0.2-0.1c-0.4-0.6-0.8-1.2-1.1-1.8c-1.2-2.2-2.2-6.2-2.9-9.6c-4-19.9-3.4-41.4-2.3-61.6c0.3-6.3,0-15.4,1.3-20.4
		c0.6-2.3-2.2-3.9-4-2.3c-4.5,4.2-5.3,14.3-6,20.5c-1.4,11.7-1.8,23.6-1.6,35.4c0.2,11.4,0.7,23.1,3.5,34.2
		c1.6,6.4,5,15.8,13.3,15.7c4.8-0.1,8.8-3.7,11.3-7.4c2.8-4,5-8.4,6.8-13c0.3,5.5,1.2,11.3,3.9,15.9c5.9,9.9,17.6,3.9,22.3-3.7
		c1.8-2.9,3.2-6,4.4-9.3c3.6-0.8,7.1-3.7,10-6.9c-0.7,5.5-0.9,11.3,0.8,16.5c2.7,8.1,12,10.6,17.4,3.1c3-4.2,4.3-10.3,6-15.2
		c2.4-6.8,4.8-13.5,7-20.4c0.4-1.3,0.8-2.7,1.2-4c1.8,0,3.6-0.5,5.2-1.2c-1.2,6-2.1,12.1-2.9,18.2c-0.8,6.2-1.5,12.4-2,18.6
		c-0.4,4.8-0.8,10,4.2,12.6c3.6,1.8,7.4-1.2,7.2-4.5c5-4.6,8.6-10.3,11.4-16.4c-2.3,23.1-4.4,46.2-6.1,69.3
		c-0.4,5.1,5.9,6.2,8.8,3.3c7.2-3.1,12.8-12,15.8-18.1c4.7-9.5,6.4-19.8,8.4-30.1c2.3-12.1,1.5-27.9-8.4-35c3.2-1.2,6.4-2.7,9.3-4.5
		c1,3.3,3.2,6.1,6.4,7.8c4.7,2.6,11.9,1.6,15.6,5.7c2.9,3.2,2.1,8.4-0.6,11.6c-1.4,1.6-3.8,3.2-6,3.2c-2.7,0.1-3.1-1.3-3.8-3.6
		c-0.1-0.4-0.3-0.7-0.5-1c0.9-0.7,1.7-1.6,2.6-2.3c1.7-1.4-0.1-4.1-2.1-3.5c-2.1,0.6-4.2,1.3-5.6,3c-1.2,1.4-2.6,3.2-2.5,5.1
		c0,0.1,0,0.2,0.1,0.3c-1,3.4,0.6,7,4,9.2c4.5,3,9.7,2.5,14.4,0.5c8.8-3.7,13.6-14.3,10.4-23.2c-1.7-4.7-5.4-8.2-10-10
		c-4.1-1.6-13.7-1.2-13.5-7.2c0.1-4.6,6.7-11.2,11.5-11.1c2.9,0,5.1,2.3,6,4.8c0.3,0.7,0.4,1.4,0.4,2.1c-0.5,0.5-1.1,1-1.6,1.6
		c-0.4,0.5-3.3,3.3-1.8,4.1c1.5,0.8,3.5-0.2,5-0.6c2.3-0.6,4.3-1.7,6.2-3C546.8,85.7,545.4,81.1,542.3,82z M367.9,116.2
		c0.2,0.1,0.2,0.3,0.2,0.3C368.1,116.4,368,116.3,367.9,116.2z M406.7,89.8c-1.9-18.1,0.1-37.2,3.7-55c0.7-3.3,1.4-6.7,2.5-10
		c0.4-1.2,0.9-2.3,1.4-3.4c0.3-0.7,0.7-1.6,1.1-2.2c2-2.8,4.2-2.4,6.1,0.1c1.8,2.5,1.7,7.7,1.6,10.9c0,4-0.4,7.9-0.8,11.9
		c-2.1,19.9-4.1,41.8-12.5,60.4C407.5,98.9,407,93,406.7,89.8z M437.3,116.2C437.4,116.2,437.4,116.2,437.3,116.2
		C437.4,116.2,437.3,116.2,437.3,116.2C437.3,116.2,437.3,116.2,437.3,116.2z M437.4,116.2c0.1,0.1,0.2,0.1,0.2,0.3
		C437.6,116.7,437.5,116.4,437.4,116.2z M452.5,68.2c0.2-2.7,2.7-8.4,4.4-3.6c1,2.8-0.1,6.5-1.1,9.6
		C453.6,73.2,452.4,70.9,452.5,68.2z M502.2,13.5c3.6-0.3,1.2,15.2,1,16.5c-1.4,7.3-2.7,14.9-4.9,22.3c0.3-2.4,0.5-4.7,0.8-7.1
		C499.4,42.4,500.8,13.6,502.2,13.5z M500.6,136.5c-1.4,8.4-3.4,16.9-6.9,24.7c-1.7,3.8-3.9,7.4-6.6,10.7c-0.1,0.2-0.3,0.3-0.4,0.5
		c1.8-23.4,4-46.7,6.3-70C505.6,106.7,502.3,126.3,500.6,136.5z"/>
	<path class="st0" d="M570.6,97.7c0.3-0.8,0.2-1.7,0-2.6c-0.5-1.9-2.6-3.7-4.7-3.5c-3.6,0.3-7.4,0.1-10.8,1.5c-2.4,1-2.2,4.9,0,6
		c2.9,1.5,6.4,1.5,9.5,2C567.3,101.6,569.6,100.4,570.6,97.7z"/>
	<path class="st0" d="M624.2,72.9c-0.4-0.1-0.8-0.3-1.2-0.4c5.5-6.1,9.1-13.8,9.7-21.6c1.2-17.7-13.1-30.7-29.5-32.4
		c-1.2-1.6-3.6-1.7-5-0.2c-1.8,0.1-3.6,0.3-5.5,0.7c-10.4,2.1-20.8,8.6-23.5,19.1c-0.2,0.7,0.7,1.3,1.3,0.7
		c7-6.8,15.1-12.7,25.1-13.5c-1.7,6.6-2.4,13.8-3.6,20.3c-1.5,8.5-2.9,16.9-4.3,25.4c-0.4,2.6-0.8,5.1-1.3,7.7
		c-0.4,0.4-0.8,0.8-1.1,1.3c-0.3,0.5-0.1,1.1,0.4,1.4c0.1,0.1,0.2,0.1,0.3,0.1c-2.1,12.4-4.1,24.9-6.1,37.3c0,0,0,0.1-0.1,0.1
		c-0.5,1.8-0.9,3.4-0.8,5.2c0.3,5.4,9.2,7.3,10.1,1.3c2.1-14,4.3-27.9,6.4-41.9c5.9,0.8,11.6-0.4,16.8-3c0.3,0,0.5,0,0.8,0
		c4,0.1,8.5,0.9,11.2,4c3.6,4,3.3,9.9,2.7,14.9c-1.7,13.1-8.2,25.9-17.5,35.3c-8.1,8.1-20.7,16.3-32.6,11.8c-5-1.9-9.6-5.8-11.2-11
		c-1.8-5.9,1.7-11.6,5.6-15.8c2.8-3.1-0.7-7.5-4.4-5.7c-14.3,7.2-15.3,24.3-4.4,35.1c12,11.9,29.2,10.3,42.7,2
		c14.4-9,24.9-23.9,29.7-39.9C638.9,98.2,640.2,79,624.2,72.9z M620.8,38.9c4,8.2,2.2,17.9-3.4,25c-2.9,3.7-6.4,6.2-10.3,7.8
		c-1.2,0.2-2.4,0.4-3.5,0.6c-1.8,0.4-4.2,0.8-6.6,1.5c0.1-0.4,0.1-0.7,0.2-1.1c1.3-8.6,2.6-17.2,3.7-25.8c0.9-6.8,2.5-14,2.9-21
		C611.1,27.4,617.5,31.9,620.8,38.9z"/>
	<path class="st0" d="M668.3,79c0.8-4.9-6.4-7.2-7.8-2.1c-0.7,2.3-3.3,4.7-4.7,6.7c-1.3,1.8-2.6,3.7-3.8,5.6c0.5-3.4,0.9-6.9,1-10.3
		c0.1-4.4-6-4.7-7.4-1c-5.2,14.2-6.2,30.7-7.7,45.7c-0.6,6.4,9.7,6.4,10.2,0c0.5-7.5,1.3-15,2.2-22.4c0.1-0.8,0.2-1.7,0.3-2.5
		c1.5-2.1,2.9-4.2,4.5-6.1c0.9-1.2,1.9-2.3,2.9-3.4c-0.1,0.3-0.1,0.5-0.2,0.8c-0.3,1.4-0.3,1.2-0.5,1.4c-1.4,1.2-1.8,3.9-0.7,5.4
		c4,5.4,9.5,1.1,10.6-3.9C668.2,88.5,667.7,82.8,668.3,79z"/>
	<path class="st0" d="M773.2,140.2c-1.9,3.3-6.6,11.4-11.3,12.3c-2.9-7.1,0-15.4,1.1-22.7c1.3-8,1.4-16.6-1-24.4
		c-1.4-4.4-3.8-8.9-7.4-12c8.3-4.2,15.8-10.5,21-17.1c5-6.2,13.7-20.8,3.5-26.7c-6.1-3.5-13.1,2.3-17.3,6.2
		c-6.9,6.4-12.5,14.2-17.4,22.2c0.1-0.9,0.1-1.9,0.2-2.8c1.5-2.7,2.8-5.4,4.1-7.9c4.7-9.4,9-19.4,11.4-29.6c2-8.4,3.1-17.7,0.3-26.1
		c-1.5-4.5-4.5-11.4-10-7.3c-3.3,2.5-5,6.7-6.4,10.4c-2.2,6.3-3.5,13-4.6,19.6c-2.9,16.8-4,34-5.1,51c-0.1,0.8-0.1,1.7-0.2,2.5
		c-0.2,0.1-0.4,0.3-0.6,0.5c-6.7,8.1-12,18-19.5,25.3c-3,3-4.9,2.8-6.3-1.1c-1.1-3.2-1.1-6.7-0.8-10c0.5-6.3,2.3-13,4.9-18.7
		c0.9-1.8,2.8-5.9,4.6-4.6c2.5,1.6,1.9,8.2,1.4,10.5c-0.2,1,0.9,2.2,1.9,1.5c4.6-3.2,6.9-7.7,5.7-13.4c-1.1-4.8-5.1-8.8-10.3-8.6
		c-11.2,0.5-15.5,16.7-17.2,26c-0.7-0.2-1.6-0.1-2.4,0.5c-0.5,0.4-1.3,1-2.1,1.8c0.7-4,1.1-8,1-12.1c-0.1-4.4-0.4-9.7-3.6-13.1
		c-0.5-0.6-1.4-0.6-2.1-0.3c-2,0.9-3.7,2.2-5.1,3.8c-3.6,1.6-6.2,4.8-8.4,8c-5.3,7.9-8.4,18.2-9.4,27.5c-0.7,6.6,0,17.4,9.2,17.3
		c10.5-0.1,13.5-12.7,15.8-20.8c2.2-0.8,4.3-2.5,6.1-4.3c-0.4,8.8,1.2,19.5,10.3,21.8c6.9,1.7,12.2-4,15.1-9.3
		c3.6-6.6,7.5-12.9,11.2-19.4c-0.5,10-1,20-1.8,29.9c-0.4,5.5,9,6.8,9.8,1.3c1.4-9.9,1.4-20.2,1.8-30.2c1-0.2,1.9-0.4,2.9-0.7
		c4.5,4,7.4,15.6,7.5,19c0.5,10.5-3.4,20.4-3.3,30.8c0,4.4,0.9,9.7,3.8,13.3c2.7,3.4,7.7,3.5,11.5,2c8-3,11.3-11.7,13.3-19.2
		C779.9,139.2,775,137.1,773.2,140.2z M690.4,91.4c-0.8,3-1.7,6.1-2.9,9.1c-2.2-1-3.3-6.4-3.6-8.3c-0.2-1.3-0.4-2.7-0.4-4
		c1-1.8,2.1-3.6,3.4-5.2c1-1.3,4.4-3.2,4.7-5C693,82,691.2,88.8,690.4,91.4z M675.9,118.1c0,0-0.1,0-0.1,0.1c0-0.1,0-0.2,0-0.4
		c-0.6-6.1,1.1-13.3,3.4-19.7c0.8,3.4,2.2,7.4,5.3,9.2c-0.3,0.5-0.6,1-0.9,1.5C681.6,111.9,678.6,116.4,675.9,118.1z M759.7,68.7
		c3.8-4.2,8.2-10,13.7-12.2c0.7-0.3,1.7-0.4,1.3-0.4c0.4,0.1,0.4,0,0.6,0.5c1.7,3.1-1.4,8.1-3.2,11.1c-6.6,10.6-16.9,16.8-28.2,21.1
		c0.4-0.5,0.8-1.1,1.1-1.6C749.7,80.8,754.5,74.6,759.7,68.7z M751.2,13.5c0.4-1.5,0.8-3.4,1.7-4.7c0.2-0.3,0.7-0.8,0.9-1.1
		c0,0.1,0.1,0,0.2,0c0,0.2,0,0.4,0.1,0.8c0.5,1.6,1.7,3,2.2,4.7c0.7,2.1,1,4.2,1.2,6.4c0.4,4.5-0.1,9-0.9,13.4
		c-2.1,10.8-6.1,21.3-10.8,31.3c-0.2,0.4-0.4,0.9-0.6,1.3c0.3-4.9,0.6-9.8,1-14.7C747,38.4,747.8,25.6,751.2,13.5z"/>
	<path class="st0" d="M433.7,60.7c0.7,0.4,1.6,0.6,2.4,0.6c0.2,0,0.3,0,0.5-0.1c0.4-0.1,0.9-0.1,1.3-0.2c0.7-0.2,1.2-0.4,1.7-0.9
		c0.8-0.6,1.6-1.5,1.8-2.6c0.1-0.4,0.2-0.8,0.4-1.1c0.3-0.8,0.1-2.2-0.4-2.9c-0.5-0.8-1.3-1.6-2.3-1.7c-0.4-0.1-0.8-0.1-1.2-0.2
		c-0.4-0.1-0.9-0.1-1.3-0.2c-0.7,0-1.3,0.1-1.9,0.4c-0.4,0.1-0.8,0.3-1.1,0.6c-0.5,0.3-1,0.8-1.3,1.4c-0.1,0.1-0.2,0.3-0.3,0.4
		c-0.4,0.7-0.7,1.5-0.7,2.4c0,0.8,0.2,1.6,0.7,2.4C432.5,59.8,433,60.3,433.7,60.7z"/>
</g>
<g>
	<path class="st0" d="M75.4,150.1c-5.5,5.5-19,13.1-22.8,2c-5.3-15.1,0.2-31.5,1.4-46.8c0.9-11.7,0.1-28.1-11.1-35.2
		c4-2.3,7.9-5,11-8.2c6.4-6.7,10.2-16.2,9.7-25.5c-0.6-9.5-5.8-17.7-14.8-21.5c-9.9-4.1-21.2,0.4-29.2,6.3
		C11.4,27.1,0.7,39,3.2,49.8c0.2,0.8,1.6,1.1,2,0.3C10,39.1,16.1,29.9,27,23.9c9.9-5.4,23.3-5.3,27.8,6.7c3.4,9-0.4,20.1-7.2,26.5
		c-4.8,4.6-11.3,7.8-17.7,10c-1.3,0.1-2.6,0.4-3.9,0.7c-0.4,0.1-0.8,0.2-1.2,0.4c0.2-4,0.4-8,0.7-12c0.5-6.9,2.1-15,0.2-21.8
		c-0.6-2.2-3.8-2.6-5-0.6c-3.5,5.9-3.6,14.1-4.3,20.8c-0.6,5.9-1.1,11.9-1.6,17.8c-1,1-1.6,2.4-1.6,4.1c0,0.9,0.4,1.7,1,2.3
		c-0.6,7.7-1.1,15.4-1.8,23c-0.6,6.6-2.1,13.3-1.8,19.8c0.3,5.1,6.7,5.5,8.6,1.1c2.5-6,2.6-13.1,3.2-19.5c0.7-7.7,1.2-15.4,1.7-23.1
		c0.1-1,0.1-1.9,0.2-2.9c1.3-0.3,2.5-0.5,3.6-0.9c1-0.3,2.1-0.7,3.1-1.1c5.4,0.7,9.3,4.3,11.1,9.3c5.5,15.4-0.7,32.7-1.7,48.3
		c-0.7,11.4,0.2,29.6,13.6,33.9c10.2,3.3,21.5-2.8,27.9-10.4C85.6,152.1,79.6,145.8,75.4,150.1z"/>
	<path class="st0" d="M294.6,109.3c-1.6,2.7-3.6,7.2-6.7,9.1c-1.9-5.7-0.5-12.9,0.4-18.4c0.7-4.2,1.5-8.4,2.2-12.6
		c0.5-3.2,1.5-7.4,0.3-10.5c-0.6-1.6-2.6-2.4-4-1c-0.6,0.6-1.1,1.3-1.6,2.1c-0.3,0.2-0.5,0.4-0.7,0.6c-1.3-4.8-8.3-8.7-13.9-7.8
		c-8.9,1.5-13.9,10.6-17,18c-1.4,3.5-2.7,7.2-3.6,11c-4.4,4.5-8.3,9.4-13.3,13.3c-2.3,1.8-5.1,4-7.9,4.6c-2.4,0.5-2.7-1.1-3.5-3.9
		c-1.6-5.9-1.8-12.2-0.4-18.1c1-4.3,2.7-10.4,6.5-13.2c1.8-1.3,4.1-1.9,6.2-1c3.7,1.6,3.8,6.7,4.1,10c0.1,1.3,1.8,1.8,2.5,0.7
		c4.5-6.8,3.7-17.6-5.4-20.3c-9.8-2.9-17.3,4.9-20.8,13c-1.3,2.9-2.3,6.3-3.1,9.8c-7.9,7.1-15,14.9-22.3,22.6
		c-1.6,1.6-3.8,4.8-6,2.9c-1.7-1.5-1.9-5.7-2-7.8c-0.3-8.3,2.2-16.7,6.1-24c1.2-2.3,3.8-8.8,7.1-7.9c4.6,1.3,3.2,9.1,4.6,12.6
		c0.1,0.3,0.5,0.4,0.8,0.2c8.7-8,1.4-25.9-11.2-21c-5.8,2.3-9.6,10.1-11.9,15.4c-2.3,5.1-3.8,10.4-4.6,15.8
		c-0.3,0.2-0.6,0.5-0.8,0.8c-3.4,4.5-10.9,15.4-17.9,11.2c-5.9-3.6-6.7-12.7-5.9-18.8c0.3-0.2,0.6-0.5,0.9-0.8
		c1.9,0.1,3.8,0.2,5.4,0.2c5.1,0.1,10.6-0.7,14.8-3.8c10.7-8-4.3-21.4-14.1-18.8c-7.1,1.9-11.9,8.1-14.2,15.6
		c-0.1,0.5-0.3,1-0.4,1.6c-3.5,0.6-7,1.3-10.5,2c-2.6-9.9-7.9-19.3-18.9-14.6c-2,0.8-3.7,1.9-5.2,3.2c0.4-1.3,0.9-2.5,1.3-3.8
		C112,71,113.1,64,114.4,57c1.8-9.3,4.6-19,5.4-28.4c0.6-6.8-0.7-14.4-2.4-21c-0.7-2.8-2.4-9.2-6.1-5.3c-2.2,2.3-3,6.3-3.8,9.3
		c-4.1,15-6.3,30.2-7.7,45.7c-1,10.5-1.6,21.1-1.8,31.7c-0.7,1.9-1.3,3.7-2,5.6c-3.1,7.6-6.5,15.2-12.4,20.9
		c-7.2,7.1-11-1.9-11.8-8.8c2,0.1,4,0.1,5.8,0.1c4.2,0,8.8,0.7,11.1-3.3c3.7-6.6,5.3-15.2,3.4-22.6c-2.6-10.2-14-11.4-20.4-4
		c-6.7,7.8-10.1,18.8-10.1,29c-0.1,10.9,7.2,24.6,20.4,21.7c8.3-1.8,13-10.4,16.4-17.5c0.3,5.2,0.8,10.5,1.4,15.7
		c0.6,5,5.7,1.2,6.9-2.3c2.6,3.3,6.2,5.7,10.1,7.7c5.5,2.7,11.5,3.7,15.6-1.7c4.5-6,2.9-16.2,2.4-23.2c-0.1-1.5-0.3-3.3-0.6-5.3
		c2.6-0.6,5.2-1.2,7.8-1.8c-0.4,10.4,3.4,20.8,11.9,24.8c4.3,2,9.2,1.7,13.4-0.4c3.3-1.6,5.8-3.8,7.9-6.5
		c1.2,7.1,4.7,14.2,12.6,14.1c7.3-0.1,11.9-6.5,16.1-11.5c3.4-4,6.7-8.1,9.9-12.2c0.2,5.7,1.6,11.1,4.6,15.5c5.2,7.6,14,5.3,19.9,0
		c4-3.6,7.5-7.9,10.7-12.4c0,1.8,0.2,3.6,0.6,5.4c0.8,3.8,2.7,7.5,6,9.6c5.3,3.5,9.1,1.3,13.2-2.8c3.3-3.3,6.1-6.9,8.5-10.9
		c-0.2,5.3,0.6,10.7,3.7,15c1,1.4,2.5,2.6,4.3,2.5c9.5-0.8,16.4-8.7,17.2-17.9C302.9,107.2,296.6,105.9,294.6,109.3z M78.9,81.1
		c1.7-1.7,3.8-2.4,5.4,0c3.4,4.8,0.6,13.6-2,18.7c-3.3,0.5-7.2,0.5-10.7,1.1C72.4,94.3,74.3,85.5,78.9,81.1z M113.7,4.9
		C113.7,4.8,113.7,4.8,113.7,4.9C113.7,4.8,113.7,4.8,113.7,4.9z M111.9,6.3C111.7,6.5,111.8,6.3,111.9,6.3L111.9,6.3z M110.5,22.5
		c0.7-4.7,1-9.3,2.1-13.9c0.3,0.8,0.7,1.6,0.8,2.3c1.6,6.3,2.9,13.6,2,20.1c-1.2,8.7-4,17.5-6.5,25.9c-1,3.6-2.2,7.1-3.4,10.6
		C106.6,52.5,108.4,37.4,110.5,22.5z M106,104.6c0.3-10.3,2.7-20.7,11.5-18.9c3.9,0.8,5.8,4.8,6.7,9.1c-4.6,0.9-9.2,2-13.2,4.7
		C109,100.8,107.3,102.6,106,104.6z M124.8,121.9c-2.8-0.9-5.7-2.1-8.1-3.8c-2.4-1.6-5.2-4.2-5.6-7.2c-0.5-3.4,2.1-4.5,5-5.5
		c3-1.1,6.1-1.8,9.3-2.5c0,0,0,0,0,0c0.6,6.4,0.8,12.8,0.7,19.2C125.4,122,124.8,121.9,124.8,121.9z M163.1,81.2
		c2.3,0.5,7.1,3.4,5,6.2c-2.5,3.3-10,3.1-13.7,3.3c-0.3,0-0.7,0-1,0c-0.2-0.4-0.4-0.6-0.8-0.8c0.8-2.2,1.9-4.3,3.3-5.9
		C157.8,82,160.2,80.6,163.1,81.2z M260.5,116.7c-4.5-4.4,0.4-18.8,1.9-22.8c1.5-4,3.5-8.6,6.8-11.5c3.5-3.2,9.4-2.5,10.5,2.8
		c0.1,0.6,0.8,0.9,1.4,0.8C275.7,97.3,269.9,108.3,260.5,116.7z"/>
</g>
</svg>
