<svg xmlns="http://www.w3.org/2000/svg" viewBox="0 0 789.7 185.21"><g id="Capa_2" data-name="Capa 2"><g id="Capa_13" data-name="Capa 13"><path d="M73.34,151.18c-5.6,5.68-19.18,13.46-23.08,2.06-5.31-15.54.17-32.37,1.4-48.12.94-12,.09-28.88-11.2-36.21a47.85,47.85,0,0,0,11.12-8.44,36.16,36.16,0,0,0,9.78-26.19c-.58-9.76-5.88-18.21-15-22.06-10-4.22-21.45.4-29.58,6.49S-2.19,37,.38,48.11c.2.86,1.64,1.15,2,.27,4.84-11.25,11-20.75,22-26.91C34.45,15.9,48,16,52.55,28.35,56,37.64,52.13,49,45.23,55.64c-4.89,4.72-11.48,8-17.85,10.25a24.8,24.8,0,0,0-3.9.73c-.37.1-.79.23-1.23.38.22-4.11.45-8.22.72-12.32.47-7.14,2.12-15.41.17-22.38a2.8,2.8,0,0,0-5.05-.66c-3.55,6.11-3.63,14.51-4.31,21.42-.61,6.09-1.12,12.19-1.61,18.3a5.42,5.42,0,0,0-1.58,4.19,3.79,3.79,0,0,0,1.05,2.38c-.61,7.9-1.12,15.81-1.86,23.7C9.16,108.36,7.64,115.26,8,122c.29,5.19,6.83,5.7,8.66,1.17,2.51-6.2,2.6-13.43,3.19-20.06.7-7.89,1.24-15.81,1.72-23.72.06-1,.11-2,.16-2.94a37,37,0,0,0,3.64-.93c1.06-.35,2.1-.72,3.15-1.11,5.46.76,9.4,4.41,11.22,9.6,5.55,15.8-.71,33.61-1.72,49.66-.74,11.73.21,30.41,13.72,34.84,10.3,3.37,21.78-2.88,28.2-10.74C83.66,153.22,77.64,146.82,73.34,151.18Z"/><path d="M295,109.26c-1.58,2.81-3.65,7.38-6.76,9.38-1.9-5.84-.5-13.31.39-18.87.7-4.31,1.47-8.6,2.19-12.91.54-3.26,1.54-7.57.29-10.76a2.44,2.44,0,0,0-4-1.07,10.58,10.58,0,0,0-1.64,2.13,2.78,2.78,0,0,0-.7.63c-1.3-4.89-8.37-8.94-14-8-9,1.5-14.05,10.9-17.19,18.52a69.88,69.88,0,0,0-3.61,11.32c-4.43,4.62-8.44,9.62-13.49,13.63-2.29,1.81-5.12,4.11-8,4.77-2.46.55-2.74-1.11-3.53-4a38.47,38.47,0,0,1-.35-18.65c1-4.39,2.68-10.72,6.6-13.56a6.25,6.25,0,0,1,6.22-1c3.69,1.67,3.88,6.89,4.14,10.31a1.4,1.4,0,0,0,2.58.7c4.55-7,3.75-18.12-5.46-20.85-10-2.94-17.5,5.08-21,13.4a55.43,55.43,0,0,0-3.15,10.13c-8,7.26-15.21,15.27-22.55,23.2-1.58,1.69-3.87,4.92-6,3-1.73-1.54-2-5.84-2-8-.27-8.52,2.24-17.19,6.15-24.69,1.22-2.33,3.83-9.05,7.18-8.08,4.65,1.36,3.24,9.4,4.6,13a.48.48,0,0,0,.79.2c8.81-8.21,1.41-26.63-11.37-21.55-5.85,2.33-9.66,10.38-12.08,15.8a61.42,61.42,0,0,0-4.68,16.27,3.94,3.94,0,0,0-.81.82c-3.43,4.65-11,15.87-18.07,11.51-6-3.69-6.77-13.17-5.91-19.36,0-.25.08-.51.12-.77,2.19.22,4.39.21,6.2.25,5.12.09,10.76-.74,14.92-3.92,10.8-8.27-4.32-22-14.27-19.32-7.45,2-12.4,8.8-14.67,16.91a15,15,0,0,1-3.9-1.21,184,184,0,0,0,2.95-21,3.9,3.9,0,0,0-2.82-3.71c-9.6-3.52-16.38,4.16-15.56,13.51a21.55,21.55,0,0,0,6.15,13.44c-2.13,7.72-4.7,15.32-7.21,23a15.55,15.55,0,0,1-.75-1.39,113.54,113.54,0,0,1-5-13.59C113.7,92.39,112.14,84,108,78.36c-.47-2.81-4.77-4.12-6.44-1.18-7,12.35-9.73,28.16-20.13,38.49-7.32,7.27-11.1-1.94-11.91-9,2,.15,4,.08,5.91.09,4.25,0,8.92.74,11.19-3.4C90.4,96.5,92,87.68,90.1,80.07,87.44,69.61,76,68.36,69.5,76c-6.82,8-10.21,19.29-10.26,29.76C59.19,117,66.57,131,79.82,128c8.86-2,13.66-11.75,17.22-19.26,2.62-5.53,4.94-11.3,7-17.12a152.23,152.23,0,0,0,4,15c2.11,6.95,6.24,21.69,15.77,21.31a5.2,5.2,0,0,0,4.86-3.69c2.85-9.3,5.57-18.83,7.75-28.45A23.83,23.83,0,0,0,140.63,97c-.91,11.22,2.92,22.92,12,27.21a15.35,15.35,0,0,0,13.57-.43,23.16,23.16,0,0,0,8-6.64c1.17,7.25,4.79,14.55,12.78,14.47,7.37-.08,12.05-6.74,16.27-11.86,3.42-4.13,6.78-8.29,10-12.53.22,5.82,1.58,11.44,4.61,16,5.28,7.84,14.14,5.41,20.17,0a74.91,74.91,0,0,0,10.78-12.74,33.18,33.18,0,0,0,.6,5.55c.78,3.86,2.71,7.69,6.06,9.92,5.36,3.56,9.16,1.28,13.34-2.91a60.26,60.26,0,0,0,8.63-11.17c-.16,5.49.62,11,3.74,15.45a5.1,5.1,0,0,0,4.39,2.52c9.63-.85,16.55-9,17.44-18.37C303.42,107.08,297,105.73,295,109.26Zm-218.11-29c1.77-1.76,3.81-2.46,5.51,0,3.43,4.91.6,13.93-2,19.25-3.35.47-7.28.46-10.83,1.13C70.3,93.82,72.3,84.83,76.91,80.22Zm47.48,37.89a.24.24,0,0,1,.06.09A.47.47,0,0,0,124.39,118.11Zm5.71-40.24c-.53-3.58.21-6.64,2.81-7.1-.46,3.59-1.08,7.11-1.83,10.6A13.83,13.83,0,0,1,130.1,77.87ZM162,80.41c2.34.51,7.22,3.46,5,6.34-2.55,3.39-10.15,3.22-13.81,3.36-.67,0-1.39,0-2.13,0a19.93,19.93,0,0,1,3.69-6.84C156.68,81.19,159.15,79.78,162,80.41Zm98.47,36.47c-4.59-4.5.39-19.37,1.9-23.44s3.58-8.81,6.87-11.8c3.59-3.26,9.54-2.57,10.59,2.93a1.14,1.14,0,0,0,1.39.77C275.9,97,270,108.18,260.49,116.88Z"/><path d="M545.48,81.18c0-.27,0-.53-.07-.78a14.13,14.13,0,0,0-7.82-10.86c-9.86-4.63-21.68,5.18-24.85,14.75-5.23,3.46-10.28,6.55-16.16,8.58q1-10.23,2.11-20.44C506.92,59,510.12,42.4,512.38,27c.87-5.94,1.92-13.58-1.71-18.87-4.43-6.45-10.6-2.21-12.78,3.61-2.1,5.58-2.74,11.77-3.74,17.62-1.18,6.92-2.08,13.88-3,20.84C490,59,489,67.68,488,76.41a3.62,3.62,0,0,0-.24.43c-1,2-1.21,5-1.73,7.13-1.15,4.78-2.35,9.57-3.84,14.26A81.38,81.38,0,0,1,471.47,120c.14-1.06.33-2.09.36-2.48.19-2.55.42-5.1.67-7.64q.83-8.39,2.07-16.72c.76-5.06,1.59-10.12,2.54-15.15s2.46-10.23,2.38-15.41c-.08-4.63-5.82-5.27-7.79-2.09l-.07,0a37,37,0,0,0-2.89,8A13.07,13.07,0,0,1,463,73.21a37.26,37.26,0,0,0,.62-7c-.08-3.92-1.32-7.94-5.52-9-6.24-1.64-9.57,7.08-9.47,12.15a11.93,11.93,0,0,0,7.12,10.57,211.23,211.23,0,0,1-11.32,23.6c-1.73,3.26-3.26,6.55-4.83,9.88a7.86,7.86,0,0,1-.64,1,18,18,0,0,1-.75-2.86c-.5-6.27.5-12.67,1.37-18.86.74-5.27,2.3-10.84,1.68-16.18-.51-4.32-5.76-5-7.41-1-2.48,6-3.62,12.79-4.56,19.23-2.48,3.41-6.05,7.87-9.7,9.75,2-6.62,3.3-13.55,4.62-20.07,2.65-13.17,4.75-26.85,5-40.3C429.3,39,429.3,34,429,28.9c-.23-3.75-.22-8.38-1.58-11.88-1.76-4.55-7.33-8.61-11.29-3.89-2.13,2.52-3.18,7.07-4.19,10.23a172.84,172.84,0,0,0-7.35,63.75c.4,5.32,1,14.14,5.22,18.79a33.1,33.1,0,0,1-6.51,9.44,8.62,8.62,0,0,1-2.23,1.5c-1,.32-.49,0-.72,0-.37-.92-1.13-2-1.41-2.87a41.71,41.71,0,0,1-1.07-4.58c-.71-3.71-1.09-7.46-1.62-11.2-.93-6.52-.69-14.64-4.69-20.17-.78-1.08-2.75-1.14-3.09.4-.23,1.07-.41,2.16-.57,3.25a88.32,88.32,0,0,1-13.07,28.19,24.94,24.94,0,0,1-5,5.9,4.6,4.6,0,0,1-.78.47c-.33-.4-.73-.83-.23-.06-.39-.6-.78-1.19-1.12-1.83-1.26-2.31-2.26-6.39-3-9.82C360.62,84,361.29,62,362.37,41.2c.34-6.51,0-15.79,1.34-21a2.4,2.4,0,0,0-4-2.32c-4.55,4.34-5.34,14.7-6.1,21.05A267.61,267.61,0,0,0,352,75.29c.2,11.7.73,23.77,3.56,35.18,1.64,6.6,5.06,16.27,13.4,16.13,4.89-.08,8.87-3.85,11.48-7.63a61.6,61.6,0,0,0,6.82-13.35c.28,5.66,1.19,11.64,4,16.35,6,10.18,17.83,4,22.51-3.76a54.7,54.7,0,0,0,4.47-9.54c3.65-.82,7.16-3.78,10.15-7-.68,5.69-.95,11.65.79,16.93,2.75,8.34,12.13,10.9,17.61,3.15,3.08-4.37,4.35-10.59,6.09-15.6,2.44-7,4.87-13.92,7-21,.42-1.36.85-2.75,1.26-4.16a14.17,14.17,0,0,0,5.3-1.19c-1.17,6.2-2.14,12.44-3,18.7s-1.5,12.7-2,19.08c-.38,4.93-.86,10.26,4.2,12.92a5,5,0,0,0,7.29-4.59c5.06-4.69,8.68-10.56,11.56-16.91q-3.54,35.58-6.2,71.24c-.39,5.24,5.92,6.35,8.9,3.39,7.29-3.18,12.9-12.31,15.93-18.63,4.71-9.8,6.45-20.37,8.46-30.95,2.35-12.43,1.51-28.63-8.54-36a56,56,0,0,0,9.39-4.61,13.69,13.69,0,0,0,6.48,8.06c4.73,2.63,12,1.69,15.75,5.83,3,3.29,2.17,8.68-.55,11.88-1.39,1.62-3.89,3.28-6.09,3.33-2.76.07-3.13-1.38-3.85-3.72a3.6,3.6,0,0,0-.51-1c.91-.75,1.75-1.59,2.65-2.35,1.69-1.42-.12-4.18-2.09-3.61a11.2,11.2,0,0,0-5.67,3.09c-1.2,1.4-2.64,3.3-2.57,5.22a1.14,1.14,0,0,0,.05.33c-1,3.47.66,7.18,4,9.45,4.52,3,9.8,2.62,14.6.56a19.66,19.66,0,0,0,10.56-23.86,17.17,17.17,0,0,0-10.14-10.31C531,94.65,521.33,95,521.5,88.89c.13-4.76,6.81-11.51,11.63-11.44,2.89,0,5.12,2.38,6.09,4.89a6.3,6.3,0,0,1,.41,2.17,17.67,17.67,0,0,0-1.6,1.63c-.45.53-3.37,3.34-1.85,4.22s3.53-.2,5.07-.61a20.2,20.2,0,0,0,6.25-3.06C550,85,548.62,80.23,545.48,81.18ZM369.13,116.34a.4.4,0,0,1,.19.26S369.22,116.46,369.13,116.34Zm39.24-27.08c-2-18.63.13-38.25,3.78-56.55a88.24,88.24,0,0,1,2.52-10.26A30.3,30.3,0,0,1,416.08,19a18.69,18.69,0,0,1,1.11-2.29c2-2.88,4.3-2.51,6.14.13S425,24.75,425,28c0,4.07-.41,8.16-.83,12.2C422,60.7,420,83.22,411.49,102.3,409.19,98.6,408.71,92.47,408.37,89.26Zm31,27.07h0a0,0,0,0,0,0,0Zm.05.06a1.18,1.18,0,0,1,.25.25C439.61,116.81,439.5,116.51,439.42,116.39ZM454.73,67c.17-2.77,2.76-8.68,4.5-3.7,1,2.87-.1,6.73-1.11,9.85A6.07,6.07,0,0,1,454.73,67ZM505,10.77c3.66-.34,1.24,15.59,1,17-1.36,7.49-2.77,15.34-4.94,22.9.27-2.42.53-4.85.79-7.27C502.11,40.49,503.5,10.9,505,10.77Zm-1.65,126.41c-1.42,8.66-3.41,17.32-7,25.36a48.7,48.7,0,0,1-6.64,11c-.13.17-.28.33-.42.49,1.84-24,4-48,6.4-71.95C508.4,106.59,505,126.77,503.32,137.18Z"/><path d="M574.09,97.35a4.18,4.18,0,0,0,0-2.64c-.54-1.93-2.64-3.85-4.78-3.64-3.67.35-7.53.13-10.95,1.58-2.45,1-2.19,5,0,6.13,2.91,1.49,6.43,1.51,9.63,2A5.13,5.13,0,0,0,574.09,97.35Z"/><path d="M628.35,71.84c-.39-.16-.79-.3-1.19-.43,5.55-6.24,9.24-14.22,9.76-22.16C638.09,31.08,623.63,17.71,607,16a3.32,3.32,0,0,0-5.07-.17,34.56,34.56,0,0,0-5.51.68c-10.54,2.17-21,8.88-23.75,19.6a.78.78,0,0,0,1.29.76c7-7,15.29-13,25.41-13.89-1.7,6.83-2.39,14.17-3.6,20.91-1.55,8.69-2.94,17.41-4.38,26.12-.43,2.63-.85,5.27-1.28,7.9A8.76,8.76,0,0,0,589,79.23a1,1,0,0,0,.37,1.41l.29.15q-3.12,19.18-6.16,38.38l-.06.15a15.49,15.49,0,0,0-.79,5.36c.26,5.51,9.3,7.47,10.22,1.38q3.24-21.53,6.42-43.06a28.25,28.25,0,0,0,17-3.1h.82c4,.1,8.57.9,11.36,4.07,3.66,4.16,3.36,10.19,2.71,15.33a64.3,64.3,0,0,1-17.72,36.24c-8.17,8.34-20.92,16.79-33,12.17-5.07-1.94-9.68-6-11.32-11.28-1.86-6,1.75-11.91,5.7-16.24a3.72,3.72,0,0,0-4.49-5.82c-14.47,7.42-15.51,25-4.46,36.09,12.1,12.18,29.54,10.59,43.15,2,14.6-9.22,25.18-24.52,30-41C643.14,97.83,644.47,78.07,628.35,71.84Zm-3.45-35c4,8.47,2.19,18.44-3.44,25.73a25.2,25.2,0,0,1-10.41,8c-1.2.18-2.39.38-3.55.62-1.87.37-4.24.86-6.68,1.53,0-.38.11-.77.17-1.15,1.28-8.84,2.59-17.67,3.76-26.53.91-7,2.54-14.4,2.93-21.61A24.44,24.44,0,0,1,624.9,36.85Z"/><path d="M672.88,78.14c.83-5.08-6.44-7.35-7.87-2.18-.66,2.39-3.3,4.86-4.74,6.86s-2.63,3.8-3.85,5.76a101.79,101.79,0,0,0,1-10.57c.14-4.49-6.07-4.86-7.46-1-5.27,14.63-6.3,31.58-7.79,47-.63,6.55,9.83,6.62,10.3,0q.81-11.56,2.22-23.07c.1-.85.22-1.7.34-2.55,1.51-2.13,3-4.31,4.53-6.29,1-1.19,1.92-2.35,2.91-3.51l-.18.8c-.29,1.47-.28,1.25-.52,1.45a4.63,4.63,0,0,0-.73,5.6c4.05,5.58,9.66,1.15,10.76-4C672.77,87.85,672.25,82,672.88,78.14Z"/><path d="M779,141c-2,3.39-6.65,11.69-11.45,12.59-3-7.25,0-15.88,1.16-23.32,1.26-8.19,1.46-17-1-25a27.41,27.41,0,0,0-7.51-12.35,66.56,66.56,0,0,0,21.23-17.58c5-6.42,13.85-21.4,3.49-27.43-6.22-3.61-13.28,2.35-17.54,6.4-7,6.59-12.69,14.61-17.59,22.81l.15-2.89c1.47-2.76,2.83-5.53,4.11-8.14,4.77-9.72,9.07-19.91,11.51-30.48,2-8.64,3.13-18.2.27-26.79-1.54-4.62-4.59-11.75-10.11-7.54-3.33,2.54-5.09,6.87-6.43,10.69a124.86,124.86,0,0,0-4.68,20.11c-2.94,17.3-4,34.94-5.11,52.43l-.15,2.62a1.91,1.91,0,0,0-.56.48C732,96,726.65,106.09,719,113.66c-3.06,3-5,2.87-6.39-1.12-1.15-3.25-1.07-6.89-.81-10.27a58.68,58.68,0,0,1,5-19.24c.87-1.9,2.79-6,4.68-4.77,2.49,1.68,1.91,8.48,1.44,10.83-.21,1,.93,2.24,2,1.51,4.61-3.3,7-7.9,5.73-13.77-1.07-5-5.18-9.07-10.45-8.85-11.31.48-15.72,17.15-17.43,26.68a2.73,2.73,0,0,0-2.38.5c-.53.38-1.28,1.07-2.12,1.83a60.29,60.29,0,0,0,1-12.42c-.15-4.5-.44-10-3.63-13.48a1.77,1.77,0,0,0-2.08-.27,15.54,15.54,0,0,0-5.18,3.88c-3.65,1.62-6.32,5-8.47,8.21-5.36,8.1-8.48,18.7-9.55,28.29-.75,6.8,0,17.88,9.33,17.75,10.58-.15,13.6-13,16-21.43a19.06,19.06,0,0,0,6.12-4.39c-.41,9,1.26,20.08,10.4,22.42,7,1.78,12.37-4.1,15.3-9.6,3.61-6.77,7.63-13.28,11.36-20-.53,10.25-1,20.51-1.8,30.74-.45,5.62,9.13,7,9.94,1.35,1.47-10.21,1.38-20.72,1.81-31,1-.2,1.93-.45,2.89-.73,4.57,4.07,7.46,16,7.61,19.48.46,10.77-3.42,21-3.32,31.68,0,4.53.95,9.95,3.8,13.65,2.69,3.5,7.79,3.55,11.64,2.08,8.06-3.09,11.43-12,13.47-19.69C785.8,140,780.81,137.83,779,141ZM695.3,90.9a95.19,95.19,0,0,1-2.89,9.32c-2.24-1-3.3-6.55-3.66-8.5a26.18,26.18,0,0,1-.41-4.16,37.6,37.6,0,0,1,3.42-5.39c1-1.37,4.5-3.26,4.74-5.09C697.87,81.19,696,88.13,695.3,90.9Zm-14.71,27.41-.12.07a3.53,3.53,0,0,1-.05-.38c-.57-6.25,1.11-13.71,3.46-20.26.78,3.47,2.25,7.62,5.36,9.43-.29.51-.57,1-.87,1.51C686.36,112,683.28,116.51,680.59,118.31Zm84.77-50.76c3.82-4.37,8.31-10.29,13.89-12.5.69-.28,1.74-.37,1.35-.42.44,0,.36,0,.64.54,1.76,3.2-1.4,8.29-3.28,11.38-6.66,11-17.05,17.32-28.5,21.7.4-.55.78-1.1,1.16-1.64A210.92,210.92,0,0,1,765.36,67.55Zm-8.65-56.73A19.3,19.3,0,0,1,758.4,6a12.84,12.84,0,0,0,.86-1.16c0,.06.06,0,.17,0a1.93,1.93,0,0,0,.11.83c.49,1.62,1.71,3.12,2.24,4.79A29.15,29.15,0,0,1,763,17a52.83,52.83,0,0,1-1,13.8c-2.09,11.13-6.17,21.89-10.92,32.13l-.63,1.32q.48-7.58,1-15.13C752.51,36.35,753.33,23.2,756.71,10.82Z"/><path d="M435.73,59.34a4.85,4.85,0,0,0,2.44.66l.49-.06,1.35-.18a3.82,3.82,0,0,0,1.72-.91,4.76,4.76,0,0,0,1.81-2.63,7.83,7.83,0,0,1,.37-1.16,3.9,3.9,0,0,0-.39-3,3.84,3.84,0,0,0-2.34-1.8A6.78,6.78,0,0,1,440,50l-1.35-.18a3.78,3.78,0,0,0-2,.44,2.41,2.41,0,0,0-1.11.65,3.81,3.81,0,0,0-1.31,1.42l-.3.4a4.84,4.84,0,0,0,0,4.88A4.84,4.84,0,0,0,435.73,59.34Z"/></g></g></svg>