<svg xmlns="http://www.w3.org/2000/svg" viewBox="0 0 645.36 202.12"><g id="Capa_2" data-name="Capa 2"><g id="Capa_9" data-name="Capa 9" fill="#ffffff"><path d="M178.78,111.92a26.23,26.23,0,0,1-5.11,8.37l-1,.94c-.11-.93-.42-2.28-.42-2.58a36.42,36.42,0,0,1,.38-4.54c.36-3.48.86-6.93,1.54-10.37,1.29-6.55,3.35-12.91,4.93-19.4,1.15-4.75-4.79-6.46-7.18-3l-.09-.07a56,56,0,0,0-3,6.17c-3.67,6.28-8.72,12.11-12.72,18l-1.87,2.74c.09-9.67.16-19.34.27-29,5.76-10.73,9.16-22.55,11.49-34.56,2.22-11.45,5.65-30.33-3.9-39.62a2.66,2.66,0,0,0-2.58-.68c-4.38,1.63-6.26,6.77-7.65,10.83-2.51,7.31-3.53,15-4.44,22.66-2,17-2.65,34.13-3,51.24-5.67,11.79-11.91,23.25-20.1,33.43,0-.31,0-.62,0-1a73.23,73.23,0,0,1,1.93-13.57c1.56-7.51,4.86-15.7,4.77-23.43,0-3.66-5.2-5.25-7-1.9q-.81,1.47-1.62,2.91c0-2.29-.48-4.55-2.23-6.22-5.88-5.63-13.62,2.58-17,7a65.69,65.69,0,0,0-12.21,27.86C90,119.28,89,126.36,91,131.31a9.37,9.37,0,0,0,1.81,2.86,4.36,4.36,0,0,0-3,1.79c-.57.75-3.89,3.08-4.87,2.77-1.57-.51-.73-4-.6-5.25.72-7.31,2.52-14.44,4.18-21.58a174.87,174.87,0,0,0,3.73-20.67c.46-4.35-.88-8.51-5.47-10C77.23,78.29,70,91.77,67,98.73l-.09.2c.36-8.9.73-17.81,1.21-26.7C73.47,59.1,78.47,45.75,81.58,31.92,83.07,25.33,88.68-.15,76,0,67.51.1,66.28,12.55,65,18.47a278.7,278.7,0,0,0-5.69,34.81c-1,10-1.61,20.1-2.12,30.16-2,4.65-4,9.29-5.93,14-.38.94-.8,1.92-1.23,2.92-.15-1-.33-2-.53-3C47.75,89,42.12,79.47,32.54,79.5a13.86,13.86,0,0,0-6.29,1.55c-2.31,1.19-3.1,3-4.1.44-1.24-3.24-.26-7.57.39-10.82,1.5-7.49,5.15-20.25,12.79-24a1.25,1.25,0,0,1,.36.47c.23.49.67.93.91,1.43.89,1.84.78,4.29.77,6.27,0,4.27-.76,9.74-3.21,13.37-1.57,2.33,1.67,5.8,4,4a24.85,24.85,0,0,0,9.32-21.86c-.84-8.35-8-17.55-17.17-13-7.8,3.86-12.18,13.42-14.85,21.21S10.41,76.67,14.2,84.46c1.88,3.86,4.76,7,9.4,6,4.33-.92,8.31-6,12.59-2.26,3.52,3.08,4.37,8.68,4.36,13.09a115.27,115.27,0,0,1-.89,14.85c-.8,6-2.93,13.38-8,16.52-3.31,2-7.32,1.72-10.84.07a17.8,17.8,0,0,1-9.65-10.82c-1.88-6.51,2.12-10.4,4.35-16.85,1.36-3.92-3.29-6.54-6.47-5-6,3-8.84,11.11-9,17.48a25.81,25.81,0,0,0,6.05,16.71c7,8.7,19.7,13.44,30.13,8,10-5.25,13.85-17.64,14.4-29.48,2.45-3.79,4.09-8.47,5.8-12.54q-.24,5.92-.49,11.86c-.28,6.66-1.19,13.45.21,20,.94,4.38,7,3.77,8.27,0,1.76-5.3,2.14-11.22,2.24-17.12,1.67-5.27,3.27-10.6,6-15.4a38.69,38.69,0,0,1,4.66-6.76,25.35,25.35,0,0,1,2.91-2.86c1.46-1.2,2.86-3.06,3.8-.65.58,1.48-1.94,7.34-2.37,9-.94,3.64-2,7.25-2.94,10.89a179.71,179.71,0,0,0-4.15,20.16c-.76,5.51-1.8,11.19,2,15.82a10.73,10.73,0,0,0,10.71,3.69c5-1.13,7.48-4.44,9.37-8.92a4.37,4.37,0,0,0,.19-3.21A9.82,9.82,0,0,0,106.9,134,42.75,42.75,0,0,0,114,123.26a26.12,26.12,0,0,0,.5,3.86c.62,2.89,2.12,5.78,4.85,7.18,5.66,2.92,9.29-1.2,11.93-5.85,5.14-9.06,8.68-18.94,13-28.43,0,1.78-.05,3.57-.08,5.35q-.12,9.27-.23,18.56-2.06,3.36-4,6.8c-8.82,15.92-15.33,34.92-12.13,53.28,1,5.51,2.29,12.56,6.89,16.21.41.32,1.12.68.93.53a7.5,7.5,0,0,0,2.1,1.11,7.4,7.4,0,0,0,4,0c5.41-1.55,7.11-8.19,8.16-13,4.18-19.17,3.74-39.64,4.07-59.14q.07-4.5.13-9c1.91-3.23,3.89-6.43,6-9.57,1.19-1.79,2.36-3.65,3.55-5.52-.26,1.47-.51,2.95-.72,4.41-.94,6.41-2.42,16.09,3.22,21,9.93,8.63,19.8-8.91,21.18-16.76C188.25,108.71,180.65,106.5,178.78,111.92ZM35.28,46.69c-1,.31-.52-.31,0,0ZM74.1,11.22c.28-1.52.85-6.43,3-3.32a7.73,7.73,0,0,1,.57,2.87,41.71,41.71,0,0,1,.18,8,89.19,89.19,0,0,1-3.33,18.1c-1.53,5.54-3.31,11-5.25,16.42A367.84,367.84,0,0,1,74.1,11.22Zm41,74.57a1,1,0,0,0,0,.15C115,85.86,115.12,84.9,115.09,85.79Zm-9.71,34.3a36.54,36.54,0,0,1-3.56,4.75c-.45.51-.94,1-1.43,1.47a3.72,3.72,0,0,0-.14-.37c-.55-2.09-.2-4.82,0-6.93a52.4,52.4,0,0,1,3.46-14c2.48-6.51,6.46-14,11.67-18.27a6.58,6.58,0,0,1,.3.79c.86,3.94-.13,8.19-.62,12.31-.21.51-.43,1-.64,1.52C111.83,107.76,109.13,114.22,105.38,120.09ZM156.72,23.5a47.9,47.9,0,0,1,1.81-10,12.35,12.35,0,0,1,1.27-2.91c2.53,4,2.48,9.45,2.19,14a119.88,119.88,0,0,1-3.94,22.23c-1,3.77-2.06,7.52-3.21,11.24,0-.72,0-1.44,0-2.16C155.15,45.06,155.66,34.27,156.72,23.5ZM137.77,193.42h0Zm2.08-.41,0-.08s0,0,0,0a.92.92,0,0,0-.1-.2C139.66,192.49,139.72,192.44,139.85,193Zm.08.17a2,2,0,0,0,.37,0A.27.27,0,0,1,139.93,193.18Zm-.73-2.74c-.1.32-.22.62-.33.93a9.06,9.06,0,0,1-.58-.91,39,39,0,0,1-2.17-6.66,48.84,48.84,0,0,1-.9-14.82c.8-9.86,4.23-19.52,8.41-28.45-.26,10.25-.68,20.49-1.47,30.71C141.63,178,141.22,183.85,139.2,190.44ZM173,123.25c.12-.09-.15-.66-.25-1C173.94,121.91,175,121.74,173,123.25Z"/><path d="M176.41,63.45a10.29,10.29,0,0,0,1.56.2,4.92,4.92,0,0,0,3.61-1.54,6.1,6.1,0,0,0,.91-1.23,4.83,4.83,0,0,0,0-4.85,4.76,4.76,0,0,0-1.73-1.72,4.68,4.68,0,0,0-2.42-.66l-.37,0a5.09,5.09,0,0,0-4.32,2.48,4.83,4.83,0,0,0,2.76,7.34Z"/><path d="M285.08,147.75a46.17,46.17,0,0,0-18.87-4.82c-.36-5.18-.8-10.36-1.1-15.51-.42-7.18-.93-14.36-1.28-21.53a37.61,37.61,0,0,0-2.2-12.08C259.11,87.36,251.24,80,244.57,86a1.63,1.63,0,0,0,.33,2.54,23,23,0,0,1,5.66,5.36c-2.28,3.15-2.15,7.55-3.1,11.25a62.43,62.43,0,0,1-4.94,13.33c-.71,1.36-2.67,6.22-4.8,6-2.4-.2-2.51-5.44-2.72-7-1.94-14.58-2.53-29.36.55-43.84,2-9.3,5.26-18.55,11-26.25a26.82,26.82,0,0,1,5.7-5.79c.71-.47,2.62-1.46,2.23-1.31a6.51,6.51,0,0,1,2-.5c.05,0,.49.23.48.22A9.66,9.66,0,0,1,258,42.64c1.1,4,.08,8.15.53,12.2a1.78,1.78,0,0,0,3.28.89c4-6,5-17.26-.87-22.48-6.52-5.8-15.24-.07-20,5.06-8.64,9.23-13.26,22.1-15.65,34.31a123.5,123.5,0,0,0-2.2,26.1A147.31,147.31,0,0,0,224.2,114c.61,4.94.74,10.29,3.39,14.67,5.17,8.54,15.64,7.22,21-.26a46.46,46.46,0,0,0,5.76-11.14c0,1.78.09,3.54.2,5.26.42,7,.82,14.06,1.26,21.09a48.66,48.66,0,0,0-20.6,8.7c-11.15,8.24-20.75,24-11.63,37.33,9.77,14.24,30,7.05,37.49-5.53,4.35-7.24,5.58-16,5.71-24.3.05-3.27,0-6.55-.18-9.84a42.81,42.81,0,0,1,15.15,3.44C285.55,155.06,288.93,149.68,285.08,147.75Zm-29.16,20.51c-1,6-3.14,12.05-7.91,16-3.88,3.23-10.27,5-14.87,2.19-10.54-6.4-2.58-20.37,3.83-26.19a40.17,40.17,0,0,1,19.31-9.52A76.43,76.43,0,0,1,255.92,168.26Z"/><path d="M450.48,96c1.77-2.54-1-5.22-3.47-4.86,2.77-11.45,2.64-20.83-5.48-20.48C433,71,428.64,85.19,430.75,91.93a12.57,12.57,0,0,0,5.48,7.1c-1.25,3-2.59,5.93-3.85,8.73-1.85,4.11-3.76,8.19-5.54,12.33-.5,1.16-1,2.32-1.48,3.48-.38-.54-.76-1.08-1.11-1.65-2.44-4-4.64-8.11-6.77-12.25l-1.52-3c3.05-6.09,7.17-14.32,3.54-19.43-2.38-3.34-8.18-2.42-8.13,2.2A13.13,13.13,0,0,1,410,94.83a17.65,17.65,0,0,0-3.88-5.73.62.62,0,0,0-1,.27c-1.36,3.47.62,8.34,1.56,11.72.06.2.13.41.18.61q-1.94,4.36-4,8.67-2.33,4.89-4.75,9.71c-.69-3.63-1.18-7.31-1.56-11-.79-7.69-1.14-15.81-3.93-23.09a3.87,3.87,0,0,0-7.39,0c-1.73,4.78-3.95,9.42-6,14.08l0,0c-5.3,5.89-8.18,13.8-12.51,20.45a49.11,49.11,0,0,1-3.42,4.8c-.18.22-.43.49-.71.77a54.9,54.9,0,0,1-.9-10c-.13-6.88.11-13.75.54-20.61.35-1.37.69-2.75,1-4.14,3.63-16.68,9.45-32.81,12.73-49.61,2-10.14,6.28-28.34-3.79-35.76a3.08,3.08,0,0,0-3.17,0c-7.27,4.08-9,13.46-10.27,21-1.1,6.65-2,13.41-2.48,20.13-.7,10.7-1.8,21.38-2.73,32.06-3.52-.74-7.14.62-10.13,2.77-7.3,5.26-11.23,13.92-12.9,22.59a4.15,4.15,0,0,0-2.53,2.54c-2.19,5.82-4.39,12.2-7.94,17.44-.13-.58-.22-1.07-.25-1.3-1.1-10,.26-20,.79-30,.19-3.5.35-7,.5-10.53a23.22,23.22,0,0,0,2.53-3.24,61,61,0,0,0,6.39-14.59c3.41-11.18,4.95-22.8,6.83-34.29,1-6.1,6.32-20.63-3-22.83-10.15-2.4-14.22,14.6-16,21.22-4.25,15.71-5.36,32.47-6.36,48.66-.14,2.25-.26,4.5-.39,6.75-3.46,5.37-3.72,12.32-7.56,17.48-.22.3-.47.6-.73.89,1.21-9.38,1.53-25-10.13-25.83a10.51,10.51,0,0,0-6.5,1.58c-6,2.5-10.66,10.19-12.7,15.61a71.62,71.62,0,0,0-3.66,17.4c-.63,5.75-1.76,12.12-.28,17.82,2.22,8.57,10.93,13.27,18.94,8.76,4.13-2.31,6.5-6.39,8.1-10.7a120.26,120.26,0,0,0,4.5-15.14c4.28-2.09,6.87-5.45,8.84-9.35,0,.28,0,.57-.07.85,0,.43-.08.86-.13,1.29-.12,1.09.09-1.08-.05.35a89.84,89.84,0,0,0,.21,19.94c.81,6.27,5,16.3,12.94,10.83,3.18-2.18,4.95-6,6.54-9.42.2-.44.39-.89.59-1.33a16.77,16.77,0,0,0,3.55,7.73c6.33,7.15,15.13,1,19.11-5.24l.21-.35c1.15,5.77,3.8,11.23,10.2,9.77,4.54-1,7.59-5.84,9.81-9.53,3.59-6,7.5-13.2,9.46-20.29.62-1.12,1.21-2.25,1.8-3.32s1.1-2,1.64-3.07c.29,3.59.67,7.17,1.05,10.7.87,8.09,2.15,16.08,5,23.73,1.47,3.91,7.13,5.41,9.42,1.23,3.73-6.81,7.27-13.71,10.54-20.75.52,1.32,1.05,2.64,1.62,3.94,2,4.58,4.37,9.95,8.28,13.24,4.27,3.61,8.89,1.73,10.91-3.08,1.36-3.23,7.56-16.5,11.88-29.68A10.62,10.62,0,0,0,450.48,96ZM290.64,107.19c-4.89-1.63-5.67-7.52-5.36-11.91a36.26,36.26,0,0,1,.45-4c.12-.19.22-.39.35-.58,2-3.2,4.85-6.9,8.12-3.16a12.41,12.41,0,0,1,1.21,1.69,28.68,28.68,0,0,1,.33,4.56,51.27,51.27,0,0,1-2.14,13.73A8.08,8.08,0,0,1,290.64,107.19Zm-4.8,19.47c-5.68,6.7-7-1.16-6.6-6.45.35-4.76.67-9.7,1.49-14.51,2,4.57,5.63,8,10.86,8.4C290.23,118.45,288.7,123.29,285.84,126.66ZM326,26.08c.68-3.53,1.49-7.44,3.38-10.56,1.27-2.11,3.62-4.16,4.12-.26.45,3.49-1.06,7.71-1.65,11.17-.72,4.25-1.35,8.52-2,12.77C328.47,47.53,327,55.92,324.38,64a62.43,62.43,0,0,1-2.86,7.23C322.2,56,323.16,40.82,326,26.08ZM317.62,127.4c-.1.1-.17.15-.17.13S317.52,127.42,317.62,127.4Zm3.44,1.31s-.07-.12-.14-.37C321.08,128.47,321.15,128.6,321.06,128.71Zm44.58-77.65c.26-5.33.57-10.62.84-16A111.4,111.4,0,0,1,367.59,22c.45-2.68,1-6.61,2.83-9,3.59,5.18,1.44,16.37.73,21.26A209,209,0,0,1,365,61.64C365.23,58.11,365.47,54.58,365.64,51.06Zm-19,64.78a17.87,17.87,0,0,1-2.88,6.85c-.58.77-2.37,1.9-2.67,2.74,0,0-.06.06-.12.11-1-7.75-1.66-14.84.47-22.64a28.78,28.78,0,0,1,5.31-10.83c1.35-1.63,3.74-3.89,6-4.44-.32,4-.61,7.91-.82,11.88-.6,1.67-1.19,3.34-1.76,5C348.92,108.27,347.61,112,346.62,115.84Zm14.2,11.86c-.23.19-.39.29-.4.26C360.36,127.76,360.53,127.69,360.82,127.7Zm2.39.62c.47.21.28.4,0,0Zm60.8-1.39s0,.09,0,.12S423.91,127,424,126.93Zm0,.13c-.17.65-.36,0,0,0Zm3.51-.72-.12-.08C427.5,126.27,427.56,126.29,427.5,126.34Zm10.25-36.25c-1.38-2.8-.17-7,1.26-9.63,2.3-4.18,2.57-3.38,2.25.58A47.33,47.33,0,0,1,439,91.78,6.53,6.53,0,0,1,437.75,90.09Z"/><path d="M636.36,120.87c-1.86,3.28-6.33,7.41-10.53,7-1-8.93,4.75-18.71,8.23-26.4,4.2-9.3,9.81-20.1,8.83-30.63-.33-3.59-4.36-5.58-7.17-3-2.31,2.15-4.82,7.39-7.85,10,.5-4.06.32-8.3-2.62-11.34-5-5.21-10.8-.45-11.67,5.52-.73,5,2.17,9.67,6.41,12a106.48,106.48,0,0,1-11.61,27.4,61.09,61.09,0,0,1-10,13.29,17.26,17.26,0,0,1-4.71,3.43c-1.2.51-1.27.37-2.91-.95-5-4-5.11-11.59-3.77-18.43l2.06,0c8.62-.18,17.63-2.25,21.56-10.79,3.11-6.78.56-15-6.89-17.33-6.57-2.1-13,.86-17.29,5.8a40.6,40.6,0,0,0-8.37,16.26,125.46,125.46,0,0,0-14.77,1.66c-1.86-3.42-3.76-6.91-5.39-10.46,4-4.94,8-11.53,3.55-17.2-3.19-4.1-8.78-3.95-12.29-.34-4.67,4.8-3.14,12.45-.62,19.08a56.39,56.39,0,0,1-6,4.42,113.24,113.24,0,0,1-13.4,7.4,22.16,22.16,0,0,0-3.13-6.46c-1.42-2-4-4.38-6.33-7,3.61-4.09,7.18-8.5,5.77-14.24-1.64-6.64-8.61-8.19-13.8-4.38C504.78,80.29,506,88.89,510,95.44l.64,1c-5.9,6.77-11.78,13.57-17.84,20.2a51.36,51.36,0,0,1-8.46,7.33l-.87.65a110,110,0,0,1,2.37-12.49c1.8-8.24,4-16.33,5.57-24.63.68-3.67-4.82-6.75-6.55-2.76-.87,2-1.68,4-2.45,6a22.57,22.57,0,0,0-1.95,2.39,9.16,9.16,0,0,0,.55-6.18c-1.14-4.25-5.29-6.45-9.45-6.61-14.24-.57-21.56,16.63-25.7,27.62-2.7,7.16-4.42,16.86-.92,24.1,2.82,5.84,9.69,6.56,14.78,3.18,3.22-2.14,4.64-5.71,6.94-8.67,2.67-3.45,5.45-6.79,7.95-10.37l.05-.07a46.66,46.66,0,0,0-1.4,11.51c.21,7.61,6.14,11.87,12.92,7.38,3.62-2.39,5.63-5.76,8.07-9.22,3.18-4.52,7-8.71,10.41-13.08,3.12-4,6.22-8,9.35-11.94,2.6,3.18,5.25,6.45,6.09,10.26a82.39,82.39,0,0,0-13.38,6.31c-5,3.07-9.25,7.28-10.44,13.29-1,4.85,2.56,10.29,7,12.25,9,3.95,17.77-5.16,21.94-12.13a32.6,32.6,0,0,0,4.9-17.46c1.74-.67,3.47-1.38,5.15-2.18a71.57,71.57,0,0,0,15.71-10c.45,1,.88,1.86,1.27,2.67l1.51,3.09c-8.06,2.68-16.37,7.09-20.07,14.82a19.48,19.48,0,0,0-.58,14.77c2,5.76,7.15,8.74,12.84,10.2,9.94,2.54,25.49.39,28.32-11.52,1.86-7.84-3.87-17.13-7.3-23.85l2.59-.61a66.28,66.28,0,0,1,7.26-1.22,40.67,40.67,0,0,0,.75,13.75c1.32,5.54,4.51,10.71,9.6,13.49,5.3,2.89,10.52,1.45,15-2.28,10-8.35,15.18-22.63,19.67-34.42a119.14,119.14,0,0,0,4.58-14.35,12.07,12.07,0,0,0,5-1.38c-4.49,11.92-12.5,22.74-15.11,35.38a29.63,29.63,0,0,0-.39,11.45c.83,4.47,4,6.34,8.32,6.93,9.36,1.27,17.35-5.3,20.79-13.49C647.12,119.52,639,116.31,636.36,120.87Zm-162-17.77a154.94,154.94,0,0,1-10.17,13.72,46.27,46.27,0,0,1-6.2,6.69c-.66.55-3.58,3.66-4.61,3.52.91.13,0-3.49-.05-4.61a27.23,27.23,0,0,1,1.25-8.54c1.6-5.48,4.49-10.21,7.14-15.2,1.72-3.24,3.4-6.29,6.85-8,1.6-.77,3.87-1.44,5.64-.73,2.47,1,1.62,3.47,2.32,5.69a.6.6,0,0,0,.74.43,5.64,5.64,0,0,0,2.1-1.43C477.63,97.44,476.13,100.43,474.39,103.1ZM480.2,127a1.17,1.17,0,0,0-.34.26C480.05,127,480.09,126.93,480.2,127Zm3.14,1.58c.11.11.13.2.05.24S483.38,129,483.34,128.53ZM515,84c.43-2.8,5-6.08,5.54-1.63.34,2.66-1.83,5.29-3.91,7.49A8.65,8.65,0,0,1,515,84Zm-.14,44.5a17,17,0,0,1-4.91,4.51c-1.21.66-2.35,1-2.65.76-2.08-1.42-1.31-4.86-.53-6.74,1.5-3.64,4.54-5.82,7.93-7.56,1.78-.91,3.62-1.71,5.48-2.45A26.43,26.43,0,0,1,514.82,128.46ZM556.71,81c1.4,1.62.29,4.38-1.24,6.81-.37-1.07-.69-2.15-1-3.23C554.07,82.89,554,77.84,556.71,81Zm3.74,39.35c1.61,3.42,4.39,8.63,4.12,12,0,.16,0,.27,0,.36a4.2,4.2,0,0,1-.77,1.5,8.16,8.16,0,0,1-2.42,1.82c-2.9,1.49-6.57,1.68-9.76,1.31-5.62-.65-10.74-3.27-9.87-9.71.91-6.72,8.23-10.9,15.66-13.56C558.43,116.13,559.46,118.21,560.45,120.31Zm29.4-21c1.54-3.82,4-9.19,8.3-10.56s7.25,1.73,5.74,5.85c-1.79,4.86-6.86,6.47-11.58,7-1.15.13-2.29.24-3.44.34C589.2,101,589.53,100.13,589.85,99.33ZM618.58,71c2.21-3.79,3.32,1.08,3.22,2.88a35.16,35.16,0,0,1-.51,4.31A11.61,11.61,0,0,1,620,76.86C618.83,75.55,617.57,72.71,618.58,71Z"/></g></g></svg>